SplineFontDB: 3.0
FontName: Besley-it-MediumItalic
FullName: Besley* Medium Italic
FamilyName: Besley* Medium
Weight: Medium
Copyright: Copyright (c) 2017, Owen Earl,,, (EwonRael@yahoo.com)
UComments: "2016-4-15: Created with FontForge (http://fontforge.org)"
Version: 001.1
ItalicAngle: -13
UnderlinePosition: -100
UnderlineWidth: 50
Ascent: 800
Descent: 200
InvalidEm: 0
LayerCount: 2
Layer: 0 0 "Back" 1
Layer: 1 0 "Fore" 0
XUID: [1021 31 -699969567 16487490]
FSType: 0
OS2Version: 0
OS2_WeightWidthSlopeOnly: 0
OS2_UseTypoMetrics: 1
CreationTime: 1460762150
ModificationTime: 1500758487
PfmFamily: 17
TTFWeight: 500
TTFWidth: 5
LineGap: 100
VLineGap: 0
OS2TypoAscent: 800
OS2TypoAOffset: 0
OS2TypoDescent: -200
OS2TypoDOffset: 0
OS2TypoLinegap: 100
OS2WinAscent: 900
OS2WinAOffset: 0
OS2WinDescent: 300
OS2WinDOffset: 0
HheadAscent: 900
HheadAOffset: 0
HheadDescent: -200
HheadDOffset: 0
OS2CapHeight: 700
OS2XHeight: 460
OS2FamilyClass: 1024
OS2Vendor: 'PfEd'
OS2UnicodeRanges: 00000001.00000000.00000000.00000000
Lookup: 5 0 0 "'calt' Contextual Alternates lookup 1" { "'calt' Contextual Alternates lookup 1-1"  } ['calt' ('DFLT' <'dflt' > 'grek' <'dflt' > 'latn' <'dflt' > ) ]
Lookup: 1 0 0 "'ss01' Style Set 1 lookup 2" { "'ss01' Style Set 1 lookup 2-1"  } ['ss01' ('DFLT' <'dflt' > 'grek' <'dflt' > 'latn' <'dflt' > ) ]
Lookup: 4 0 1 "'liga' Standard Ligatures lookup 0" { "Not your mama's contextual ligatures"  } ['liga' ('DFLT' <'dflt' > 'grek' <'dflt' > 'latn' <'dflt' > ) ]
Lookup: 258 0 0 "Kern like there's no tomorrow" { "Get it right" [150,0,5] } ['kern' ('DFLT' <'dflt' > 'grek' <'dflt' > 'latn' <'dflt' > ) ]
MarkAttachClasses: 1
DEI: 91125
KernClass2: 17 15 "Get it right"
 13 backslash A L
 3 B S
 5 D O Q
 1 E
 3 F P
 5 G g r
 7 H I M N
 3 J U
 5 K X Z
 3 T Y
 9 a h m n u
 15 b c e o p v w y
 5 d i l
 1 f
 7 k x z t
 9 slash W V
 3 A J
 23 B D E F H I K L M N P R
 7 C G O Q
 3 T Y
 1 U
 3 V W
 3 X Z
 13 a c d e o q s
 5 b l t
 19 f m n p r u y w i j
 3 h k
 1 v
 3 x z

StartChar: ampersand
Encoding: 38 38 0
Width: 874
Flags: HMW
LayerCount: 2
Back
SplineSet
677 364 m 4
 642 364 623 388 623 426 c 4
 623 456 649 489 698 489 c 5
 720 380 l 5
 708 380 711 364 677 364 c 4
254 55 m 5
 496 55 730 281 730 359 c 4
 730 375 728 380 720 380 c 5
 698 489 l 5
 766 489 789 446 789 385 c 4
 789 245 494 -10 219 -10 c 5
 254 55 l 5
0 160 m 5
 0 480 551 420 551 660 c 5
 645 655 l 5
 645 407 110 460 110 180 c 5
 0 160 l 5
219 -10 m 5
 76 -10 0 57 0 160 c 5
 110 180 l 5
 110 108 150 55 254 55 c 5
 219 -10 l 5
421 91 m 6
 274 470 l 6
 257 512 248 548 248 583 c 4
 248 673 343 760 489 760 c 4
 576 760 645 735 645 655 c 5
 551 660 l 5
 551 697 531 720 488 720 c 4
 401 720 353 673 353 620 c 4
 353 585 365 540 392 470 c 6
 536 95 l 6
 550 54 562 32 602 32 c 4
 633 32 652 50 672 85 c 5
 709 70 l 5
 694 26 649 -30 560 -30 c 4
 487 -30 447 23 421 91 c 6
EndSplineSet
Fore
SplineSet
662 334 m 0
 627 334 603 368 603 406 c 0
 603 446 639 489 698 489 c 1
 708 350 l 1
 699 350 696 334 662 334 c 0
254 65 m 1
 496 65 715 271 715 329 c 0
 715 345 713 350 708 350 c 5
 698 489 l 1
 766 489 799 436 799 375 c 0
 799 235 494 -10 219 -10 c 1
 254 65 l 1
-5 160 m 1
 -5 490 531 415 531 655 c 1
 665 655 l 1
 665 407 145 460 145 180 c 1
 -5 160 l 1
219 -10 m 1
 76 -10 -5 57 -5 160 c 1
 145 180 l 1
 145 108 190 65 254 65 c 1
 219 -10 l 1
401 91 m 2
 254 470 l 2
 237 512 228 548 228 583 c 0
 228 683 343 765 489 765 c 0
 596 765 665 729 665 655 c 1
 531 655 l 1
 531 692 521 715 478 715 c 0
 411 715 373 673 373 620 c 0
 373 585 385 540 412 470 c 2
 551 110 l 2
 566.51953125 69.583984375 577 57 617 57 c 0
 648 57 667 75 687 110 c 1
 729 80 l 1
 714 36 649 -30 560 -30 c 0
 487 -30 440.811523438 -11.642578125 401 91 c 2
EndSplineSet
EndChar

StartChar: period
Encoding: 46 46 1
Width: 230
Flags: HMW
LayerCount: 2
Back
SplineSet
40 50 m 4
 40 83 67 110 100 110 c 4
 133 110 160 83 160 50 c 4
 160 17 133 -10 100 -10 c 4
 67 -10 40 17 40 50 c 4
EndSplineSet
Fore
SplineSet
-35 65 m 0
 -35 109 1 145 45 145 c 0
 89 145 125 109 125 65 c 0
 125 21 89 -15 45 -15 c 0
 1 -15 -35 21 -35 65 c 0
EndSplineSet
EndChar

StartChar: zero
Encoding: 48 48 2
Width: 530
Flags: HMW
LayerCount: 2
Back
SplineSet
145 280 m 4
 110 128 126 40 210 40 c 4
 304 40 350 128 385 280 c 4
 420 432 414 520 320 520 c 4
 236 520 180 432 145 280 c 4
35 280 m 4
 80 473 209 570 332 570 c 4
 465 570 540 473 495 280 c 4
 450 87 311 -10 198 -10 c 4
 75 -10 -10 87 35 280 c 4
EndSplineSet
Fore
SplineSet
160 190 m 0
 160 98 181 50 215 50 c 0
 289 50 370 198 370 370 c 0
 370 472 349 510 315 510 c 0
 231 510 160 362 160 190 c 0
20 190 m 0
 20 403 152 575 325 575 c 4
 418 575 510 523 510 370 c 0
 510 147 368 -15 205 -15 c 0
 122 -15 20 47 20 190 c 0
EndSplineSet
EndChar

StartChar: one
Encoding: 49 49 3
Width: 530
VWidth: 1155
Flags: HMW
LayerCount: 2
Back
SplineSet
111 465 m 21
 227 465 265 468 343 590 c 13
 314 465 l 5
 111 465 l 21
314 465 m 5
 343 590 l 5
 388 590 l 5
 359 465 l 5
 314 465 l 5
111 465 m 5
 359 465 l 5
 347 410 l 5
 99 410 l 5
 111 465 l 5
-0 55 m 5
 170 55 l 5
 157 0 l 5
 -13 0 l 5
 -0 55 l 5
265 55 m 5
 425 55 l 5
 412 0 l 5
 252 0 l 5
 265 55 l 5
254 420 m 5
 349 420 l 5
 252 0 l 5
 157 0 l 5
 254 420 l 5
EndSplineSet
Fore
SplineSet
132 465 m 21
 198 465 295 468 375 590 c 9
 355 465 l 1
 132 465 l 21
325 465 m 1
 375 590 l 1
 420 590 l 1
 370 465 l 1
 325 465 l 1
92 465 m 5
 350 465 l 1
 350 395 l 1
 92 395 l 5
 92 465 l 5
5 70 m 1
 205 70 l 1
 205 0 l 1
 5 0 l 1
 5 70 l 1
250 70 m 1
 430 70 l 1
 430 0 l 1
 250 0 l 1
 250 70 l 1
254 450 m 1
 420 590 l 1
 280 0 l 1
 145 0 l 1
 254 450 l 1
EndSplineSet
EndChar

StartChar: two
Encoding: 50 50 4
Width: 530
VWidth: 1155
Flags: HMW
LayerCount: 2
Back
SplineSet
474 157 m 5
 441 12 380 -30 291 -30 c 4
 184 -30 173 30 90 30 c 4
 49 30 29 10 12 -20 c 5
 -17 -20 l 5
 20 54 57 97 140 97 c 4
 240 97 242 63 318 63 c 4
 381 63 413 95 427 157 c 5
 474 157 l 5
182 472 m 5
 177 449 207 444 199 408 c 4
 190 371 155 350 128 350 c 4
 99 350 69 368 80 416 c 5
 182 472 l 5
80 416 m 5
 99 498 209 570 331 570 c 4
 452 570 545 520 520 410 c 5
 412 420 l 5
 429 494 401 528 322 528 c 4
 248 528 188 499 182 472 c 5
 80 416 l 5
242 269 m 4
 355 313 397 356 412 420 c 5
 520 410 l 5
 502 330 418 259 243 210 c 4
 129 178 30 80 7 -20 c 5
 -37 -20 l 5
 -3 127 112 219 242 269 c 4
EndSplineSet
Fore
SplineSet
179 473 m 1
 179 455 222 456 222 398 c 0
 222 351 182 320 145 320 c 0
 106 320 61 348 61 406 c 1
 179 473 l 1
472 157 m 5
 442 22 379 -35 280 -35 c 4
 173 -35 148 30 85 30 c 4
 44 30 19 10 9 -20 c 5
 -20 -15 l 5
 0 59 77 123 160 123 c 4
 240 123 251 83 317 83 c 4
 370 83 398 105 408 157 c 5
 472 157 l 5
61 406 m 1
 61 508 190 575 322 575 c 0
 433 575 518 530 518 430 c 1
 377 440 l 1
 377 494 353 518 294 518 c 0
 250 518 179 498 179 473 c 1
 61 406 l 1
232 269 m 0
 334.8359375 312.935546875 377 376 377 440 c 1
 518 430 l 1
 518 320 410.857421875 254.379882812 247 205 c 0
 140.1171875 172.790039062 4 80 4 -20 c 1
 -48 -20 l 1
 -17 137 114.060546875 218.611328125 232 269 c 0
EndSplineSet
EndChar

StartChar: three
Encoding: 51 51 5
Width: 530
VWidth: 1155
Flags: HMW
LayerCount: 2
Back
SplineSet
435 90 m 5
 334 90 l 5
 334 174 281 211 172 211 c 5
 172 245 l 5
 353 245 435 200 435 90 c 5
70 412 m 5
 70 494 174 570 316 570 c 4
 407 570 495 531 495 431 c 5
 394 431 l 5
 394 495 365 524 296 524 c 4
 232 524 159 493 159 466 c 5
 70 412 l 5
159 466 m 5
 159 443 191 440 191 404 c 4
 191 367 161 346 134 346 c 4
 105 346 70 364 70 412 c 5
 159 466 l 5
-50 -21 m 5
 34 -62 l 5
 34 -89 62 -114 136 -114 c 4
 265 -114 334 -14 334 90 c 5
 435 90 l 5
 435 -50 317 -160 136 -160 c 4
 4 -160 -50 -93 -50 -21 c 5
34 -62 m 5
 -50 -21 l 5
 -50 27 -12 65 27 65 c 4
 61 65 81 47 81 17 c 4
 81 -44 34 -32 34 -62 c 5
172 226 m 5
 172 260 l 5
 341 260 394 347 394 431 c 5
 495 431 l 5
 495 311 413 226 172 226 c 5
EndSplineSet
Fore
SplineSet
440 90 m 1
 299 90 l 1
 299 174 251 201 172 201 c 1
 172 245 l 1
 323 245 440 220 440 90 c 1
65 402 m 1
 65 484 164 575 316 575 c 0
 407 575 500 541 500 431 c 1
 359 431 l 1
 359 485 338 516 276 516 c 4
 232 516 174 492 174 466 c 1
 65 402 l 1
174 466 m 1
 174 443 211 430 211 394 c 0
 211 347 166 326 139 326 c 0
 110 326 65 344 65 402 c 1
 174 466 l 1
-60 -21 m 1
 47 -56 l 1
 47 -83 82 -99 136 -99 c 0
 235 -99 299 -14 299 90 c 1
 440 90 l 1
 440 -50 317 -165 136 -165 c 0
 4 -165 -60 -93 -60 -21 c 1
47 -56 m 1
 -60 -21 l 1
 -60 47 -17 95 32 95 c 0
 76 95 106 67 106 37 c 0
 106 -34 47 -26 47 -56 c 1
172 226 m 1
 172 270 l 1
 321 270 359 347 359 431 c 1
 500 431 l 1
 500 321 413 226 172 226 c 1
EndSplineSet
EndChar

StartChar: four
Encoding: 52 52 6
Width: 530
VWidth: 1155
Flags: HMW
LayerCount: 2
Back
SplineSet
337 259 m 5
 432 259 l 5
 338 -150 l 5
 243 -150 l 5
 337 259 l 5
70 105 m 5
 12 105 l 5
 107 255 355 420 387 560 c 5
 465 560 l 5
 423 380 165 255 70 105 c 5
50 120 m 5
 490 120 l 5
 478 65 l 5
 38 65 l 5
 50 120 l 5
12 105 m 5
 47 105 l 5
 38 65 l 5
 3 65 l 5
 12 105 l 5
256 -95 m 5
 243 -150 l 5
 148 -150 l 5
 161 -95 l 5
 256 -95 l 5
426 -95 m 5
 413 -150 l 5
 338 -150 l 5
 351 -95 l 5
 426 -95 l 5
407 259 m 5
 433 370 l 5
 458 370 l 5
 432 259 l 5
 407 259 l 5
337 259 m 5
 377 280 398 306 433 370 c 13
 407 259 l 5
 337 259 l 5
EndSplineSet
Fore
SplineSet
280 249 m 1
 329.462890625 253.1875 403.026367188 318.395507812 443 359 c 1
 325 -150 l 1
 190 -150 l 1
 280 249 l 1
53 105 m 5
 -15 105 l 5
 45 255 310 410 310 560 c 1
 438 560 l 1
 438 380 103 235 53 105 c 5
20 125 m 5
 470 125 l 1
 470 55 l 1
 20 55 l 5
 20 125 l 5
-15 105 m 5
 20 105 l 5
 20 55 l 5
 -15 55 l 5
 -15 105 l 5
210 -80 m 1
 210 -150 l 1
 105 -150 l 1
 105 -80 l 1
 210 -80 l 1
410 -80 m 1
 410 -150 l 1
 325 -150 l 1
 325 -80 l 1
 410 -80 l 1
390 249 m 1
 408 359 l 1
 443 359 l 1
 415 249 l 1
 390 249 l 1
280 249 m 1
 315 270 388 295 408 359 c 9
 390 249 l 1
 280 249 l 1
EndSplineSet
EndChar

StartChar: five
Encoding: 53 53 7
Width: 530
VWidth: 1155
Flags: HMW
LayerCount: 2
Back
SplineSet
234 565 m 5
 112 197 l 5
 62 197 l 5
 184 565 l 5
 234 565 l 5
475 130 m 5
 374 110 l 5
 374 204 355 261 286 261 c 4
 223 261 171 247 116 197 c 5
 62 197 l 5
 123 274 197 310 298 310 c 4
 419 310 475 230 475 130 c 5
-10 -21 m 5
 79 -67 l 5
 79 -94 102 -118 156 -118 c 4
 275 -118 374 -24 374 110 c 5
 475 130 l 5
 475 -50 337 -160 156 -160 c 4
 54 -160 -10 -113 -10 -21 c 5
79 -67 m 5
 -10 -21 l 5
 -10 35 25 55 54 55 c 4
 81 55 111 34 111 -3 c 4
 111 -39 79 -44 79 -67 c 5
184 475 m 5
 184 565 l 5
 327 565 l 6
 451 565 463 546 500 597 c 5
 550 597 l 5
 537 565 l 6
 505.927844883 488.514695096 502 475 265 475 c 6
 184 475 l 5
EndSplineSet
Fore
SplineSet
229 565 m 5
 107 197 l 5
 37 197 l 5
 159 565 l 5
 229 565 l 5
460 130 m 5
 319 110 l 5
 319 204 295 246 246 246 c 4
 203 246 160 237 107 197 c 5
 42 197 l 5
 103 274 177 315 278 315 c 4
 399 315 460 230 460 130 c 5
-35 -11 m 5
 74 -67 l 5
 74 -84 92 -108 146 -108 c 4
 235 -108 319 -24 319 110 c 5
 460 130 l 5
 460 -50 347 -165 156 -165 c 4
 34 -165 -35 -103 -35 -11 c 5
74 -67 m 5
 -35 -11 l 5
 -35 55 10 85 49 85 c 4
 86 85 126 59 126 12 c 4
 126 -44 74 -44 74 -67 c 5
164 435 m 5
 164 565 l 5
 292 565 l 6
 416 565 428 546 465 597 c 5
 535 597 l 5
 506 525 l 6
 475.15625 448.422851562 487 435 250 435 c 6
 164 435 l 5
EndSplineSet
EndChar

StartChar: six
Encoding: 54 54 8
Width: 530
VWidth: 1155
Flags: HMW
LayerCount: 2
Back
SplineSet
413 651 m 5
 510 611 l 5
 510 563 475 535 446 535 c 4
 419 535 389 556 389 593 c 4
 389 629 413 638 413 651 c 5
480 290 m 5
 380 290 l 5
 380 364 363 411 314 411 c 4
 211 411 100 300 100 220 c 5
 66 210 l 5
 66 317 175 460 326 460 c 4
 407 460 480 420 480 290 c 5
480 290 m 5
 480 150 350 -10 189 -10 c 4
 68 -10 10 70 10 220 c 4
 10 470 183 720 364 720 c 4
 446 720 510 693 510 611 c 5
 413 651 l 5
 413 664 408 678 369 678 c 4
 240 678 100 434 100 220 c 4
 100 128.818359375 121.305664062 40 189 40 c 4
 308 40 380 186 380 290 c 5
 480 290 l 5
EndSplineSet
Fore
SplineSet
406 660 m 5
 535 611 l 5
 535 553 500 525 451 525 c 4
 404 525 374 547 374 594 c 4
 374 640 406 642 406 660 c 5
500 290 m 5
 360 290 l 5
 360 354 348 396 309 396 c 4
 241 396 160 300 160 220 c 5
 126 210 l 5
 126 317 195 465 346 465 c 4
 427 465 500 420 500 290 c 5
500 290 m 5
 500 150 410 -15 209 -15 c 4
 88 -15 30 70 30 220 c 4
 30 470 203 725 384 725 c 4
 466 725 535 693 535 611 c 5
 406 660 l 5
 406 668 393 673 374 673 c 4
 255 673 160 434 160 220 c 4
 160 138.818359375 171.305664062 50 219 50 c 4
 308 50 360 186 360 290 c 5
 500 290 l 5
EndSplineSet
EndChar

StartChar: seven
Encoding: 55 55 9
Width: 530
VWidth: 1155
Flags: HMW
LayerCount: 2
Back
SplineSet
34 393 m 5
 64 528 122 580 221 580 c 4
 328 580 353 520 416 520 c 4
 457 520 482 540 492 570 c 5
 521 570 l 5
 501 496 435 452 352 452 c 4
 272 452 261 487 195 487 c 4
 132 487 98 445 88 393 c 5
 34 393 l 5
188 32 m 5
 188 -41 211 -46 211 -92 c 4
 211 -129 191 -160 147 -160 c 4
 108 -160 76 -133 76 -64 c 5
 188 32 l 5
289 218 m 4
 218.594726562 132.715820312 188 76 188 32 c 5
 76 -64 l 5
 76 25 148.556640625 138.651367188 230 231 c 4
 338.5 354.02734375 492 520 492 570 c 5
 545 570 l 5
 545 503 397.39453125 349.302734375 289 218 c 4
EndSplineSet
Fore
SplineSet
39 393 m 5
 69 528 132 585 231 585 c 4
 338 585 363 520 426 520 c 4
 467 520 492 540 502 570 c 5
 531 565 l 5
 511 491 404 427 331 427 c 4
 251 427 250 467 184 467 c 4
 151 467 113 445 103 393 c 5
 39 393 l 5
213 55 m 5
 213 -8 261 -4 261 -80 c 4
 261 -137 211 -165 157 -165 c 4
 108 -165 66 -131 66 -52 c 5
 213 55 l 5
309 218 m 4
 228.594726562 132.715820312 213 99 213 55 c 5
 66 -52 l 5
 66 37 138.556640625 138.651367188 230 231 c 4
 345.418945312 347.561523438 502 520 502 570 c 5
 560 570 l 5
 560 503 425.798828125 341.885742188 309 218 c 4
EndSplineSet
EndChar

StartChar: eight
Encoding: 56 56 10
Width: 530
VWidth: 1155
Flags: HMW
LayerCount: 2
Back
SplineSet
205 490 m 4
 205 416 236 385 285 385 c 4
 374 385 425 496 425 570 c 4
 425 644 394 675 345 675 c 4
 256 675 205 564 205 490 c 4
105 490 m 4
 105 600 204 720 345 720 c 4
 446 720 525 680 525 570 c 4
 525 460 426 355 285 355 c 4
 184 355 105 380 105 490 c 4
110 140 m 4
 110 86 126 35 195 35 c 4
 304 35 370 126 370 240 c 4
 370 294 344 345 285 345 c 4
 166 345 110 254 110 140 c 4
10 140 m 4
 10 280 114 375 285 375 c 4
 396 375 470 340 470 240 c 4
 470 100 356 -10 195 -10 c 4
 74 -10 10 40 10 140 c 4
EndSplineSet
Fore
SplineSet
245 490 m 4
 245 426 256 395 285 395 c 0
 344 395 385 496 385 570 c 0
 385 644 369 665 345 665 c 0
 286 665 245 564 245 490 c 4
105 490 m 0
 105 600 204 725 345 725 c 0
 446 725 525 680 525 570 c 0
 525 460 426 355 285 355 c 0
 184 355 105 380 105 490 c 0
150 140 m 0
 150 86 160 47 205 47 c 0
 278 47 330 126 330 240 c 0
 330 294 319 335 280 335 c 0
 201 335 150 234 150 140 c 0
10 140 m 0
 10 280 114 375 285 375 c 0
 396 375 470 330 470 230 c 4
 470 110 376 -15 195 -15 c 0
 74 -15 10 40 10 140 c 0
EndSplineSet
EndChar

StartChar: A
Encoding: 65 65 12
Width: 910
Flags: HMW
LayerCount: 2
Back
SplineSet
200.181640625 275 m 5
 660.181640625 275 l 5
 647.484375 220 l 5
 187.484375 220 l 5
 200.181640625 275 l 5
479.390625 55 m 5
 809.390625 55 l 5
 796.693359375 0 l 5
 466.693359375 0 l 5
 479.390625 55 l 5
-50.609375 55 m 5
 229.390625 55 l 5
 216.693359375 0 l 5
 -63.306640625 0 l 5
 -50.609375 55 l 5
494.455078125 705 m 5
 578.306640625 765 l 5
 706.693359375 0 l 5
 596.693359375 0 l 5
 494.455078125 705 l 5
519.306640625 765 m 5
 578.306640625 765 l 5
 75.693359375 0 l 5
 11.693359375 0 l 5
 519.306640625 765 l 5
EndSplineSet
Fore
SplineSet
205 275 m 1
 656 275 l 1
 665 200 l 1
 205 200 l 1
 205 275 l 1
475 75 m 1
 825 75 l 1
 825 0 l 1
 475 0 l 1
 475 75 l 1
-55 75 m 1
 275 75 l 1
 275 0 l 1
 -55 0 l 1
 -55 75 l 1
472 695 m 1
 590 765 l 1
 735 0 l 1
 587 0 l 1
 472 695 l 1
500 765 m 1
 590 765 l 1
 115 0 l 1
 20 0 l 1
 500 765 l 1
EndSplineSet
EndChar

StartChar: B
Encoding: 66 66 13
Width: 772
Flags: HMW
LayerCount: 2
Back
SplineSet
436.234375 415 m 5
 512.234375 415 595.700195312 456 618.556640625 555 c 4
 641.412109375 654 576.877929688 695 500.877929688 695 c 5
 513.575195312 750 l 5
 664.575195312 750 748.569335938 685 718.556640625 555 c 4
 688.54296875 425 589.154296875 380 428.154296875 380 c 5
 436.234375 415 l 5
233.575195312 750 m 5
 328.575195312 750 l 5
 155.424804688 0 l 5
 60.4248046875 0 l 5
 233.575195312 750 l 5
123.575195312 750 m 5
 233.575195312 750 l 5
 220.877929688 695 l 5
 110.877929688 695 l 5
 123.575195312 750 l 5
-36.8779296875 55 m 5
 73.1220703125 55 l 5
 60.4248046875 0 l 5
 -49.5751953125 0 l 5
 -36.8779296875 55 l 5
246.234375 415 m 5
 456.234375 415 l 5
 443.537109375 360 l 5
 233.537109375 360 l 5
 246.234375 415 l 5
323.575195312 750 m 5
 513.575195312 750 l 5
 500.877929688 695 l 5
 310.877929688 695 l 5
 323.575195312 750 l 5
163.122070312 55 m 5
 363.122070312 55 l 5
 360.424804688 0 l 5
 150.424804688 0 l 5
 163.122070312 55 l 5
363.122070312 55 m 5
 449.122070312 55 536.05078125 111 558.907226562 210 c 4
 581.762695312 309 519.537109375 360 433.537109375 360 c 5
 451.6171875 395 l 5
 612.6171875 395 698.919921875 340 668.907226562 210 c 4
 634.276367188 60 521.424804688 0 360.424804688 0 c 5
 363.122070312 55 l 5
EndSplineSet
Fore
SplineSet
83 750 m 1
 228 750 l 1
 228 675 l 1
 83 675 l 1
 83 750 l 1
-45 75 m 1
 90 75 l 1
 90 0 l 1
 -45 0 l 1
 -45 75 l 1
447 425 m 1
 523 425 617 471 617 570 c 0
 617 629 593 675 527 675 c 1
 527 750 l 1
 678 750 757 670 757 570 c 0
 757 420 628 380 447 380 c 1
 447 425 l 1
227 750 m 1
 367 750 l 5
 207 0 l 5
 67 0 l 1
 227 750 l 1
252 425 m 1
 467 425 l 1
 467 350 l 1
 252 350 l 1
 252 425 l 1
327 750 m 1
 527 750 l 1
 527 675 l 1
 327 675 l 1
 327 750 l 1
172 75 m 1
 377 75 l 1
 387 0 l 1
 172 0 l 1
 172 75 l 1
377 75 m 1
 523 75 567 156 567 225 c 0
 567 294 533 350 457 350 c 1
 467 395 l 1
 628 395 717 345 717 225 c 0
 717 85 628 0 387 0 c 1
 377 75 l 1
EndSplineSet
EndChar

StartChar: C
Encoding: 67 67 14
Width: 817
Flags: HMW
LayerCount: 2
Back
SplineSet
499.575195312 760 m 1
 692.575195312 760 799.575195312 643 799.575195312 450 c 0
 799.575195312 217 602.575195312 -10 359.575195312 -10 c 1
 359.575195312 40 l 1
 553.575195312 40 684.575195312 273 684.575195312 445 c 0
 684.575195312 597 643.575195312 710 499.575195312 710 c 1
 499.575195312 760 l 1
359.575195312 -10 m 1
 166.575195312 -10 59.5751953125 107 59.5751953125 300 c 0
 59.5751953125 533 256.575195312 760 499.575195312 760 c 1
 499.575195312 710 l 1
 305.575195312 710 174.575195312 477 174.575195312 305 c 0
 174.575195312 153 215.575195312 40 359.575195312 40 c 1
 359.575195312 -10 l 1
1511.13769531 620 m 17
 1582.3046875 755 l 9
 1534.97753906 550 l 1
 1511.13769531 620 l 17
1522.27929688 495 m 1
 1582.3046875 755 l 1
 1627.3046875 755 l 1
 1567.27929688 495 l 1
 1522.27929688 495 l 1
1557.27929688 495 m 1
 1512.27929688 495 l 1
 1525.828125 597 1454.06933594 702 1310.06933594 702 c 0
 1136.06933594 702 1006.59277344 557 964.575195312 375 c 1
 849.575195312 375 l 1
 901.05859375 598 1115.45898438 760 1318.45898438 760 c 0
 1511.45898438 760 1581.05859375 598 1557.27929688 495 c 1
1531.10546875 295 m 1
 1481.16601562 122 1328.69140625 -10 1125.69140625 -10 c 0
 912.69140625 -10 798.091796875 152 849.575195312 375 c 1
 964.575195312 375 l 1
 922.557617188 193 975.3125 49 1149.3125 49 c 0
 1313.3125 49 1437.93945312 173 1476.10546875 295 c 1
 1531.10546875 295 l 1
EndSplineSet
Fore
SplineSet
702 620 m 17
 777 750 l 9
 745 570 l 1
 702 620 l 17
723 495 m 1
 777 750 l 1
 852 750 l 1
 798 495 l 1
 723 495 l 1
770 555 m 1
 723 495 l 1
 743 613 631 679 508 679 c 0
 307 679 195 480 195 305 c 1
 40 305 l 1
 40 516 222 760 500 760 c 4
 689 760 750 658 770 555 c 1
750 275 m 1
 707 142 593 -10 360 -10 c 4
 167 -10 40 95 40 305 c 1
 195 305 l 5
 195 163 264 73 378 73 c 4
 524 73 619 163 662 275 c 1
 750 275 l 1
EndSplineSet
EndChar

StartChar: D
Encoding: 68 68 15
Width: 848
Flags: HMW
LayerCount: 2
Back
SplineSet
-45.8779296875 55 m 5
 64.1220703125 55 l 5
 51.4248046875 0 l 5
 -58.5751953125 0 l 5
 -45.8779296875 55 l 5
114.575195312 750 m 5
 224.575195312 750 l 5
 211.877929688 695 l 5
 101.877929688 695 l 5
 114.575195312 750 l 5
224.575195312 750 m 5
 319.575195312 750 l 5
 146.424804688 0 l 5
 51.4248046875 0 l 5
 224.575195312 750 l 5
311.424804688 0 m 6
 146.424804688 0 l 5
 159.122070312 55 l 5
 324.122070312 55 l 6
 508.122070312 55 600.982421875 193 643 375 c 4
 685.017578125 557 645.877929688 695 471.877929688 695 c 6
 306.877929688 695 l 5
 319.575195312 750 l 5
 484.575195312 750 l 6
 707.575195312 750 807.174804688 588 758 375 c 4
 708.825195312 162 524.424804688 0 311.424804688 0 c 6
EndSplineSet
Fore
SplineSet
82 750 m 5
 227 750 l 1
 227 675 l 1
 82 675 l 5
 82 750 l 5
-45 75 m 1
 80 75 l 1
 80 0 l 1
 -45 0 l 1
 -45 75 l 1
218 750 m 1
 358 750 l 1
 198 0 l 1
 58 0 l 1
 218 750 l 1
338 0 m 2
 173 0 l 1
 173 75 l 1
 338 75 l 2
 502 75 653 243 653 485 c 0
 653 597 622 675 488 675 c 2
 313 675 l 1
 313 750 l 1
 488 750 l 2
 741 750 808 608 808 465 c 0
 808 172 561 0 338 0 c 2
EndSplineSet
EndChar

StartChar: E
Encoding: 69 69 16
Width: 749
Flags: HMW
LayerCount: 2
Back
SplineSet
335.618164062 408 m 21
 422.618164062 408 466.700195312 456 482.168945312 523 c 13
 455.618164062 408 l 5
 335.618164062 408 l 21
418.6796875 248 m 21
 434.147460938 315 413.383789062 368 326.383789062 368 c 13
 446.383789062 368 l 5
 418.6796875 248 l 21
399.122070312 55 m 21
 536.122070312 55 579.049804688 98 615.295898438 255 c 13
 569.122070312 55 l 5
 399.122070312 55 l 21
418.6796875 248 m 5
 446.383789062 368 l 5
 491.383789062 368 l 5
 463.6796875 248 l 5
 418.6796875 248 l 5
455.618164062 408 m 5
 482.168945312 523 l 5
 527.168945312 523 l 5
 500.618164062 408 l 5
 455.618164062 408 l 5
569.122070312 55 m 5
 615.295898438 255 l 5
 665.295898438 255 l 5
 619.122070312 55 l 5
 569.122070312 55 l 5
665.321289062 515 m 5
 706.877929688 695 l 5
 756.877929688 695 l 5
 715.321289062 515 l 5
 665.321289062 515 l 5
169.122070312 55 m 5
 619.122070312 55 l 5
 606.424804688 0 l 5
 156.424804688 0 l 5
 169.122070312 55 l 5
329.575195312 750 m 5
 769.575195312 750 l 5
 756.877929688 695 l 5
 316.877929688 695 l 5
 329.575195312 750 l 5
250.618164062 408 m 5
 500.618164062 408 l 5
 491.383789062 368 l 5
 241.383789062 368 l 5
 250.618164062 408 l 5
-35.8779296875 55 m 5
 74.1220703125 55 l 5
 61.4248046875 0 l 5
 -48.5751953125 0 l 5
 -35.8779296875 55 l 5
124.575195312 750 m 5
 234.575195312 750 l 5
 221.877929688 695 l 5
 111.877929688 695 l 5
 124.575195312 750 l 5
234.575195312 750 m 5
 329.575195312 750 l 5
 156.424804688 0 l 5
 61.4248046875 0 l 5
 234.575195312 750 l 5
665.321289062 515 m 21
 696.950195312 652 673.877929688 695 556.877929688 695 c 13
 706.877929688 695 l 5
 665.321289062 515 l 21
EndSplineSet
Fore
SplineSet
-45 75 m 1
 80 75 l 1
 80 0 l 1
 -45 0 l 1
 -45 75 l 1
99 750 m 1
 234 750 l 1
 234 675 l 1
 99 675 l 1
 99 750 l 1
338 418 m 17
 425 418 473 456 493 523 c 9
 469 418 l 5
 338 418 l 17
428 248 m 17
 443 315 425 358 338 358 c 9
 458 358 l 1
 428 248 l 17
403 75 m 17
 540 75 598 118 638 275 c 9
 607 75 l 1
 403 75 l 17
428 248 m 1
 493 523 l 1
 558 523 l 1
 493 248 l 1
 428 248 l 1
583 0 m 1
 638 275 l 1
 708 275 l 1
 643 0 l 1
 583 0 l 1
666 495 m 1
 724 750 l 1
 794 750 l 1
 736 495 l 1
 666 495 l 1
178 75 m 1
 607 75 l 1
 583 0 l 1
 178 0 l 1
 178 75 l 1
335 750 m 1
 724 750 l 1
 712 675 l 1
 335 675 l 1
 335 750 l 1
243 418 m 1
 473 418 l 1
 463 358 l 1
 243 358 l 1
 243 418 l 1
233 750 m 1
 373 750 l 1
 203 0 l 1
 63 0 l 1
 233 750 l 1
666 495 m 17
 696 632 677 675 560 675 c 9
 712 675 l 1
 666 495 l 17
EndSplineSet
EndChar

StartChar: F
Encoding: 70 70 17
Width: 729
Flags: HMW
LayerCount: 2
Back
SplineSet
159.122070312 55 m 5
 279.122070312 55 l 5
 266.424804688 0 l 5
 146.424804688 0 l 5
 159.122070312 55 l 5
333.309570312 398 m 21
 420.309570312 398 462.083007812 436 477.55078125 503 c 13
 453.309570312 398 l 5
 333.309570312 398 l 21
416.37109375 238 m 21
 431.838867188 305 408.766601562 348 321.766601562 348 c 13
 441.766601562 348 l 5
 416.37109375 238 l 21
416.37109375 238 m 5
 441.766601562 348 l 5
 486.766601562 348 l 5
 461.37109375 238 l 5
 416.37109375 238 l 5
453.309570312 398 m 5
 477.55078125 503 l 5
 522.55078125 503 l 5
 498.309570312 398 l 5
 453.309570312 398 l 5
645.321289062 515 m 5
 686.877929688 695 l 5
 736.877929688 695 l 5
 695.321289062 515 l 5
 645.321289062 515 l 5
319.575195312 750 m 5
 749.575195312 750 l 5
 736.877929688 695 l 5
 306.877929688 695 l 5
 319.575195312 750 l 5
238.309570312 398 m 5
 498.309570312 398 l 5
 486.766601562 348 l 5
 226.766601562 348 l 5
 238.309570312 398 l 5
-45.8779296875 55 m 5
 64.1220703125 55 l 5
 51.4248046875 0 l 5
 -58.5751953125 0 l 5
 -45.8779296875 55 l 5
114.575195312 750 m 5
 224.575195312 750 l 5
 211.877929688 695 l 5
 101.877929688 695 l 5
 114.575195312 750 l 5
224.575195312 750 m 5
 319.575195312 750 l 5
 146.424804688 0 l 5
 51.4248046875 0 l 5
 224.575195312 750 l 5
645.321289062 515 m 21
 676.950195312 652 653.877929688 695 536.877929688 695 c 13
 686.877929688 695 l 5
 645.321289062 515 l 21
EndSplineSet
Fore
SplineSet
167 75 m 1
 312 75 l 1
 312 0 l 1
 167 0 l 1
 167 75 l 1
-45 75 m 1
 70 75 l 1
 70 0 l 1
 -45 0 l 1
 -45 75 l 1
79 750 m 1
 224 750 l 1
 224 675 l 1
 79 675 l 1
 79 750 l 1
338 408 m 17
 425 408 463 446 483 513 c 9
 468 408 l 1
 338 408 l 17
418 228 m 17
 433 295 425 338 338 338 c 9
 458 338 l 1
 418 228 l 17
418 228 m 1
 483 513 l 1
 548 513 l 1
 483 228 l 1
 418 228 l 1
655 495 m 1
 724 750 l 1
 784 750 l 5
 725 495 l 5
 655 495 l 1
325 750 m 1
 724 750 l 1
 712 675 l 1
 325 675 l 1
 325 750 l 1
243 408 m 1
 473 408 l 1
 463 338 l 1
 243 338 l 1
 243 408 l 1
223 750 m 1
 363 750 l 1
 193 0 l 1
 53 0 l 1
 223 750 l 1
655 495 m 17
 685 632 667 675 550 675 c 9
 712 675 l 1
 655 495 l 17
253 408 m 1
 493 408 l 1
 493 338 l 1
 253 338 l 1
 253 408 l 1
EndSplineSet
EndChar

StartChar: G
Encoding: 71 71 18
Width: 877
Flags: HMW
LayerCount: 2
Back
SplineSet
711.5625 620 m 21
 781.575195312 750 l 13
 735.40234375 550 l 5
 711.5625 620 l 21
722.704101562 495 m 5
 781.575195312 750 l 5
 826.575195312 750 l 5
 767.704101562 495 l 5
 722.704101562 495 l 5
757.704101562 495 m 1
 712.704101562 495 l 1
 726.252929688 597 696.956054688 704 512.956054688 704 c 0
 348.956054688 704 207.017578125 557 165 375 c 1
 50 375 l 1
 101.483398438 598 315.883789062 760 518.883789062 760 c 0
 711.883789062 760 788.409179688 628 757.704101562 495 c 1
713.061523438 215 m 1
 681.590820312 122 549.116210938 -10 326.116210938 -10 c 0
 118.116210938 -10 -1.4833984375 152 50 375 c 1
 165 375 l 1
 122.982421875 193 174.813476562 45 343.813476562 45 c 0
 477.813476562 45 566.821289062 123 601.134765625 185 c 1
 713.061523438 215 l 1
629.993164062 310 m 1
 733.838867188 305 l 1
 713.061523438 215 l 1
 601.134765625 185 l 1
 629.993164062 310 l 1
518.845703125 370 m 1
 848.845703125 370 l 1
 833.838867188 305 l 1
 503.838867188 305 l 1
 518.845703125 370 l 1
EndSplineSet
Fore
SplineSet
711.5625 620 m 17
 786.575195312 750 l 9
 755.40234375 570 l 1
 711.5625 620 l 17
732.704101562 495 m 1
 786.575195312 750 l 1
 861.575195312 750 l 1
 807.704101562 495 l 1
 732.704101562 495 l 1
780 555 m 1
 732.704101562 495 l 1
 752.704101562 613 641 679 508 679 c 0
 307 679 195 480 195 305 c 1
 40 305 l 1
 40 536 242 760 500 760 c 0
 689 760 760 658 780 555 c 1
732 175 m 1
 692 102 582 -10 369 -10 c 0
 171 -10 40 102 40 305 c 1
 195 305 l 1
 195 173 251 67 370 67 c 4
 464 67 518 83 579 145 c 1
 732 175 l 1
627 312 m 1
 770 307 l 1
 732 175 l 1
 579 145 l 1
 627 312 l 1
522 380 m 1
 862 380 l 1
 862 295 l 1
 522 295 l 1
 522 380 l 1
EndSplineSet
EndChar

StartChar: H
Encoding: 72 72 19
Width: 913
Flags: HMW
LayerCount: 2
Back
SplineSet
242.234375 415 m 5
 642.234375 415 l 5
 629.537109375 360 l 5
 229.537109375 360 l 5
 242.234375 415 l 5
439.122070312 55 m 1
 559.122070312 55 l 1
 546.424804688 0 l 1
 426.424804688 0 l 1
 439.122070312 55 l 1
654.122070312 55 m 1
 764.122070312 55 l 1
 751.424804688 0 l 1
 641.424804688 0 l 1
 654.122070312 55 l 1
-45.8779296875 55 m 1
 64.1220703125 55 l 1
 51.4248046875 0 l 1
 -58.5751953125 0 l 1
 -45.8779296875 55 l 1
159.122070312 55 m 1
 279.122070312 55 l 1
 266.424804688 0 l 1
 146.424804688 0 l 1
 159.122070312 55 l 1
599.575195312 750 m 1
 719.575195312 750 l 1
 706.877929688 695 l 1
 586.877929688 695 l 1
 599.575195312 750 l 1
814.575195312 750 m 1
 924.575195312 750 l 1
 911.877929688 695 l 1
 801.877929688 695 l 1
 814.575195312 750 l 1
114.575195312 750 m 1
 224.575195312 750 l 1
 211.877929688 695 l 1
 101.877929688 695 l 1
 114.575195312 750 l 1
319.575195312 750 m 1
 439.575195312 750 l 1
 426.877929688 695 l 1
 306.877929688 695 l 1
 319.575195312 750 l 1
719.575195312 750 m 1
 814.575195312 750 l 1
 641.424804688 0 l 1
 546.424804688 0 l 1
 719.575195312 750 l 1
224.575195312 750 m 1
 319.575195312 750 l 1
 146.424804688 0 l 1
 51.4248046875 0 l 1
 224.575195312 750 l 1
EndSplineSet
Fore
SplineSet
598 750 m 5
 728 750 l 5
 728 675 l 5
 598 675 l 5
 598 750 l 5
833 750 m 5
 958 750 l 5
 958 675 l 5
 833 675 l 5
 833 750 l 5
450 75 m 5
 585 75 l 5
 585 0 l 5
 450 0 l 5
 450 75 l 5
680 75 m 5
 820 75 l 5
 820 0 l 5
 680 0 l 5
 680 75 l 5
103 750 m 1
 233 750 l 1
 233 675 l 1
 103 675 l 1
 103 750 l 1
338 750 m 1
 463 750 l 1
 463 675 l 1
 338 675 l 1
 338 750 l 1
-45 75 m 1
 90 75 l 1
 90 0 l 1
 -45 0 l 1
 -45 75 l 1
185 75 m 1
 325 75 l 1
 325 0 l 1
 185 0 l 1
 185 75 l 1
232 425 m 1
 681 425 l 1
 681 350 l 1
 232 350 l 1
 232 425 l 1
551 0 m 1
 711 750 l 1
 851 750 l 1
 691 0 l 1
 551 0 l 1
56 0 m 1
 216 750 l 1
 356 750 l 1
 196 0 l 1
 56 0 l 1
EndSplineSet
EndChar

StartChar: I
Encoding: 73 73 20
Width: 418
Flags: HMW
LayerCount: 2
Back
SplineSet
-34.8779296875 55 m 5
 75.1220703125 55 l 5
 62.4248046875 0 l 5
 -47.5751953125 0 l 5
 -34.8779296875 55 l 5
170.122070312 55 m 5
 290.122070312 55 l 5
 277.424804688 0 l 5
 157.424804688 0 l 5
 170.122070312 55 l 5
125.575195312 750 m 5
 235.575195312 750 l 5
 222.877929688 695 l 5
 112.877929688 695 l 5
 125.575195312 750 l 5
330.575195312 750 m 5
 450.575195312 750 l 5
 437.877929688 695 l 5
 317.877929688 695 l 5
 330.575195312 750 l 5
235.575195312 750 m 5
 330.575195312 750 l 5
 157.424804688 0 l 5
 62.4248046875 0 l 5
 235.575195312 750 l 5
EndSplineSet
Fore
SplineSet
103 750 m 5
 233 750 l 5
 233 675 l 5
 103 675 l 5
 103 750 l 5
338 750 m 5
 463 750 l 5
 463 675 l 5
 338 675 l 5
 338 750 l 5
56 0 m 1
 222 750 l 1
 362 750 l 1
 197 0 l 1
 56 0 l 1
-45 75 m 5
 80 75 l 5
 80 0 l 5
 -45 0 l 5
 -45 75 l 5
185 75 m 5
 325 75 l 5
 325 0 l 5
 185 0 l 5
 185 75 l 5
EndSplineSet
EndChar

StartChar: J
Encoding: 74 74 21
Width: 606
Flags: HMW
LayerCount: 2
Back
SplineSet
71.74609375 135 m 5
 71.74609375 135 -33.87109375 115 -26.9453125 145 c 4
 -12.6318359375 207 33.9873046875 240 73.9873046875 240 c 4
 108.987304688 240 132.676757812 217 124.366210938 181 c 5
 107.517578125 160 l 5
 71.74609375 135 l 5
59.3564453125 90 m 5
 -23.9482421875 119 l 5
 0.134765625 180 l 5
 124.366210938 181 l 5
 109.359375 116 69.0537109375 132 59.3564453125 90 c 5
-26.9453125 145 m 5
 59.3564453125 90 l 5
 55.4326171875 73 63.9677734375 45 145.967773438 45 c 4
 236.967773438 45 303.666015625 100 335.987304688 240 c 5
 437.913085938 270 l 5
 400.974609375 110 294.270507812 -10 133.270507812 -10 c 4
 -3.7294921875 -10 -43.1064453125 75 -26.9453125 145 c 5
313.729492188 750 m 5
 453.729492188 750 l 5
 441.032226562 695 l 5
 301.032226562 695 l 5
 313.729492188 750 l 5
548.729492188 750 m 5
 668.729492188 750 l 5
 656.032226562 695 l 5
 536.032226562 695 l 5
 548.729492188 750 l 5
453.729492188 750 m 5
 548.729492188 750 l 5
 437.913085938 270 l 5
 335.987304688 240 l 5
 453.729492188 750 l 5
EndSplineSet
Fore
SplineSet
148 201 m 4
 148 132 84 148 84 106 c 1
 -35 155 l 5
 -35 227 14 270 64 270 c 4
 109 270 148 247 148 201 c 4
296 750 m 1
 671 750 l 1
 671 675 l 1
 296 675 l 1
 296 750 l 1
-35 155 m 1
 84 106 l 1
 84 89 99 65 161 65 c 0
 232 65 289.734375 107.12109375 321 240 c 2
 436 750 l 1
 576 750 l 1
 461 270 l 2
 421 110 322 -10 161 -10 c 4
 4 -10 -35 85 -35 155 c 1
EndSplineSet
EndChar

StartChar: K
Encoding: 75 75 22
Width: 870
Flags: HMW
LayerCount: 2
Back
SplineSet
776 84 m 5
 761 29 697 -10 631 -10 c 4
 418.03125 -10 627.256835938 345 371 345 c 5
 391 391 l 5
 724.294921875 391 534.228515625 57 667 57 c 4
 698 57 727 73 746 101 c 5
 776 84 l 5
-47.8779296875 55 m 1
 62.1220703125 55 l 1
 49.4248046875 0 l 1
 -60.5751953125 0 l 1
 -47.8779296875 55 l 1
157.122070312 55 m 1
 277.122070312 55 l 1
 264.424804688 0 l 1
 144.424804688 0 l 1
 157.122070312 55 l 1
112.575195312 750 m 1
 222.575195312 750 l 1
 209.877929688 695 l 1
 99.8779296875 695 l 1
 112.575195312 750 l 1
317.575195312 750 m 1
 437.575195312 750 l 1
 424.877929688 695 l 1
 304.877929688 695 l 1
 317.575195312 750 l 1
222.575195312 750 m 1
 317.575195312 750 l 1
 144.424804688 0 l 1
 49.4248046875 0 l 1
 222.575195312 750 l 1
179.522460938 217 m 1
 106.522460938 217 l 1
 743.114257812 748 l 1
 818.114257812 748 l 1
 179.522460938 217 l 1
457.122070312 55 m 1
 787.122070312 55 l 1
 774.424804688 0 l 1
 444.424804688 0 l 1
 457.122070312 55 l 1
869.877929688 695 m 1
 569.877929688 695 l 1
 582.575195312 750 l 1
 882.575195312 750 l 1
 869.877929688 695 l 1
706.424804688 0 m 1
 586.424804688 0 l 1
 365.388671875 420 l 1
 447.932617188 470 l 1
 706.424804688 0 l 1
EndSplineSet
Fore
SplineSet
797 -3 m 25
 652 -3 l 2
 399.03125 -3 553.256835938 282 347 382 c 1
 407 428 l 1
 680.294921875 348 585.228515625 72 718 72 c 2
 797 72 l 1
 797 -3 l 25
543 747 m 1
 865 747 l 1
 865 672 l 1
 543 672 l 1
 543 747 l 1
-45 75 m 1
 90 75 l 5
 90 0 l 5
 -45 0 l 1
 -45 75 l 1
186 72 m 1
 301 72 l 1
 301 -3 l 1
 186 -3 l 1
 186 72 l 1
110 750 m 1
 225 750 l 1
 225 675 l 1
 110 675 l 1
 110 750 l 1
341 747 m 1
 456 747 l 1
 456 672 l 1
 341 672 l 1
 341 747 l 1
221 750 m 1
 357 747 l 1
 192 -3 l 1
 56 0 l 1
 221 750 l 1
227 214 m 1
 121 214 l 1
 733 747 l 1
 848 747 l 1
 227 214 l 1
EndSplineSet
EndChar

StartChar: L
Encoding: 76 76 23
Width: 731
Flags: HMW
LayerCount: 2
Back
SplineSet
329.575195312 750 m 5
 439.575195312 750 l 5
 426.877929688 695 l 5
 316.877929688 695 l 5
 329.575195312 750 l 5
394.122070312 55 m 21
 531.122070312 55 578.666992188 118 610.295898438 255 c 13
 564.122070312 55 l 5
 394.122070312 55 l 21
564.122070312 55 m 5
 610.295898438 255 l 5
 660.295898438 255 l 5
 614.122070312 55 l 5
 564.122070312 55 l 5
169.122070312 55 m 5
 614.122070312 55 l 5
 601.424804688 0 l 5
 156.424804688 0 l 5
 169.122070312 55 l 5
-35.8779296875 55 m 5
 74.1220703125 55 l 5
 61.4248046875 0 l 5
 -48.5751953125 0 l 5
 -35.8779296875 55 l 5
124.575195312 750 m 5
 234.575195312 750 l 5
 221.877929688 695 l 5
 111.877929688 695 l 5
 124.575195312 750 l 5
234.575195312 750 m 5
 329.575195312 750 l 5
 156.424804688 0 l 5
 61.4248046875 0 l 5
 234.575195312 750 l 5
EndSplineSet
Fore
SplineSet
330 750 m 1
 455 750 l 1
 455 675 l 1
 330 675 l 1
 330 750 l 1
-45 75 m 1
 100 75 l 1
 100 0 l 1
 -45 0 l 1
 -45 75 l 1
99 750 m 1
 234 750 l 1
 234 675 l 1
 99 675 l 1
 99 750 l 1
381 75 m 21
 518 75 576 118 616 275 c 13
 585 75 l 5
 381 75 l 21
571 0 m 1
 616 275 l 5
 686 275 l 1
 621 0 l 1
 571 0 l 1
173 75 m 1
 598 75 l 5
 598 0 l 1
 173 0 l 1
 173 75 l 1
228 750 m 1
 368 750 l 1
 208 0 l 1
 68 0 l 1
 228 750 l 1
EndSplineSet
EndChar

StartChar: M
Encoding: 77 77 24
Width: 1043
Flags: HMW
LayerCount: 2
Back
SplineSet
441.817382812 79 m 5
 366.270507812 -10 l 5
 283.729492188 750 l 5
 374.729492188 750 l 5
 441.817382812 79 l 5
430.270507812 -10 m 5
 366.270507812 -10 l 5
 791.729492188 750 l 5
 860.729492188 750 l 5
 430.270507812 -10 l 5
580.276367188 55 m 5
 905.276367188 55 l 5
 892.579101562 0 l 5
 567.579101562 0 l 5
 580.276367188 55 l 5
-59.7236328125 55 m 5
 235.276367188 55 l 5
 222.579101562 0 l 5
 -72.4208984375 0 l 5
 -59.7236328125 55 l 5
925.729492188 750 m 5
 1035.72949219 750 l 5
 1023.03222656 695 l 5
 913.032226562 695 l 5
 925.729492188 750 l 5
130.729492188 750 m 5
 245.729492188 750 l 5
 233.032226562 695 l 5
 118.032226562 695 l 5
 130.729492188 750 l 5
835.729492188 750 m 5
 925.729492188 750 l 5
 782.579101562 0 l 5
 687.579101562 0 l 5
 835.729492188 750 l 5
245.729492188 750 m 5
 305.729492188 750 l 5
 102.579101562 0 l 5
 37.5791015625 0 l 5
 245.729492188 750 l 5
EndSplineSet
Fore
SplineSet
596 75 m 1
 721 75 l 1
 721 0 l 1
 596 0 l 1
 596 75 l 1
816 75 m 1
 956 75 l 1
 956 0 l 1
 816 0 l 1
 816 75 l 1
-55 75 m 1
 70 75 l 1
 70 0 l 1
 -55 0 l 1
 -55 75 l 1
120 75 m 1
 255 75 l 1
 255 0 l 1
 120 0 l 1
 120 75 l 1
112 750 m 1
 247 750 l 1
 247 675 l 1
 112 675 l 1
 112 750 l 1
933 750 m 1
 1058 750 l 1
 1058 675 l 1
 933 675 l 1
 933 750 l 1
485 79 m 1
 374 -10 l 1
 266 750 l 1
 397 750 l 1
 485 79 l 1
463 -10 m 1
 374 -10 l 1
 764 750 l 5
 858 750 l 5
 463 -10 l 1
823 750 m 1
 948 750 l 1
 818 0 l 1
 688 0 l 1
 823 750 l 1
228 750 m 1
 311 750 l 1
 126 0 l 1
 38 0 l 1
 228 750 l 1
EndSplineSet
EndChar

StartChar: N
Encoding: 78 78 25
Width: 938
Flags: HMW
LayerCount: 2
Back
SplineSet
657.270507812 -10 m 5
 622.270507812 -10 l 5
 644.202148438 85 l 5
 679.202148438 85 l 5
 657.270507812 -10 l 5
657.729492188 750 m 5
 767.729492188 750 l 5
 755.032226562 695 l 5
 645.032226562 695 l 5
 657.729492188 750 l 5
674.12890625 115 m 5
 622.270507812 -10 l 5
 212.729492188 750 l 5
 337.729492188 750 l 5
 674.12890625 115 l 5
-37.7236328125 55 m 5
 67.2763671875 55 l 5
 54.5791015625 0 l 5
 -50.4208984375 0 l 5
 -37.7236328125 55 l 5
132.276367188 55 m 5
 247.276367188 55 l 5
 234.579101562 0 l 5
 119.579101562 0 l 5
 132.276367188 55 l 5
832.729492188 750 m 5
 937.729492188 750 l 5
 925.032226562 695 l 5
 820.032226562 695 l 5
 832.729492188 750 l 5
122.729492188 750 m 5
 227.729492188 750 l 5
 215.032226562 695 l 5
 110.032226562 695 l 5
 122.729492188 750 l 5
767.729492188 750 m 5
 832.729492188 750 l 5
 657.270507812 -10 l 5
 606.122070312 50 l 5
 767.729492188 750 l 5
227.729492188 750 m 5
 292.729492188 750 l 5
 119.579101562 0 l 5
 54.5791015625 0 l 5
 227.729492188 750 l 5
EndSplineSet
Fore
SplineSet
658 750 m 1
 783 750 l 1
 783 675 l 1
 658 675 l 1
 658 750 l 1
823 750 m 1
 953 750 l 1
 953 675 l 1
 823 675 l 1
 823 750 l 1
-45 75 m 1
 80 75 l 1
 80 0 l 1
 -45 0 l 1
 -45 75 l 1
120 75 m 1
 265 75 l 1
 265 0 l 1
 120 0 l 1
 120 75 l 1
695 -10 m 1
 635 -10 l 1
 635 85 l 1
 695 85 l 1
 695 -10 l 1
708 130 m 5
 635 -10 l 1
 195 750 l 1
 338 750 l 1
 708 130 l 5
115 750 m 1
 220 750 l 1
 220 675 l 1
 115 675 l 1
 115 750 l 1
770 750 m 1
 855 750 l 1
 695 -10 l 1
 623 50 l 1
 770 750 l 1
210 750 m 1
 293 750 l 1
 133 0 l 1
 50 0 l 1
 210 750 l 1
EndSplineSet
EndChar

StartChar: O
Encoding: 79 79 26
Width: 860
Flags: HMW
LayerCount: 2
Back
SplineSet
165 375 m 4
 122.982421875 193 158.659179688 40 332.659179688 40 c 4
 516.659179688 40 612.982421875 193 655 375 c 4
 697.017578125 557 661.340820312 710 487.340820312 710 c 4
 313.340820312 710 207.017578125 557 165 375 c 4
50 375 m 4
 99.1748046875 588 275.883789062 760 498.883789062 760 c 4
 721.883789062 760 819.174804688 588 770 375 c 4
 720.825195312 162 534.116210938 -10 321.116210938 -10 c 4
 98.1162109375 -10 0.8251953125 162 50 375 c 4
EndSplineSet
Fore
SplineSet
500 765 m 5
 713 765 820 653 820 450 c 4
 820 217 633 -15 360 -15 c 5
 360 55 l 5
 554 55 665 293 665 445 c 4
 665 617 604 695 500 695 c 5
 500 765 l 5
360 -15 m 5
 147 -15 40 97 40 300 c 4
 40 533 227 765 500 765 c 5
 500 695 l 5
 306 695 195 457 195 305 c 4
 195 133 256 55 360 55 c 5
 360 -15 l 5
EndSplineSet
EndChar

StartChar: P
Encoding: 80 80 27
Width: 717
Flags: HMW
LayerCount: 2
Back
SplineSet
158.122070312 55 m 5
 268.122070312 55 l 5
 255.424804688 0 l 5
 145.424804688 0 l 5
 158.122070312 55 l 5
384.30859375 385 m 5
 480.30859375 385 549.545898438 451 570.092773438 540 c 4
 590.640625 629 551.877929688 695 455.877929688 695 c 5
 468.575195312 750 l 5
 649.575195312 750 710.106445312 670 680.092773438 540 c 4
 650.080078125 410 552.611328125 330 371.611328125 330 c 5
 384.30859375 385 l 5
223.575195312 750 m 5
 318.575195312 750 l 5
 145.424804688 0 l 5
 50.4248046875 0 l 5
 223.575195312 750 l 5
113.575195312 750 m 5
 223.575195312 750 l 5
 210.877929688 695 l 5
 100.877929688 695 l 5
 113.575195312 750 l 5
-46.8779296875 55 m 5
 63.1220703125 55 l 5
 50.4248046875 0 l 5
 -59.5751953125 0 l 5
 -46.8779296875 55 l 5
234.30859375 385 m 5
 384.30859375 385 l 5
 371.611328125 330 l 5
 221.611328125 330 l 5
 234.30859375 385 l 5
318.575195312 750 m 5
 468.575195312 750 l 5
 455.877929688 695 l 5
 305.877929688 695 l 5
 318.575195312 750 l 5
EndSplineSet
Fore
SplineSet
95 750 m 1
 220 750 l 1
 220 675 l 1
 95 675 l 1
 95 750 l 1
-45 75 m 1
 80 75 l 1
 80 0 l 1
 -45 0 l 1
 -45 75 l 1
170 75 m 1
 325 75 l 1
 325 0 l 1
 170 0 l 1
 170 75 l 1
392 395 m 5
 488 395 572 446 572 575 c 4
 572 624 558 675 482 675 c 5
 482 750 l 5
 673 750 722 665 722 575 c 4
 722 395 573 320 392 320 c 5
 392 395 l 5
217 750 m 1
 357 750 l 1
 197 0 l 1
 57 0 l 1
 217 750 l 1
222 395 m 1
 392 395 l 1
 392 320 l 1
 222 320 l 1
 222 395 l 1
312 750 m 1
 482 750 l 1
 482 675 l 1
 312 675 l 1
 312 750 l 1
EndSplineSet
EndChar

StartChar: Q
Encoding: 81 81 28
Width: 860
Flags: HMW
LayerCount: 2
Back
SplineSet
115.716796875 -108 m 5
 110.407226562 -131 144.252929688 -136 135.94140625 -172 c 4
 127.399414062 -209 92.55078125 -230 65.55078125 -230 c 4
 28.55078125 -230 8.015625 -202 16.7880859375 -164 c 5
 115.716796875 -108 l 5
468.283203125 -148.864257812 m 5
 473.592773438 -125.864257812 439.747070312 -120.864257812 448.05859375 -84.8642578125 c 4
 456.600585938 -47.8642578125 491.44921875 -26.8642578125 518.44921875 -26.8642578125 c 4
 555.44921875 -26.8642578125 575.984375 -54.8642578125 567.211914062 -92.8642578125 c 5
 468.283203125 -148.864257812 l 5
161.952148438 -68 m 4
 134.952148438 -68 119.641601562 -91 115.716796875 -108 c 5
 16.7880859375 -164 l 5
 38.720703125 -69 118.416992188 -27 197.416992188 -27 c 4
 336.953125 -27 354.663085938 -188.864257812 422.047851562 -188.864257812 c 4
 450.047851562 -188.864257812 464.358398438 -165.864257812 468.283203125 -148.864257812 c 5
 567.211914062 -92.8642578125 l 5
 545.279296875 -187.864257812 465.583007812 -229.864257812 386.583007812 -229.864257812 c 4
 247.046875 -229.864257812 229.336914062 -68 161.952148438 -68 c 4
240.706054688 65 m 1
 193.786132812 100 l 1
 158.634765625 121 214.65234375 303 353.65234375 303 c 0
 528.65234375 303 494.157226562 -37 581.157226562 -37 c 0
 643.157226562 -37 682.702148438 26 695.630859375 82 c 1
 745.630859375 82 l 1
 745.630859375 82 l 1
 718.311523438 -32 646.840820312 -125 552.840820312 -125 c 0
 383.840820312 -125 506.181640625 210 334.181640625 210 c 0
 254.181640625 210 201.787109375 113 240.706054688 65 c 1
178.275390625 375 m 0
 136.256835938 193 171.93359375 40 345.93359375 40 c 0
 529.93359375 40 626.256835938 193 668.275390625 375 c 0
 710.29296875 557 674.616210938 710 500.616210938 710 c 0
 326.616210938 710 220.29296875 557 178.275390625 375 c 0
63.275390625 375 m 0
 112.450195312 588 289.159179688 760 512.159179688 760 c 0
 735.159179688 760 832.450195312 588 783.275390625 375 c 0
 734.099609375 162 547.390625 -10 334.390625 -10 c 0
 111.390625 -10 14.099609375 162 63.275390625 375 c 0
EndSplineSet
Fore
SplineSet
500 765 m 1
 713 765 820 653 820 450 c 0
 820 217 633 -15 360 -15 c 1
 360 55 l 1
 554 55 665 293 665 445 c 0
 665 617 604 695 500 695 c 1
 500 765 l 1
360 -15 m 1
 147 -15 40 97 40 300 c 0
 40 533 227 765 500 765 c 1
 500 695 l 1
 306 695 195 457 195 305 c 0
 195 133 256 55 360 55 c 1
 360 -15 l 1
203 -100 m 1
 203 -125 236 -126 236 -172 c 0
 236 -219 196 -250 159 -250 c 0
 112 -250 75 -212 75 -164 c 1
 203 -100 l 1
541 -174.864257812 m 5
 541 -146.864257812 508 -150.864257812 508 -104.864257812 c 0
 508 -57.8642578125 551 -26.8642578125 588 -26.8642578125 c 0
 635 -26.8642578125 669 -63.8642578125 669 -107.864257812 c 1
 541 -174.864257812 l 5
238 -83 m 0
 207 -83 203 -93 203 -100 c 1
 75 -164 l 1
 75 -79 175 -27 254 -27 c 0
 433.536132812 -27 438.615234375 -193.864257812 506 -193.864257812 c 0
 538 -193.864257812 541 -181.864257812 541 -174.864257812 c 5
 669 -107.864257812 l 1
 669 -202.864257812 574 -249.864257812 495 -249.864257812 c 0
 305.463867188 -249.864257812 325.384765625 -83 238 -83 c 0
EndSplineSet
EndChar

StartChar: R
Encoding: 82 82 29
Width: 831
Flags: HMW
LayerCount: 2
Back
SplineSet
430.080078125 405 m 5
 506.080078125 405 590.700195312 451 613.556640625 550 c 4
 636.412109375 649 573.032226562 695 497.032226562 695 c 5
 509.729492188 750 l 5
 690.729492188 750 738.952148438 660 713.556640625 550 c 4
 688.161132812 440 611.615234375 364 420.615234375 364 c 5
 430.080078125 405 l 5
319.729492188 750 m 5
 509.729492188 750 l 5
 497.032226562 695 l 5
 307.032226562 695 l 5
 319.729492188 750 l 5
240.080078125 405 m 5
 450.080078125 405 l 5
 436.228515625 345 l 5
 226.228515625 345 l 5
 240.080078125 405 l 5
-45.7236328125 55 m 5
 64.2763671875 55 l 5
 51.5791015625 0 l 5
 -58.4208984375 0 l 5
 -45.7236328125 55 l 5
114.729492188 750 m 5
 224.729492188 750 l 5
 212.032226562 695 l 5
 102.032226562 695 l 5
 114.729492188 750 l 5
224.729492188 750 m 5
 319.729492188 750 l 5
 146.579101562 0 l 5
 51.5791015625 0 l 5
 224.729492188 750 l 5
159.276367188 55 m 5
 269.276367188 55 l 5
 256.579101562 0 l 5
 146.579101562 0 l 5
 159.276367188 55 l 5
720.971679688 84 m 5
 693.274414062 29 640.270507812 -10 574.270507812 -10 c 4
 341.301757812 -10 642.485351562 345 386.228515625 345 c 5
 414.5390625 381 l 5
 757.833984375 381 482.966796875 57 615.73828125 57 c 4
 636.73828125 57 671.81640625 66 694.896484375 101 c 5
 720.971679688 84 l 5
EndSplineSet
Fore
SplineSet
170 75 m 1
 305 75 l 1
 305 0 l 1
 170 0 l 1
 170 75 l 1
105 750 m 1
 220 750 l 1
 220 675 l 1
 105 675 l 1
 105 750 l 1
-45 75 m 1
 90 75 l 1
 90 0 l 1
 -45 0 l 1
 -45 75 l 1
444 415 m 5
 520 415 614 471 614 580 c 4
 614 639 590 675 514 675 c 5
 514 750 l 5
 685 750 754 690 754 580 c 4
 754 440 635 364 444 364 c 5
 444 415 l 5
312 750 m 1
 514 750 l 5
 514 675 l 5
 312 675 l 1
 312 750 l 1
232 415 m 1
 464 415 l 5
 464 335 l 5
 232 335 l 1
 232 415 l 1
217 750 m 1
 357 750 l 1
 197 0 l 1
 57 0 l 1
 217 750 l 1
786 104 m 5
 761 29 710 -10 624 -10 c 4
 540 -10 499 32 499 87 c 4
 499 137 517 198 517 248 c 4
 517 303 517 335 434 335 c 5
 454 381 l 5
 636 381 660 307 660 256 c 4
 660 200 639 156 639 119 c 4
 639 97 648 84 671 84 c 4
 692 84 709 106 719 131 c 5
 786 104 l 5
EndSplineSet
Substitution2: "'ss01' Style Set 1 lookup 2-1" uniFFFD
EndChar

StartChar: S
Encoding: 83 83 30
Width: 659
Flags: HMW
LayerCount: 2
Back
SplineSet
603.525390625 595 m 1
 572.747070312 505 l 1
 600.220703125 624 538.844726562 709 424.844726562 709 c 0
 308.844726562 709 252.146484375 654 236.216796875 585 c 1
 139.291015625 555 l 1
 171.612304688 695 295.618164062 760 426.618164062 760 c 0
 542.618164062 760 624.303710938 685 603.525390625 595 c 1
572.747070312 505 m 5
 629.309570312 750 l 5
 684.309570312 750 l 5
 627.747070312 505 l 5
 572.747070312 505 l 5
564.684570312 652 m 21
 629.309570312 750 l 13
 592.37109375 590 l 5
 564.684570312 652 l 21
139.291015625 555 m 1
 236.216796875 585 l 1
 187.734375 375 663.518554688 530 589.641601562 210 c 1
 493.869140625 185 l 1
 546.96875 415 72.3388671875 265 139.291015625 555 c 1
63.09765625 160 m 1
 95.0302734375 255 l 1
 72.173828125 156 125.469726562 36 269.469726562 36 c 0
 405.469726562 36 477.939453125 116 493.869140625 185 c 1
 589.641601562 210 l 1
 557.319335938 70 438.696289062 -15 267.696289062 -15 c 0
 131.696289062 -15 44.6279296875 80 63.09765625 160 c 1
95.0302734375 255 m 5
 35.0048828125 -5 l 5
 -19.9951171875 -5 l 5
 40.0302734375 255 l 5
 95.0302734375 255 l 5
101.938476562 103 m 21
 35.0048828125 -5 l 13
 74.251953125 165 l 5
 101.938476562 103 l 21
EndSplineSet
Fore
SplineSet
562 505 m 1
 619 750 l 1
 694 750 l 1
 642 505 l 1
 562 505 l 1
544 652 m 17
 619 750 l 9
 582 590 l 1
 544 652 l 17
105 255 m 1
 45 -5 l 1
 -35 -5 l 1
 30 255 l 1
 105 255 l 1
122 93 m 17
 45 -5 l 9
 84 165 l 1
 122 93 l 17
52 155 m 1
 105 255 l 1
 65 86 183 54 297 54 c 0
 452 54 487 131 487 190 c 1
 617 225 l 1
 617 75 498 -20 297 -20 c 0
 121 -20 52 67 52 155 c 1
100 528 m 1
 227 570 l 5
 227 409 617 485 617 225 c 1
 487 190 l 5
 487 361 100 278 100 528 c 1
639 587 m 1
 562 505 l 1
 587 621 527 694 393 694 c 0
 314 694 227 652 227 570 c 1
 100 528 l 1
 100 658 213 770 387 770 c 0
 513 770 609 700 639 587 c 1
EndSplineSet
EndChar

StartChar: T
Encoding: 84 84 31
Width: 754
Flags: HMW
LayerCount: 2
Back
SplineSet
552.032226562 700 m 13
 722.032226562 700 l 5
 674.704101562 495 l 21
 710.950195312 652 689.032226562 700 552.032226562 700 c 13
722.032226562 700 m 5
 772.032226562 700 l 5
 724.704101562 495 l 5
 674.704101562 495 l 5
 722.032226562 700 l 5
317.032226562 700 m 21
 180.032226562 700 135.950195312 652 99.7041015625 495 c 13
 147.032226562 700 l 5
 317.032226562 700 l 21
147.032226562 700 m 5
 99.7041015625 495 l 5
 49.7041015625 495 l 5
 97.0322265625 700 l 5
 147.032226562 700 l 5
398.575195312 750 m 5
 387.032226562 700 l 5
 97.0322265625 700 l 5
 108.575195312 750 l 5
 398.575195312 750 l 5
333.122070312 55 m 5
 463.122070312 55 l 5
 450.424804688 0 l 5
 320.424804688 0 l 5
 333.122070312 55 l 5
493.575195312 750 m 5
 783.575195312 750 l 5
 772.032226562 700 l 5
 482.032226562 700 l 5
 493.575195312 750 l 5
108.122070312 55 m 5
 238.122070312 55 l 5
 225.424804688 0 l 5
 95.4248046875 0 l 5
 108.122070312 55 l 5
398.575195312 750 m 5
 493.575195312 750 l 5
 320.424804688 0 l 5
 225.424804688 0 l 5
 398.575195312 750 l 5
EndSplineSet
Fore
SplineSet
111 75 m 1
 256 75 l 1
 256 0 l 1
 111 0 l 1
 111 75 l 1
351 75 m 1
 496 75 l 5
 496 0 l 5
 351 0 l 1
 351 75 l 1
577 680 m 9
 723 680 l 1
 675 475 l 17
 708 632 714 680 577 680 c 9
739 750 m 1
 809 750 l 1
 745 475 l 1
 675 475 l 1
 739 750 l 1
317 680 m 17
 180 680 155 632 115 475 c 9
 160 680 l 1
 317 680 l 17
177 750 m 1
 115 475 l 1
 45 475 l 1
 107 750 l 1
 177 750 l 1
392 750 m 1
 387 680 l 1
 140 680 l 1
 157 750 l 1
 392 750 l 1
492 750 m 1
 759 750 l 1
 723 680 l 1
 487 680 l 1
 492 750 l 1
382 750 m 1
 522 750 l 1
 362 0 l 1
 222 0 l 1
 382 750 l 1
EndSplineSet
EndChar

StartChar: U
Encoding: 85 85 32
Width: 842
Flags: HMW
LayerCount: 2
Back
SplineSet
209.311523438 750 m 5
 304.311523438 750 l 5
 202.729492188 310 l 5
 105.420898438 300 l 5
 209.311523438 750 l 5
719.311523438 750 m 5
 779.311523438 750 l 5
 675.420898438 300 l 5
 615.420898438 300 l 5
 719.311523438 750 l 5
304.311523438 750 m 5
 424.311523438 750 l 5
 411.614257812 695 l 5
 291.614257812 695 l 5
 304.311523438 750 l 5
99.3115234375 750 m 5
 209.311523438 750 l 5
 196.614257812 695 l 5
 86.6142578125 695 l 5
 99.3115234375 750 l 5
779.311523438 750 m 5
 889.311523438 750 l 5
 876.614257812 695 l 5
 766.614257812 695 l 5
 779.311523438 750 l 5
594.311523438 750 m 5
 719.311523438 750 l 5
 706.614257812 695 l 5
 581.614257812 695 l 5
 594.311523438 750 l 5
615.420898438 300 m 5
 675.420898438 300 l 5
 625.784179688 85 520.698242188 -15 322.698242188 -15 c 4
 109.698242188 -15 63.1728515625 117 105.420898438 300 c 5
 202.729492188 310 l 5
 167.637695312 158 187.549804688 45 351.549804688 45 c 4
 505.549804688 45 573.403320312 118 615.420898438 300 c 5
EndSplineSet
Fore
SplineSet
612 750 m 1
 742 750 l 1
 742 675 l 1
 612 675 l 1
 612 750 l 1
787 750 m 1
 897 750 l 1
 897 675 l 1
 787 675 l 1
 787 750 l 1
92 750 m 1
 212 750 l 1
 212 675 l 1
 92 675 l 1
 92 750 l 1
332 750 m 1
 452 750 l 1
 452 675 l 1
 332 675 l 1
 332 750 l 1
731 750 m 1
 811 750 l 1
 701 300 l 2
 651 97 559 -20 341 -20 c 0
 154.212890625 -20 85 67 85 182 c 0
 85 219 90.8671875 258.262695312 101 300 c 2
 211 750 l 1
 351 750 l 1
 241 310 l 2
 230.213867188 267.155273438 227 236 227 200 c 0
 227 115 261.13671875 63 356 63 c 4
 510 63 579 128 621 300 c 2
 731 750 l 1
EndSplineSet
EndChar

StartChar: V
Encoding: 86 86 33
Width: 835
Flags: HMW
LayerCount: 2
Back
SplineSet
377.609375 695 m 5
 47.609375 695 l 5
 60.306640625 750 l 5
 390.306640625 750 l 5
 377.609375 695 l 5
907.609375 695 m 5
 627.609375 695 l 5
 640.306640625 750 l 5
 920.306640625 750 l 5
 907.609375 695 l 5
379.853515625 55 m 5
 293.693359375 -15 l 5
 150.306640625 750 l 5
 260.306640625 750 l 5
 379.853515625 55 l 5
348.693359375 -15 m 5
 293.693359375 -15 l 5
 785.306640625 750 l 5
 840.306640625 750 l 5
 348.693359375 -15 l 5
EndSplineSet
Fore
SplineSet
405 675 m 5
 65 675 l 1
 65 750 l 1
 405 750 l 5
 405 675 l 5
915 675 m 1
 625 675 l 1
 625 750 l 1
 915 750 l 1
 915 675 l 1
408 55 m 1
 300 -15 l 1
 155 750 l 1
 293 750 l 1
 408 55 l 1
387 -15 m 1
 300 -15 l 1
 778 750 l 1
 870 750 l 1
 387 -15 l 1
EndSplineSet
EndChar

StartChar: W
Encoding: 87 87 34
Width: 1199
Flags: HMW
LayerCount: 2
Back
SplineSet
1240.03222656 695 m 5
 960.032226562 695 l 5
 972.729492188 750 l 5
 1252.72949219 750 l 5
 1240.03222656 695 l 5
758.276367188 55 m 5
 673.270507812 -10 l 5
 612.729492188 750 l 5
 712.729492188 750 l 5
 758.276367188 55 l 5
732.270507812 -10 m 5
 673.270507812 -10 l 5
 1102.72949219 750 l 5
 1160.72949219 750 l 5
 732.270507812 -10 l 5
390.032226562 695 m 5
 60.0322265625 695 l 5
 72.7294921875 750 l 5
 402.729492188 750 l 5
 390.032226562 695 l 5
810.032226562 695 m 5
 530.032226562 695 l 5
 542.729492188 750 l 5
 822.729492188 750 l 5
 810.032226562 695 l 5
337.276367188 55 m 5
 252.270507812 -10 l 5
 162.729492188 750 l 5
 262.729492188 750 l 5
 337.276367188 55 l 5
312.270507812 -10 m 5
 252.270507812 -10 l 5
 648.104492188 652 l 5
 706.104492188 652 l 5
 312.270507812 -10 l 5
EndSplineSet
Fore
SplineSet
1279 675 m 1
 1005 675 l 1
 1005 750 l 1
 1279 750 l 1
 1279 675 l 1
816 65 m 1
 701 -10 l 1
 615 750 l 5
 734 750 l 5
 816 65 l 1
788 -10 m 1
 701 -10 l 1
 1130 750 l 1
 1213 750 l 1
 788 -10 l 1
395 675 m 1
 65 675 l 1
 65 750 l 1
 395 750 l 1
 395 675 l 1
826 675 m 5
 526 675 l 5
 526 750 l 5
 826 750 l 5
 826 675 l 5
374 55 m 1
 260 -10 l 1
 155 750 l 1
 285 750 l 1
 374 55 l 1
343 -10 m 1
 260 -10 l 1
 661 642 l 5
 731 622 l 5
 343 -10 l 1
EndSplineSet
EndChar

StartChar: X
Encoding: 88 88 35
Width: 890
Flags: HMW
LayerCount: 2
Back
SplineSet
470.461914062 377 m 5
 402.461914062 377 l 5
 777.114257812 748 l 5
 842.114257812 748 l 5
 470.461914062 377 l 5
72.4248046875 0 m 5
 4.4248046875 0 l 5
 431.696289062 417 l 5
 496.696289062 417 l 5
 72.4248046875 0 l 5
461.122070312 55 m 5
 791.122070312 55 l 5
 778.424804688 0 l 5
 448.424804688 0 l 5
 461.122070312 55 l 5
-58.8779296875 55 m 5
 241.122070312 55 l 5
 228.424804688 0 l 5
 -71.5751953125 0 l 5
 -58.8779296875 55 l 5
453.877929688 695 m 5
 123.877929688 695 l 5
 136.575195312 750 l 5
 466.575195312 750 l 5
 453.877929688 695 l 5
903.877929688 695 m 5
 603.877929688 695 l 5
 616.575195312 750 l 5
 916.575195312 750 l 5
 903.877929688 695 l 5
714.424804688 0 m 5
 594.424804688 0 l 5
 196.575195312 750 l 5
 312.575195312 750 l 5
 714.424804688 0 l 5
EndSplineSet
Fore
SplineSet
522 382 m 1
 419 382 l 1
 811 748 l 1
 916 748 l 1
 522 382 l 1
79 0 m 1
 -29 0 l 1
 410 417 l 1
 510 407 l 1
 79 0 l 1
475 75 m 1
 825 75 l 1
 825 0 l 1
 475 0 l 1
 475 75 l 1
-65 75 m 1
 235 75 l 1
 235 0 l 1
 -65 0 l 1
 -65 75 l 1
470 675 m 5
 120 675 l 1
 120 750 l 1
 470 750 l 5
 470 675 l 5
940 675 m 1
 640 675 l 1
 640 750 l 1
 940 750 l 1
 940 675 l 1
773 0 m 1
 617 0 l 1
 178 750 l 1
 329 750 l 1
 773 0 l 1
EndSplineSet
EndChar

StartChar: Y
Encoding: 89 89 36
Width: 830
Flags: HMW
LayerCount: 2
Back
SplineSet
176.122070312 55 m 5
 286.122070312 55 l 5
 273.424804688 0 l 5
 163.424804688 0 l 5
 176.122070312 55 l 5
381.122070312 55 m 5
 501.122070312 55 l 5
 488.424804688 0 l 5
 368.424804688 0 l 5
 381.122070312 55 l 5
354.228515625 350 m 5
 449.228515625 350 l 5
 368.424804688 0 l 5
 273.424804688 0 l 5
 354.228515625 350 l 5
431.609375 317 m 5
 362.609375 317 l 5
 742.114257812 748 l 5
 812.114257812 748 l 5
 431.609375 317 l 5
408.877929688 695 m 5
 78.8779296875 695 l 5
 91.5751953125 750 l 5
 421.575195312 750 l 5
 408.877929688 695 l 5
863.877929688 695 m 5
 563.877929688 695 l 5
 576.575195312 750 l 5
 876.575195312 750 l 5
 863.877929688 695 l 5
444.534179688 334 m 5
 348.684570312 300 l 5
 151.575195312 750 l 5
 261.575195312 750 l 5
 444.534179688 334 l 5
EndSplineSet
Fore
SplineSet
169 75 m 1
 314 75 l 1
 314 0 l 1
 169 0 l 1
 169 75 l 1
419 75 m 1
 554 75 l 1
 554 0 l 1
 419 0 l 1
 419 75 l 1
360 350 m 1
 500 350 l 1
 420 0 l 1
 280 0 l 1
 360 350 l 1
485 317 m 1
 396 322 l 1
 756 748 l 1
 854 748 l 1
 485 317 l 1
405 675 m 5
 65 675 l 1
 65 750 l 1
 405 750 l 5
 405 675 l 5
910 675 m 1
 610 675 l 1
 610 750 l 1
 910 750 l 1
 910 675 l 1
474 334 m 1
 356 270 l 1
 130 750 l 1
 285 750 l 1
 474 334 l 1
EndSplineSet
EndChar

StartChar: Z
Encoding: 90 90 37
Width: 745
Flags: HMW
LayerCount: 2
Back
SplineSet
363.877929688 695 m 17
 226.877929688 695 183.950195312 652 152.321289062 515 c 9
 193.877929688 695 l 1
 363.877929688 695 l 17
396.122070312 55 m 17
 533.122070312 55 576.049804688 98 612.295898438 255 c 9
 566.122070312 55 l 1
 396.122070312 55 l 17
608.877929688 695 m 1
 723.877929688 695 l 1
 71.1220703125 55 l 1
 -43.8779296875 55 l 1
 608.877929688 695 l 1
566.122070312 55 m 1
 612.295898438 255 l 1
 662.295898438 255 l 1
 616.122070312 55 l 1
 566.122070312 55 l 1
152.321289062 515 m 1
 102.321289062 515 l 1
 143.877929688 695 l 1
 193.877929688 695 l 1
 152.321289062 515 l 1
-43.8779296875 55 m 1
 616.122070312 55 l 1
 603.424804688 0 l 1
 -56.5751953125 0 l 1
 -43.8779296875 55 l 1
736.575195312 750 m 1
 723.877929688 695 l 1
 143.877929688 695 l 1
 156.575195312 750 l 1
 736.575195312 750 l 1
EndSplineSet
Fore
SplineSet
390 75 m 17
 527 75 575 118 615 275 c 9
 579 75 l 1
 390 75 l 17
560 0 m 5
 615 275 l 1
 685 275 l 1
 630 0 l 1
 560 0 l 5
370 675 m 17
 233 675 180 632 145 495 c 9
 185 675 l 1
 370 675 l 17
580 675 m 1
 750 675 l 1
 120 75 l 1
 -50 75 l 1
 580 675 l 1
145 495 m 1
 75 495 l 1
 135 750 l 1
 211 750 l 1
 145 495 l 1
-50 75 m 1
 600 75 l 1
 620 0 l 1
 -50 0 l 1
 -50 75 l 1
750 750 m 1
 750 675 l 1
 190 675 l 1
 205 750 l 1
 750 750 l 1
EndSplineSet
EndChar

StartChar: a
Encoding: 97 97 38
Width: 666
VWidth: 1155
Flags: HMW
LayerCount: 2
Back
SplineSet
308.00390625 299 m 1
 299.23046875 261 l 1
 183.23046875 261 131.611328125 215 113.833984375 138 c 0
 98.3662109375 71 140.59375 46 190.59375 46 c 0
 258.59375 46 324.061523438 100 345.0703125 191 c 1
 366.299804688 179 l 1
 337.671875 55 243.666015625 -10 132.666015625 -10 c 0
 43.666015625 -10 -11.021484375 39 8.37109375 123 c 0
 30.072265625 217 136.00390625 299 308.00390625 299 c 1
475.703125 367 m 1
 407.366210938 71 l 1
 317.828125 73 l 1
 388.01171875 377 l 1
 475.703125 367 l 1
103.013671875 403 m 1
 120.791015625 480 224.333984375 530 325.333984375 530 c 0
 475.333984375 530 494.403320312 448 475.703125 367 c 1
 385.703125 367 l 1
 401.170898438 434 389.71484375 484 299.71484375 484 c 0
 245.71484375 484 203.328125 465 198.7109375 445 c 1
 103.013671875 403 l 1
308.00390625 299 m 1
 422.00390625 299 l 1
 413.23046875 261 l 1
 299.23046875 261 l 1
 308.00390625 299 l 1
515.518554688 63 m 1
 480.975585938 13 433.666015625 -10 390.666015625 -10 c 0
 343.666015625 -10 304.206054688 14 317.828125 73 c 1
 407.366210938 71 l 1
 402.749023438 51 412.670898438 42 426.670898438 42 c 0
 441.670898438 42 461.055664062 48 487.905273438 82 c 1
 515.518554688 63 l 1
214.705078125 393 m 0
 206.85546875 359 181.469726562 340 147.469726562 340 c 0
 116.469726562 340 92.85546875 359 103.013671875 403 c 1
 198.7109375 445 l 1
 194.5546875 427 223.708984375 432 214.705078125 393 c 0
EndSplineSet
Fore
SplineSet
447 330 m 0
 447 172 358 -15 187 -15 c 0
 98 -15 15 40 15 180 c 0
 15 410 178 534 297 534 c 0
 418 534 447 452 447 330 c 0
403 320 m 0
 403 404 386 463 325 463 c 0
 241 463 155 354 155 180 c 0
 155 106 180 59 232 59 c 0
 323 59 403 206 403 320 c 0
641 163 m 1
 615 67 544 -15 443 -15 c 0
 396 -15 362 13 362 63 c 0
 362 68 363 79 364 85 c 2
 376.076171875 182 l 1
 421 263 l 1
 416.358398438 359 l 1
 453 520 l 1
 585 520 l 1
 482 109 l 2
 480.639648438 103.307617188 480 96 480 91 c 0
 480 80 485 72 498 72 c 0
 532 72 560 110 588 176 c 1
 641 163 l 1
EndSplineSet
EndChar

StartChar: b
Encoding: 98 98 39
Width: 604
VWidth: 1155
Flags: HMW
LayerCount: 2
Back
SplineSet
137.141601562 260 m 4
 110.822265625 146 143.8125 42 234.8125 42 c 4
 318.8125 42 398.822265625 146 425.141601562 260 c 4
 451.4609375 374 419.470703125 478 335.470703125 478 c 4
 244.470703125 478 163.4609375 374 137.141601562 260 c 4
108.141601562 260 m 4
 145.541992188 422 244.245117188 529 365.245117188 529 c 4
 484.245117188 529 564.388671875 430 525.141601562 260 c 4
 485.893554688 90 359.806640625 -10 240.806640625 -10 c 4
 119.806640625 -10 70.7412109375 98 108.141601562 260 c 4
-90.1865234375 55 m 5
 -0.1865234375 55 l 5
 -12.8837890625 0 l 5
 -102.883789062 0 l 5
 -90.1865234375 55 l 5
77.193359375 780 m 5
 167.193359375 780 l 5
 154.495117188 725 l 5
 64.4951171875 725 l 5
 77.193359375 780 l 5
167.193359375 780 m 5
 257.193359375 780 l 5
 77.1162109375 0 l 5
 -12.8837890625 0 l 5
 167.193359375 780 l 5
EndSplineSet
Fore
SplineSet
559 330 m 5
 419 330 l 5
 419 414 403 468 359 468 c 4
 288 468 203 374 176 260 c 5
 147 260 l 5
 184 432 281 534 382 534 c 4
 481 534 559 470 559 330 c 5
56 780 m 1
 166 780 l 1
 166 715 l 1
 56 715 l 1
 56 780 l 1
166 780 m 1
 296 780 l 1
 149 140 l 1
 15 120 l 1
 166 780 l 1
15 120 m 5
 149 140 l 5
 149 86 168 47 219 47 c 4
 323 47 419 196 419 330 c 5
 559 330 l 5
 559 140 426 -15 217 -15 c 4
 106 -15 45 48 15 120 c 5
EndSplineSet
EndChar

StartChar: c
Encoding: 99 99 40
Width: 570
VWidth: 1155
Flags: HMW
LayerCount: 2
Back
SplineSet
535 422 m 5
 535 242 227 212 116 212 c 4
 55.0712890625 212 114 266 114 266 c 5
 203 266 399 278 399 422 c 5
 535 422 l 5
15 170 m 5
 157 170 l 5
 157 96 183 54 232 54 c 4
 315 54 379 113 418 173 c 5
 486 173 l 5
 439 83 352 -15 201 -15 c 4
 80 -15 15 50 15 170 c 5
535 422 m 5
 399 422 l 5
 399 461 381 473 352 473 c 4
 263 473 157 334 157 170 c 5
 15 170 l 5
 15 390 181 535 372 535 c 4
 474 535 535 494 535 422 c 5
EndSplineSet
Fore
SplineSet
15 170 m 5
 157 170 l 5
 157 96 183 54 232 54 c 4
 315 54 380 113 417 173 c 5
 486 173 l 5
 437 80 351 -15 200 -15 c 4
 101 -15 15 30 15 170 c 5
525 392 m 5
 409 446 l 5
 409 458 396 473 362 473 c 4
 251 473 157 334 157 170 c 5
 15 170 l 5
 15 400 201 535 352 535 c 4
 464 535 525 464 525 392 c 5
409 446 m 5
 525 392 l 5
 525 324 476 295 432 295 c 4
 394 295 357 321 357 368 c 4
 357 416 409 429 409 446 c 5
EndSplineSet
EndChar

StartChar: d
Encoding: 100 100 41
Width: 668
VWidth: 1155
Flags: HMW
LayerCount: 2
Back
SplineSet
641 163 m 5
 605 57 544 -15 443 -15 c 4
 396 -15 362 13 362 63 c 4
 362 68 363 79 364 85 c 6
 376.076171875 182 l 5
 421 263 l 5
 416.358398438 359 l 5
 453 520 l 5
 585 520 l 5
 482 109 l 6
 480.639648438 103.307617188 480 96 480 91 c 4
 480 80 485 72 498 72 c 4
 532 72 560 110 588 176 c 5
 641 163 l 5
414.141601562 260 m 4
 440.4609375 374 407.470703125 478 316.470703125 478 c 4
 232.470703125 478 152.4609375 374 126.141601562 260 c 4
 99.822265625 146 131.8125 42 215.8125 42 c 4
 306.8125 42 387.822265625 146 414.141601562 260 c 4
443.141601562 260 m 4
 405.741210938 98 306.806640625 -10 185.806640625 -10 c 4
 66.806640625 -10 -13.1064453125 90 26.1416015625 260 c 4
 65.388671875 430 191.245117188 529 310.245117188 529 c 4
 431.245117188 529 480.541992188 422 443.141601562 260 c 4
534.193359375 780 m 5
 521.495117188 725 l 5
 431.495117188 725 l 5
 444.193359375 780 l 5
 534.193359375 780 l 5
EndSplineSet
Fore
SplineSet
447 330 m 4
 447 172 358 -15 187 -15 c 4
 98 -15 15 40 15 180 c 4
 15 410 178 534 297 534 c 4
 418 534 447 452 447 330 c 4
403 320 m 4
 403 404 386 463 325 463 c 4
 241 463 155 354 155 180 c 4
 155 106 180 59 232 59 c 4
 323 59 403 206 403 320 c 4
641 163 m 5
 605 53 534 -15 443 -15 c 4
 396 -15 362 13 362 63 c 4
 362 68 363 79 364 85 c 6
 376.076171875 182 l 5
 431 263 l 5
 416.358398438 359 l 5
 511 780 l 5
 643 780 l 5
 482 109 l 6
 480.68359375 103.349609375 480 96 480 91 c 4
 480 80 485 72 498 72 c 4
 534 72 562 115 588 176 c 5
 641 163 l 5
513 780 m 5
 513 715 l 5
 408 715 l 5
 408 780 l 5
 513 780 l 5
EndSplineSet
EndChar

StartChar: e
Encoding: 101 101 42
Width: 560
VWidth: 1155
Flags: HMW
LayerCount: 2
Back
SplineSet
-53.2314453125 250 m 5
 52.3857421875 270 l 5
 23.7578125 146 34.0556640625 39 143.055664062 39 c 4
 226.055664062 39 292.522460938 93 335.991210938 173 c 5
 386.991210938 173 l 5
 336.2890625 66 250.743164062 -10 119.743164062 -10 c 4
 -31.2568359375 -10 -85.552734375 110 -53.2314453125 250 c 5
36.2353515625 304 m 5
 360.235351562 304 l 5
 350.307617188 261 l 5
 26.3076171875 261 l 5
 36.2353515625 304 l 5
395.307617188 261 m 5
 350.307617188 261 l 5
 357.002929688 290 l 5
 402.002929688 290 l 5
 395.307617188 261 l 5
406.307617188 261 m 5
 309.307617188 261 l 5
 333.087890625 364 340.252929688 486 241.252929688 486 c 4
 132.252929688 486 76.396484375 374 52.3857421875 270 c 5
 -53.2314453125 250 l 5
 -16.29296875 410 90.4111328125 530 251.411132812 530 c 4
 420.411132812 530 438.3984375 400 406.307617188 261 c 5
EndSplineSet
Fore
SplineSet
535 422 m 5
 535 242 227 212 116 212 c 4
 55.0712890625 212 114 266 114 266 c 5
 203 266 399 278 399 422 c 5
 535 422 l 5
15 170 m 5
 157 170 l 5
 157 96 183 54 232 54 c 4
 315 54 379 113 418 173 c 5
 486 173 l 5
 439 83 352 -15 201 -15 c 4
 80 -15 15 50 15 170 c 5
535 422 m 5
 399 422 l 5
 399 461 381 473 352 473 c 4
 263 473 157 334 157 170 c 5
 15 170 l 5
 15 390 181 535 372 535 c 4
 474 535 535 494 535 422 c 5
EndSplineSet
EndChar

StartChar: f
Encoding: 102 102 43
Width: 395
VWidth: 1155
Flags: HMW
LayerCount: 2
Back
SplineSet
545.56640625 679 m 5
 458.5703125 718 l 5
 461.340820312 730 446.803710938 745 394.803710938 745 c 4
 314.803710938 745 270.104492188 677 240.784179688 550 c 5
 155.86328125 572 l 5
 186.107421875 703 273.193359375 790 403.193359375 790 c 4
 504.193359375 790 558.725585938 736 545.56640625 679 c 5
424.411132812 661 m 4
 431.336914062 691 453.953125 698 458.5703125 718 c 5
 545.56640625 679 l 5
 535.639648438 636 506.329101562 613 471.329101562 613 c 4
 436.329101562 613 417.946289062 633 424.411132812 661 c 4
-53.4951171875 55 m 5
 36.5048828125 55 l 5
 23.806640625 0 l 5
 -66.193359375 0 l 5
 -53.4951171875 55 l 5
126.504882812 55 m 5
 246.504882812 55 l 5
 233.806640625 0 l 5
 113.806640625 0 l 5
 126.504882812 55 l 5
53.8583984375 520 m 5
 373.858398438 520 l 5
 361.161132812 465 l 5
 41.1611328125 465 l 5
 53.8583984375 520 l 5
155.86328125 572 m 5
 240.784179688 550 l 5
 113.806640625 0 l 5
 23.806640625 0 l 5
 155.86328125 572 l 5
EndSplineSet
Fore
SplineSet
469 718 m 5
 600 674 l 5
 600 606 551 577 507 577 c 4
 469 577 432 598 432 645 c 4
 432 701 469 706 469 718 c 5
145 572 m 5
 275 550 l 5
 130 -150 l 5
 0 -150 l 5
 145 572 l 5
600 674 m 5
 469 718 l 5
 469 730 446 740 414 740 c 4
 334 740 305 677 275 550 c 5
 145 572 l 5
 175 703 252 800 412 800 c 4
 553 800 600 721 600 674 c 5
45 520 m 5
 395 520 l 5
 395 455 l 5
 45 455 l 5
 45 520 l 5
EndSplineSet
EndChar

StartChar: g
Encoding: 103 103 44
Width: 579
VWidth: 1155
Flags: HMW
LayerCount: 2
Back
SplineSet
553.885742188 613.513671875 m 5
 468.326171875 583.107421875 l 5
 461.254882812 590.178710938 452.76953125 588.764648438 444.284179688 580.279296875 c 4
 418.12109375 554.116210938 406.807617188 506.033203125 454.18359375 430.373046875 c 5
 414.5859375 421.887695312 l 5
 364.380859375 500.375976562 387.715820312 576.036132812 416 604.321289062 c 4
 466.204101562 654.525390625 517.116210938 650.283203125 553.885742188 613.513671875 c 5
490.24609375 534.317382812 m 4
 467.619140625 556.944335938 479.639648438 571.793945312 468.326171875 583.107421875 c 5
 553.885742188 613.513671875 l 5
 577.927734375 589.471679688 576.513671875 558.359375 555.299804688 537.145507812 c 4
 535.500976562 517.346679688 507.923828125 516.639648438 490.24609375 534.317382812 c 4
173.912109375 22 m 5
 79.9091796875 -4 62.671875 -70 55.2841796875 -102 c 4
 39.5849609375 -170 79.658203125 -213 185.658203125 -213 c 4
 269.658203125 -213 366.5078125 -179 383.129882812 -107 c 5
 459.901367188 -82 l 5
 434.275390625 -193 318.806640625 -260 158.806640625 -260 c 4
 15.806640625 -260 -66.9580078125 -220 -47.333984375 -135 c 4
 -26.3251953125 -44 76.603515625 12 121.603515625 12 c 5
 173.912109375 22 l 5
35.2255859375 84 m 5
 108.3046875 106 l 5
 99.7626953125 69 141.762695312 69 196.762695312 69 c 4
 221.762695312 69 279.993164062 70 307.993164062 70 c 4
 402.993164062 70 491.299804688 54 459.901367188 -82 c 5
 383.129882812 -107 l 5
 395.596679688 -53 371.754882812 -9 306.754882812 -9 c 4
 285.754882812 -9 214.754882812 -9 192.754882812 -9 c 4
 102.754882812 -9 13.986328125 -8 35.2255859375 84 c 5
249.927734375 178 m 5
 206.927734375 178 116.154296875 140 108.3046875 106 c 5
 35.2255859375 84 l 5
 50.0009765625 148 141.313476562 197 256.313476562 197 c 5
 249.927734375 178 l 5
657.18359375 439 m 5
 584.1875 478 l 5
 586.49609375 488 580.650390625 493 568.650390625 493 c 4
 531.650390625 493 483.6484375 467 443.5625 380 c 5
 414.641601562 402 l 5
 455.650390625 493 534.193359375 530 574.193359375 530 c 4
 645.193359375 530 669.189453125 491 657.18359375 439 c 5
553.64453125 428 m 4
 561.032226562 460 580.494140625 462 584.1875 478 c 5
 657.18359375 439 l 5
 649.333984375 405 621.486328125 384 591.486328125 384 c 4
 563.486328125 384 547.873046875 403 553.64453125 428 c 4
88.482421875 345 m 4
 113.877929688 455 209.193359375 530 330.193359375 530 c 4
 451.193359375 530 511.877929688 455 486.482421875 345 c 4
 461.086914062 235 365.771484375 160 244.771484375 160 c 4
 123.771484375 160 63.0869140625 235 88.482421875 345 c 4
183.482421875 345 m 4
 166.3984375 271 175.006835938 200 254.006835938 200 c 4
 333.006835938 200 374.3984375 271 391.482421875 345 c 4
 408.56640625 419 399.958007812 490 320.958007812 490 c 4
 241.958007812 490 200.56640625 419 183.482421875 345 c 4
EndSplineSet
Fore
SplineSet
190 285 m 0
 190 231 210 205 249 205 c 0
 338 205 378 301 378 405 c 0
 378 449 368 485 329 485 c 0
 240 485 190 389 190 285 c 0
55 295 m 0
 55 445 198 535 329 535 c 0
 440 535 513 485 513 395 c 0
 513 245 380 155 249 155 c 0
 138 155 55 205 55 295 c 0
235 178 m 1
 192 178 120 150 120 116 c 1
 22 74 l 1
 22 158 122 197 237 197 c 1
 235 178 l 1
22 74 m 1
 120 116 l 1
 120 89 152 89 207 89 c 0
 232 89 270 90 298 90 c 0
 423 90 475 44 475 -42 c 1
 384 -67 l 1
 384 -23 360 -9 295 -9 c 0
 274 -9 213 -9 191 -9 c 0
 101 -9 22 2 22 74 c 1
179 22 m 1
 91 -4 65 -70 65 -112 c 0
 65 -178 100 -195 166 -195 c 0
 250 -195 384 -152 384 -67 c 1
 475 -42 l 1
 475 -183 305 -260 135 -260 c 0
 32 -260 -70 -240 -70 -145 c 0
 -70 -54 60 12 105 12 c 1
 179 22 l 1
487 633 m 0
 463 633 424 563 424 492 c 1
 369 514 l 5
 379 595 435 697 525 697 c 0
 586 697 619 663 619 611 c 0
 619 567 586 536 546 536 c 0
 508 536 480 560 480 595 c 0
 480 613 494.071289062 633 487 633 c 0
EndSplineSet
EndChar

StartChar: h
Encoding: 104 104 45
Width: 681
VWidth: 1155
Flags: HMW
LayerCount: 2
Back
SplineSet
427.612304688 358 m 1
 520.151367188 369 l 1
 434.9609375 0 l 1
 344.9609375 0 l 1
 427.612304688 358 l 1
427.612304688 358 m 1
 444.696289062 432 425.162109375 473 359.162109375 473 c 0
 261.162109375 473 179.076171875 386 155.296875 283 c 1
 126.296875 283 l 1
 149.845703125 385 232.321289062 530 395.321289062 530 c 0
 522.321289062 530 544.854492188 476 520.151367188 369 c 1
 427.612304688 358 l 1
447.659179688 55 m 1
 537.659179688 55 l 1
 524.9609375 0 l 1
 434.9609375 0 l 1
 447.659179688 55 l 1
268.659179688 55 m 1
 358.659179688 55 l 1
 345.9609375 0 l 1
 255.9609375 0 l 1
 268.659179688 55 l 1
102.659179688 55 m 1
 192.659179688 55 l 1
 179.9609375 0 l 1
 89.9609375 0 l 1
 102.659179688 55 l 1
180.0390625 780 m 1
 270.0390625 780 l 1
 89.9609375 0 l 1
 -0.0390625 0 l 1
 180.0390625 780 l 1
90.0390625 780 m 1
 180.0390625 780 l 1
 167.340820312 725 l 1
 77.3408203125 725 l 1
 90.0390625 780 l 1
-77.3408203125 55 m 1
 12.6591796875 55 l 1
 -0.0390625 0 l 1
 -90.0390625 0 l 1
 -77.3408203125 55 l 1
EndSplineSet
Fore
SplineSet
70 780 m 5
 180 780 l 5
 180 705 l 5
 70 705 l 5
 70 780 l 5
180 780 m 5
 310 780 l 5
 130 0 l 5
 0 0 l 5
 180 780 l 5
562 341 m 1
 432.076171875 330 l 1
 457.076171875 414 462 461 408 461 c 0
 317 461 196 287 165 153 c 1
 116 153 l 1
 169 365 300 534 441 534 c 0
 530 534 597 481 562 341 c 1
562 341 m 1
 497 119 l 2
 495.599609375 113.094726562 495 106 495 101 c 0
 495 90 500 82 513 82 c 0
 549 82 577 115 603 176 c 1
 656 163 l 1
 620 43 529 -15 448 -15 c 0
 401 -15 363 8 363 58 c 0
 363 77 365.729436054 94.8649805582 370 110 c 2
 432.076171875 330 l 1
 562 341 l 1
EndSplineSet
EndChar

StartChar: i
Encoding: 105 105 46
Width: 353
VWidth: 1155
Flags: HMW
LayerCount: 2
Back
SplineSet
158.877929688 700 m 4
 166.49609375 733 199.729492188 760 232.729492188 760 c 4
 265.729492188 760 286.49609375 733 278.877929688 700 c 4
 271.258789062 667 238.025390625 640 205.025390625 640 c 4
 172.025390625 640 151.258789062 667 158.877929688 700 c 4
-60.0322265625 55 m 5
 29.9677734375 55 l 5
 17.2705078125 0 l 5
 -72.7294921875 0 l 5
 -60.0322265625 55 l 5
119.967773438 55 m 5
 209.967773438 55 l 5
 197.270507812 0 l 5
 107.270507812 0 l 5
 119.967773438 55 l 5
47.3212890625 520 m 5
 137.321289062 520 l 5
 124.624023438 465 l 5
 34.6240234375 465 l 5
 47.3212890625 520 l 5
137.321289062 520 m 5
 227.321289062 520 l 5
 107.270507812 0 l 5
 17.2705078125 0 l 5
 137.321289062 520 l 5
EndSplineSet
Fore
SplineSet
138 680 m 0
 138 724 174 760 218 760 c 0
 262 760 298 724 298 680 c 0
 298 636 262 600 218 600 c 0
 174 600 138 636 138 680 c 0
265 520 m 5
 171 119 l 6
 169.599609375 113.094726562 169 106 169 101 c 4
 169 90 174 82 187 82 c 4
 223 82 249 115 275 176 c 5
 328 163 l 5
 292 43 201 -15 120 -15 c 4
 73 -15 35 8 35 58 c 4
 35 77 38.4482421875 94.6845703125 42 110 c 6
 137.076171875 520 l 5
 265 520 l 5
25 520 m 5
 145 520 l 5
 145 445 l 5
 25 445 l 5
 25 520 l 5
EndSplineSet
EndChar

StartChar: j
Encoding: 106 106 47
Width: 366
VWidth: 1155
Flags: HMW
LayerCount: 2
Back
SplineSet
-53.513671875 -125 m 4
 -53.513671875 -160 -82.513671875 -167 -82.513671875 -187 c 5
 -180.513671875 -143 l 5
 -180.513671875 -105 -151.513671875 -69 -111.513671875 -69 c 4
 -77.513671875 -69 -53.513671875 -92 -53.513671875 -125 c 4
-180.513671875 -143 m 5
 -82.513671875 -187 l 5
 -82.513671875 -200 -76.513671875 -216 -49.513671875 -216 c 4
 41.486328125 -216 62.486328125 -10 92.486328125 104 c 5
 162.486328125 11 l 5
 122.486328125 -139 81.486328125 -260 -59.513671875 -260 c 4
 -148.513671875 -260 -180.513671875 -205 -180.513671875 -143 c 5
182.486328125 520 m 5
 272.486328125 520 l 5
 162.486328125 11 l 5
 92.486328125 104 l 5
 182.486328125 520 l 5
203.376953125 700 m 0
 210.99609375 733 244.229492188 760 277.229492188 760 c 0
 310.229492188 760 330.99609375 733 323.376953125 700 c 0
 315.758789062 667 282.525390625 640 249.525390625 640 c 0
 216.525390625 640 195.758789062 667 203.376953125 700 c 0
94.8203125 520 m 1
 184.8203125 520 l 1
 172.123046875 465 l 1
 82.123046875 465 l 1
 94.8203125 520 l 1
EndSplineSet
Fore
SplineSet
201 680 m 0
 201 724 237 760 281 760 c 0
 325 760 361 724 361 680 c 0
 361 636 325 600 281 600 c 0
 237 600 201 636 201 680 c 0
98 520 m 1
 198 520 l 1
 198 455 l 1
 98 455 l 1
 98 520 l 1
198 520 m 1
 328 520 l 1
 208 0 l 1
 105 103 l 1
 198 520 l 1
-78 -193 m 1
 -215 -149 l 1
 -215 -81 -167 -55 -123 -55 c 0
 -85 -55 -47 -73 -47 -120 c 0
 -47 -176 -78 -176 -78 -193 c 1
-215 -149 m 1
 -78 -193 l 1
 -78 -200 -63 -205 -41 -205 c 4
 54 -205 75 -24 105 103 c 1
 208 0 l 1
 178 -131 123 -265 -47 -265 c 0
 -168 -265 -215 -216 -215 -149 c 1
EndSplineSet
EndChar

StartChar: k
Encoding: 107 107 48
Width: 642
VWidth: 1155
Flags: HMW
LayerCount: 2
Back
SplineSet
544 163 m 5
 500 43 422 -10 360 -10 c 4
 312.6953125 -10 296.005859375 13.5537109375 296.005859375 63.38671875 c 4
 296.005859375 68.5849609375 296.588867188 79.140625 298 85 c 6
 307 160 l 6
 314.07421875 218.951171875 302 298 208 298 c 4
 167 298 149 274 140 240 c 5
 111 240 l 5
 148 342 210 339 231 339 c 4
 300 339 407.396484375 274.959960938 394 141 c 6
 387 77 l 6
 386.49609375 74.7314453125 386.225585938 70.548828125 386.225585938 68.5361328125 c 4
 386.225585938 57.1416015625 392.619140625 52 406 52 c 4
 423 52 477 90 506 176 c 5
 544 163 l 5
446 428 m 4
 446 460 465 462 465 478 c 5
 547 439 l 5
 547 405 524 384 494 384 c 4
 466 384 446 403 446 428 c 4
85 780 m 5
 175 780 l 5
 175 725 l 5
 85 725 l 5
 85 780 l 5
175 780 m 5
 265 780 l 5
 85 0 l 5
 -5 0 l 5
 175 780 l 5
113 343 m 5
 155 324 l 5
 155 314 162 299 204 299 c 4
 241 299 287.526367188 303.568359375 313 392 c 4
 338.373046875 480.08203125 393 530 453 530 c 4
 514 530 547 491 547 439 c 5
 465 478 l 5
 465 488 458 490 446 490 c 4
 411 490 372.950195312 454.78125 350 370 c 4
 324.963867188 277.51171875 247 262 207 262 c 4
 136 262 113 291 113 343 c 5
EndSplineSet
Fore
SplineSet
604 163 m 5
 570 43 492 -10 400 -10 c 0
 352.6953125 -10 316.005859375 13.5537109375 316.005859375 63.38671875 c 0
 316.005859375 68.5849609375 317.287109375 79.056640625 318 85 c 2
 327 160 l 2
 334.07421875 218.951171875 322 288 248 288 c 0
 207 288 184 254 171 200 c 1
 151 240 l 1
 188 342 250 339 271 339 c 0
 340 339 467.396484375 274.959960938 454 141 c 2
 446 102 l 2
 445.49609375 99.7314453125 445.225585938 95.548828125 445.225585938 93.5361328125 c 0
 445.225585938 82.1416015625 451.619140625 77 465 77 c 0
 482 77 517 90 546 176 c 5
 604 163 l 5
466 413 m 0
 466 445 493 450 493 466 c 1
 607 424 l 1
 607 380 574 349 534 349 c 0
 496 349 466 378 466 413 c 0
80 780 m 1
 215 780 l 1
 215 715 l 1
 80 715 l 1
 80 780 l 1
175 780 m 1
 305 780 l 1
 125 0 l 1
 -5 0 l 1
 175 780 l 1
153 378 m 1
 195 369 l 1
 195 359 202 294 244 294 c 0
 281 294 312.526367188 318.568359375 338 397 c 0
 366.315429688 484.180664062 413 535 493 535 c 0
 554 535 607 496 607 424 c 1
 493 466 l 1
 493 473 488 480 473 480 c 0
 443 480 412.950195312 459.78125 390 375 c 0
 364.963867188 282.51171875 287 247 247 247 c 0
 176 247 153 326 153 378 c 1
EndSplineSet
EndChar

StartChar: l
Encoding: 108 108 49
Width: 333
VWidth: 1155
Flags: HMW
LayerCount: 2
Back
SplineSet
251 163 m 5
 213 63 144 -10 73 -10 c 4
 26 -10 2 13 2 63 c 4
 2 68 2.7265625 79.0615234375 4 85 c 6
 153 780 l 5
 245 780 l 5
 92 89 l 6
 90.7353515625 83.2900390625 90 76 90 71 c 4
 90 60 95 52 108 52 c 4
 142 52 190 110 213 176 c 5
 251 163 l 5
55 780 m 5
 155 780 l 5
 155 725 l 5
 55 725 l 5
 55 780 l 5
EndSplineSet
Fore
SplineSet
52 780 m 1
 182 780 l 1
 182 705 l 1
 52 705 l 1
 52 780 l 1
295 780 m 5
 151 119 l 6
 149.599609375 113.094726562 149 106 149 101 c 4
 149 90 154 82 167 82 c 4
 203 82 229 115 255 176 c 5
 308 163 l 5
 272 43 181 -15 100 -15 c 4
 53 -15 15 8 15 58 c 4
 15 77 18.4482421875 94.6845703125 22 110 c 6
 167.076171875 780 l 5
 295 780 l 5
EndSplineSet
EndChar

StartChar: m
Encoding: 109 109 50
Width: 981
VWidth: 1155
Flags: HMW
LayerCount: 2
Back
SplineSet
865 163 m 5
 827 63 758 -10 687 -10 c 4
 640 -10 616 13 616 63 c 4
 616 68 617.720703125 83.5244140625 620 92 c 6
 684 330 l 5
 774 341 l 5
 708 96 l 6
 705.475585938 86.6279296875 704 76 704 71 c 4
 704 60 709 52 722 52 c 4
 756 52 804 110 827 176 c 5
 865 163 l 5
414 330 m 5
 504 341 l 5
 422 0 l 5
 332 0 l 5
 414 330 l 5
774 341 m 5
 684 330 l 5
 704 414 739 478 675 478 c 4
 584 478 494 297 459 153 c 5
 420 153 l 5
 477 345 563 529 684 529 c 4
 793 529 809 481 774 341 c 5
65 520 m 5
 160 520 l 5
 160 465 l 5
 65 465 l 5
 65 520 l 5
160 520 m 5
 250 520 l 5
 130 0 l 5
 40 0 l 5
 160 520 l 5
494 331 m 5
 414 330 l 5
 431 414 449 478 393 478 c 4
 302 478 200 297 165 153 c 5
 136 153 l 5
 173 325 285 529 406 529 c 4
 505 529 529 471 494 331 c 5
EndSplineSet
Fore
SplineSet
533 330 m 1
 423 330 l 1
 443 414 452 461 398 461 c 4
 327 461 216 287 185 153 c 1
 136 153 l 1
 189 365 310 534 431 534 c 4
 520 534 568 470 533 330 c 1
45 520 m 1
 140 520 l 1
 140 455 l 1
 45 455 l 1
 45 520 l 1
140 520 m 1
 270 520 l 1
 150 0 l 1
 20 0 l 1
 140 520 l 1
862 341 m 1
 732.076171875 330 l 1
 757.076171875 414 762 461 708 461 c 0
 637 461 545 287 514 153 c 1
 465 153 l 1
 518 365 610 534 741 534 c 0
 830 534 897 481 862 341 c 1
862 341 m 1
 797 119 l 2
 795.599609375 113.094726562 795 106 795 101 c 0
 795 90 800 82 813 82 c 0
 849 82 877 115 903 176 c 1
 956 163 l 1
 920 43 829 -15 748 -15 c 0
 701 -15 663 8 663 58 c 0
 663 77 665.729492188 94.865234375 670 110 c 2
 732.076171875 330 l 1
 862 341 l 1
423 330 m 1
 553 330 l 1
 480 0 l 1
 340 0 l 1
 423 330 l 1
EndSplineSet
EndChar

StartChar: n
Encoding: 110 110 51
Width: 701
VWidth: 1155
Flags: HMW
LayerCount: 2
Back
SplineSet
486.517578125 55 m 1
 576.517578125 55 l 1
 563.8203125 0 l 1
 473.8203125 0 l 1
 486.517578125 55 l 1
306.517578125 55 m 1
 396.517578125 55 l 1
 383.8203125 0 l 1
 293.8203125 0 l 1
 306.517578125 55 l 1
466.470703125 358 m 1
 559.010742188 369 l 1
 473.8203125 0 l 1
 383.8203125 0 l 1
 466.470703125 358 l 1
141.517578125 55 m 1
 231.517578125 55 l 1
 218.8203125 0 l 1
 128.8203125 0 l 1
 141.517578125 55 l 1
158.87109375 520 m 1
 248.87109375 520 l 1
 128.8203125 0 l 1
 38.8203125 0 l 1
 158.87109375 520 l 1
68.87109375 520 m 1
 158.87109375 520 l 1
 146.173828125 465 l 1
 56.173828125 465 l 1
 68.87109375 520 l 1
-38.482421875 55 m 1
 51.517578125 55 l 1
 38.8203125 0 l 1
 -51.1796875 0 l 1
 -38.482421875 55 l 1
466.470703125 358 m 1
 483.5546875 432 464.020507812 473 398.020507812 473 c 0
 300.020507812 473 217.934570312 386 194.155273438 283 c 1
 165.155273438 283 l 1
 188.704101562 385 271.1796875 530 434.1796875 530 c 0
 561.1796875 530 583.712890625 476 559.010742188 369 c 1
 466.470703125 358 l 1
EndSplineSet
Fore
SplineSet
582 341 m 5
 452.076171875 330 l 5
 477.076171875 414 482 461 428 461 c 4
 337 461 216 287 185 153 c 5
 136 153 l 5
 189 365 320 534 461 534 c 4
 550 534 617 481 582 341 c 5
582 341 m 5
 517 119 l 6
 515.599609375 113.094726562 515 106 515 101 c 4
 515 90 520 82 533 82 c 4
 569 82 597 115 623 176 c 5
 676 163 l 5
 640 43 549 -15 468 -15 c 4
 421 -15 383 8 383 58 c 4
 383 77 385.729492188 94.865234375 390 110 c 6
 452.076171875 330 l 5
 582 341 l 5
45 520 m 5
 140 520 l 5
 140 455 l 5
 45 455 l 5
 45 520 l 5
140 520 m 5
 270 520 l 5
 150 0 l 5
 20 0 l 5
 140 520 l 5
EndSplineSet
EndChar

StartChar: o
Encoding: 111 111 52
Width: 618
VWidth: 1155
Flags: HMW
LayerCount: 2
Fore
SplineSet
160 190 m 0
 160 96 185 55 234 55 c 0
 343 55 428 176 428 330 c 0
 428 424 403 465 354 465 c 0
 245 465 160 344 160 190 c 0
15 180 m 0
 15 390 173 535 364 535 c 4
 495 535 573 460 573 340 c 0
 573 130 415 -15 224 -15 c 4
 93 -15 15 60 15 180 c 0
EndSplineSet
EndChar

StartChar: p
Encoding: 112 112 53
Width: 625
VWidth: 1155
Flags: HMW
LayerCount: 2
Back
SplineSet
-46 357 m 5
 -10 467 61 535 152 535 c 4
 199 535 233 507 233 457 c 4
 233 452 232 441 231 435 c 6
 218.923828125 338 l 5
 164 257 l 5
 178.641601562 161 l 5
 84 -260 l 5
 -48 -260 l 5
 113 411 l 6
 114.31640625 416.650390625 115 424 115 429 c 4
 115 440 110 448 97 448 c 4
 61 448 33 405 7 344 c 5
 -46 357 l 5
48 520 m 1
 138 520 l 1
 138 465 l 1
 48 465 l 1
 48 520 l 1
138 520 m 1
 226 520 l 1
 52 -250 l 1
 -40 -250 l 1
 138 520 l 1
128 200 m 0
 128 338 247 530 388 530 c 0
 477 530 550 480 550 340 c 0
 550 140 386 -9 268 -9 c 0
 157 -9 128 78 128 200 c 0
162 200 m 0
 162 116 179 42 260 42 c 0
 344 42 450 196 450 340 c 0
 450 424 424 478 360 478 c 0
 269 478 162 314 162 200 c 0
EndSplineSet
Fore
SplineSet
23 520 m 5
 133 520 l 5
 133 445 l 5
 23 445 l 5
 23 520 l 5
133 520 m 5
 253 520 l 5
 226.416015625 405 l 5
 165 255 l 5
 171.919480519 126 l 5
 85 -250 l 5
 -45 -250 l 5
 133 520 l 5
148 190 m 4
 148 318 247 535 408 535 c 4
 497 535 580 480 580 340 c 4
 580 110 427 -14 308 -14 c 4
 187 -14 148 68 148 190 c 4
192 200 m 4
 192 116 219 57 280 57 c 4
 364 57 440 166 440 340 c 4
 440 414 415 461 363 461 c 4
 282 461 192 324 192 200 c 4
EndSplineSet
EndChar

StartChar: q
Encoding: 113 113 54
Width: 606
VWidth: 1155
Flags: HMW
LayerCount: 2
Back
SplineSet
451 520 m 5
 539 520 l 5
 365 -250 l 5
 273 -250 l 5
 369.62890625 168 l 5
 406 256 l 5
 410.545898438 345 l 5
 451 520 l 5
365 -250 m 5
 365 -195 l 5
 455 -195 l 5
 455 -250 l 5
 365 -250 l 5
437 320 m 4
 437 182 328 -10 187 -10 c 4
 98 -10 15 40 15 180 c 4
 15 380 188 529 297 529 c 4
 408 529 437 442 437 320 c 4
403 320 m 4
 403 404 386 478 305 478 c 4
 221 478 115 324 115 180 c 4
 115 96 151 42 215 42 c 4
 306 42 403 206 403 320 c 4
EndSplineSet
Fore
SplineSet
403 -175 m 1
 513 -175 l 1
 513 -250 l 1
 403 -250 l 1
 403 -175 l 1
461 520 m 5
 581 520 l 1
 403 -250 l 1
 273 -250 l 1
 362.231445312 136 l 1
 414 258 l 1
 430.0234375 386 l 5
 461 520 l 5
447 331 m 0
 447 203 348 -14 187 -14 c 0
 98 -14 15 41 15 181 c 0
 15 411 168 535 287 535 c 0
 408 535 447 453 447 331 c 0
403 321 m 0
 403 405 376 464 315 464 c 0
 231 464 155 355 155 181 c 0
 155 107 180 60 232 60 c 0
 313 60 403 197 403 321 c 0
EndSplineSet
EndChar

StartChar: r
Encoding: 114 114 55
Width: 533
VWidth: 1155
Flags: HMW
LayerCount: 2
Back
SplineSet
364.404296875 466 m 5
 366.712890625 476 363.021484375 486 339.021484375 486 c 4
 271.021484375 486 197.934570312 386 174.155273438 283 c 5
 150.155273438 283 l 5
 171.395507812 375 230.1796875 530 371.1796875 530 c 4
 427.1796875 530 470.869140625 494 457.478515625 436 c 5
 364.404296875 466 l 5
-58.482421875 55 m 5
 31.517578125 55 l 5
 18.8203125 0 l 5
 -71.1796875 0 l 5
 -58.482421875 55 l 5
48.87109375 520 m 5
 138.87109375 520 l 5
 126.173828125 465 l 5
 36.173828125 465 l 5
 48.87109375 520 l 5
138.87109375 520 m 5
 228.87109375 520 l 5
 108.8203125 0 l 5
 18.8203125 0 l 5
 138.87109375 520 l 5
121.517578125 55 m 5
 211.517578125 55 l 5
 198.8203125 0 l 5
 108.8203125 0 l 5
 121.517578125 55 l 5
328.70703125 411 m 4
 337.017578125 447 361.633789062 454 364.404296875 466 c 5
 457.478515625 436 l 5
 447.782226562 394 412.932617188 360 377.932617188 360 c 4
 343.932617188 360 321.549804688 380 328.70703125 411 c 4
EndSplineSet
Fore
SplineSet
45 520 m 1
 140 520 l 1
 140 455 l 1
 45 455 l 1
 45 520 l 1
404 457 m 1
 404 464 400 468 389 468 c 0
 311 468 212 286 192 183 c 1
 148 183 l 5
 168 295 263 535 419 535 c 0
 488 535 538 489 538 431 c 1
 404 457 l 1
140 520 m 1
 260 520 l 1
 224 364 l 1
 225.692382812 328 l 1
 150 0 l 1
 20 0 l 1
 140 520 l 1
375 396 m 0
 375 440 404 445 404 457 c 1
 538 431 l 1
 538 379 506 325 446 325 c 0
 402 325 375 355 375 396 c 0
EndSplineSet
EndChar

StartChar: s
Encoding: 115 115 56
Width: 526
VWidth: 1155
Flags: HMW
LayerCount: 2
Back
SplineSet
121 152 m 4
 121 109 77 115 77 95 c 5
 5 126 l 5
 5 169 34 203 69 203 c 4
 99 203 121 184 121 152 c 4
359 390 m 4
 359 429 389 426 389 446 c 5
 466 411 l 5
 466 371 444 347 412 347 c 4
 380 347 359 365 359 390 c 4
88 380 m 5
 174 406 l 5
 174 306 429 325 429 152 c 5
 346 133 l 5
 346 250 88 234 88 380 c 5
5 126 m 5
 77 95 l 5
 77 57 135 34 192 34 c 4
 292 34 346 82 346 133 c 5
 429 152 l 5
 429 48 319 -12 192 -12 c 4
 83 -12 5 46 5 126 c 5
466 411 m 5
 389 446 l 5
 389 477 343 487 301 487 c 4
 238 487 174 462 174 406 c 5
 88 380 l 5
 88 489 218 532 301 532 c 4
 399 532 466 487 466 411 c 5
EndSplineSet
Fore
SplineSet
146 162 m 0
 146 109 103 112 103 92 c 1
 -5 126 l 1
 -5 189 34 226 79 226 c 4
 122 226 146 199 146 162 c 0
369 390 m 0
 369 439 409 439 409 449 c 1
 511 411 l 1
 511 361 484 327 432 327 c 0
 395 327 369 355 369 390 c 0
88 380 m 1
 214 406 l 5
 214 316 469 325 469 152 c 1
 346 133 l 5
 346 240 88 234 88 380 c 1
-5 126 m 1
 103 92 l 1
 103 73 147 48 214 48 c 0
 304 48 346 92 346 133 c 1
 469 152 l 1
 469 38 339 -17 212 -17 c 0
 83 -17 -5 36 -5 126 c 1
511 411 m 1
 409 449 l 1
 409 465 383 477 321 477 c 0
 268 477 214 462 214 406 c 1
 88 380 l 1
 88 459 168 537 321 537 c 0
 439 537 511 487 511 411 c 1
EndSplineSet
EndChar

StartChar: t
Encoding: 116 116 57
Width: 395
VWidth: 1155
Flags: HMW
LayerCount: 2
Back
SplineSet
30.001953125 520 m 5
 335.001953125 520 l 5
 335.001953125 465 l 5
 30.001953125 465 l 5
 30.001953125 520 l 5
121 69 m 5
 121 78 124.365234375 90.9169921875 128 107 c 6
 248 638 l 5
 230 638 l 5
 230 638 188 611 152 611 c 5
 28 86 l 6
 26 77 25 68 25 60 c 5
 121 69 l 5
EndSplineSet
Fore
SplineSet
24.998046875 58 m 5
 158.998046875 101 l 5
 158.998046875 90 163.998046875 82 176.998046875 82 c 4
 212.998046875 82 238.998046875 115 264.998046875 176 c 5
 317.998046875 163 l 5
 281.998046875 43 190.998046875 -15 109.998046875 -15 c 4
 62.998046875 -15 24.998046875 8 24.998046875 58 c 5
30 520 m 5
 375 520 l 5
 375 455 l 5
 30 455 l 5
 30 520 l 5
158.998046875 101 m 5
 24.998046875 58 l 5
 24.998046875 66 25.87890625 77.0283203125 27.998046875 86 c 6
 151.998046875 611 l 5
 207.998046875 611 259.998046875 638 259.998046875 638 c 5
 287.998046875 638 l 5
 162.998046875 129 l 6
 160.049804688 116.994140625 158.998046875 110 158.998046875 101 c 5
EndSplineSet
Substitution2: "'ss01' Style Set 1 lookup 2-1" uniFFF0
EndChar

StartChar: u
Encoding: 117 117 58
Width: 754
VWidth: 1155
Flags: HMW
LayerCount: 2
Back
SplineSet
58 357 m 5
 96 457 165 530 236 530 c 4
 283 530 307 507 307 457 c 4
 307 452 305.279296875 436.475585938 303 428 c 6
 239 190 l 5
 149 179 l 5
 215 424 l 6
 217.524414062 433.372070312 219 444 219 449 c 4
 219 460 214 468 201 468 c 4
 167 468 119 410 96 344 c 5
 58 357 l 5
693 163 m 5
 655 63 586 -10 515 -10 c 4
 468 -10 444 13 444 63 c 4
 444 68 445 79 446 85 c 6
 545 520 l 5
 637 520 l 5
 534 89 l 6
 532.639648438 83.3076171875 532 76 532 71 c 4
 532 60 537 52 550 52 c 4
 584 52 632 110 655 176 c 5
 693 163 l 5
149 179 m 5
 239 190 l 5
 214 106 204 44 268 44 c 4
 359 44 480 233 511 367 c 5
 540 367 l 5
 487 155 376 -9 255 -9 c 4
 166 -9 114 39 149 179 c 5
EndSplineSet
Fore
SplineSet
729 163 m 1
 703 67 632 -15 531 -15 c 0
 484 -15 450 13 450 63 c 0
 450 68 451 79 452 85 c 2
 464.076171875 182 l 1
 509 263 l 1
 504.358398438 359 l 1
 541 520 l 1
 673 520 l 1
 570 109 l 2
 568.639648438 103.307617188 568 96 568 91 c 0
 568 80 573 72 586 72 c 0
 620 72 648 110 676 176 c 1
 729 163 l 1
109 179 m 5
 238.923828125 190 l 5
 213.923828125 106 209 59 263 59 c 4
 354 59 475 233 506 367 c 5
 555 367 l 5
 502 155 371 -14 230 -14 c 4
 141 -14 74 39 109 179 c 5
109 179 m 5
 174 401 l 6
 175.400390625 406.905273438 176 414 176 419 c 4
 176 430 171 438 158 438 c 4
 122 438 94 405 68 344 c 5
 15 357 l 5
 51 477 142 535 223 535 c 4
 270 535 308 512 308 462 c 4
 308 443 305.270507812 425.134765625 301 410 c 6
 238.923828125 190 l 5
 109 179 l 5
EndSplineSet
EndChar

StartChar: v
Encoding: 118 118 59
Width: 566
VWidth: 1155
Flags: HMW
LayerCount: 2
Back
SplineSet
170 535 m 5
 190 501 l 5
 168 489 135 461 135 413 c 4
 135 320 194 281 194 137 c 4
 194 118 189 79 188 58 c 5
 83 12 l 5
 85 34 102 90 102 110 c 4
 102 207 35 289 35 383 c 4
 35 463 120 511 170 535 c 5
380 423 m 4
 355 423 336 445 336 473 c 4
 336 503 365 529 399 529 c 5
 436 443 l 5
 420 443 412 423 380 423 c 4
83 12 m 5
 284.78125 119.950195312 454 265 454 383 c 4
 454 435 446 443 436 443 c 5
 399 529 l 5
 459 529 506 475 506 384 c 4
 506 234 311.08203125 73.373046875 126 -12 c 5
 83 12 l 5
EndSplineSet
Fore
SplineSet
190 535 m 1
 225 488 l 1
 203 476 155 453 155 405 c 0
 155 312 209 291 209 147 c 0
 209 128 204 89 203 68 c 1
 53 22 l 1
 55 44 72 100 72 120 c 0
 72 217 15 279 15 373 c 0
 15 453 90 481 190 535 c 1
400 387 m 4
 355 387 326 420 326 458 c 4
 326 508 365 534 419 534 c 5
 463 428 l 5
 442 428 442 387 400 387 c 4
53 22 m 1
 304.78125 149.950195312 482 245 482 383 c 0
 482 425 473 428 463 428 c 1
 419 534 l 1
 479 534 551 500 551 389 c 0
 551 219 341.08203125 93.373046875 106 -12 c 1
 53 22 l 1
EndSplineSet
EndChar

StartChar: w
Encoding: 119 119 60
Width: 967
VWidth: 1155
Flags: HMW
LayerCount: 2
Back
SplineSet
830 382 m 4
 785 382 756 415 756 453 c 4
 756 503 795 529 849 529 c 5
 893 423 l 5
 872 423 872 382 830 382 c 4
646 43 m 5
 788 43 875 295 875 383 c 4
 875 405 874 419 864 419 c 5
 849 529 l 5
 897 529 932 494 932 393 c 4
 932 283 842 -10 637 -10 c 5
 646 43 l 5
68 357 m 1
 106 457 175 530 246 530 c 0
 293 530 317 507 317 457 c 0
 317 452 315.279296875 436.475585938 313 428 c 2
 249 190 l 1
 159 179 l 1
 225 424 l 2
 227.524414062 433.372070312 229 444 229 449 c 0
 229 460 224 468 211 468 c 0
 177 468 129 410 106 344 c 1
 68 357 l 1
159 179 m 1
 249 190 l 1
 224 106 234 42 298 42 c 0
 389 42 455 173 482 287 c 1
 521 287 l 1
 484 115 396 -9 285 -9 c 0
 196 -9 124 39 159 179 c 1
535 520 m 1
 625 520 l 1
 549 189 l 1
 456 178 l 1
 535 520 l 1
791 413 m 0
 764 413 742 435 742 470 c 0
 742 506 768 529 809 529 c 1
 824 419 l 1
 817 419 825 413 791 413 c 0
606 43 m 1
 748 43 835 295 835 383 c 0
 835 405 834 419 824 419 c 1
 809 529 l 1
 857 529 892 494 892 393 c 0
 892 283 802 -10 597 -10 c 1
 606 43 l 1
456 178 m 1
 549 189 l 1
 529 105 542 43 606 43 c 1
 597 -10 l 1
 508 -10 454 38 456 178 c 1
EndSplineSet
Fore
SplineSet
819 382 m 0
 774 382 751 415 751 453 c 0
 751 503 790 529 834 529 c 1
 865 404 l 1
 854 404 851 382 819 382 c 0
119 179 m 1
 248.923828125 190 l 1
 223.923828125 106 219 59 273 59 c 0
 364 59 469 233 500 367 c 1
 549 367 l 1
 496 155 381 -14 240 -14 c 0
 151 -14 84 39 119 179 c 1
119 179 m 1
 184 401 l 2
 185.400390625 406.905273438 186 414 186 419 c 0
 186 430 181 438 168 438 c 0
 132 438 104 405 78 344 c 1
 25 357 l 1
 61 477 152 535 233 535 c 0
 280 535 318 512 318 462 c 0
 318 443 315.270507812 425.134765625 311 410 c 2
 248.923828125 190 l 1
 119 179 l 1
535 520 m 1
 665 520 l 1
 589 189 l 1
 456 178 l 1
 535 520 l 1
646 58 m 1
 788 58 869 307 869 395 c 0
 869 401 868 404 865 404 c 1
 834 529 l 1
 892 529 942 494 942 413 c 0
 942 273 852 -15 637 -15 c 5
 646 58 l 1
456 178 m 1
 589 189 l 1
 569 105 582 58 646 58 c 1
 637 -15 l 1
 548 -15 454 38 456 178 c 1
EndSplineSet
EndChar

StartChar: x
Encoding: 120 120 61
Width: 626
VWidth: 1155
Flags: HMW
LayerCount: 2
Back
SplineSet
261 314 m 1
 321.373046875 412.08203125 376 530 465 530 c 0
 536 530 564 491 564 439 c 1
 482 478 l 1
 482 488 475 490 463 490 c 0
 406 490 353.950195312 382.78125 296 288 c 1
 261 314 l 1
463 428 m 0
 463 460 482 462 482 478 c 1
 564 439 l 1
 564 405 541 384 511 384 c 0
 483 384 463 403 463 428 c 0
271 267 m 5
 210.626953125 168.91796875 126 -10 19 -10 c 4
 -42 -10 -70 29 -70 81 c 5
 12 42 l 5
 12 32 19 30 31 30 c 4
 88 30 178.049804688 198.21875 236 293 c 5
 271 267 l 5
31 92 m 4
 31 60 12 58 12 42 c 5
 -70 81 l 5
 -70 115 -47 136 -17 136 c 4
 11 136 31 117 31 92 c 4
504 109 m 1
 471 19 426 -10 374 -10 c 0
 316.6953125 -10 285.8203125 25.2294921875 273.005859375 73.38671875 c 0
 250.07421875 159.565429688 199.092773438 377.100585938 172.774414062 449.463867188 c 0
 168.879882812 460.171875 164.380859375 473 146 473 c 0
 125 473 97 451 78 395 c 1
 43 409 l 1
 76 499 114 532 176 532 c 0
 233.3046875 532 260.1796875 496.770507812 272.994140625 448.61328125 c 0
 297.046875 358.224609375 337.801757812 169.942382812 373.225585938 72.5361328125 c 0
 377.120117188 61.828125 389.619140625 49 403 49 c 0
 417 49 449 71 468 127 c 1
 504 109 l 1
EndSplineSet
Fore
SplineSet
290 278 m 1
 320.373046875 376.08203125 405 535 522 535 c 0
 603 535 631 476 631 424 c 1
 529 463 l 1
 529 473 522 475 510 475 c 0
 453 475 357.950195312 336.78125 330 242 c 1
 290 278 l 1
490 403 m 0
 490 445 529 447 529 463 c 1
 631 424 l 1
 631 380 598 339 558 339 c 0
 510 339 490 368 490 403 c 0
291 242 m 1
 260.626953125 143.91796875 161 -15 44 -15 c 0
 -37 -15 -65 44 -65 96 c 1
 37 57 l 1
 37 47 44 45 56 45 c 0
 113 45 228.049804688 183.21875 256 278 c 1
 291 242 l 1
76 117 m 0
 76 75 37 73 37 57 c 1
 -65 96 l 1
 -65 140 -32 181 8 181 c 0
 56 181 76 152 76 117 c 0
557 114 m 1
 524 24 456 -15 394 -15 c 0
 326.6953125 -15 280.8203125 25.2294921875 268.005859375 73.38671875 c 0
 245.07421875 159.565429688 206.092773438 358.100585938 179.774414062 430.463867188 c 0
 175.879882812 441.171875 167.380859375 450 151 450 c 4
 130 450 109 436 90 380 c 1
 34 402 l 1
 67 492 124 537 196 537 c 0
 263.3046875 537 305.1796875 496.770507812 317.994140625 448.61328125 c 0
 342.046875 358.224609375 372.801757812 183.942382812 408.225585938 86.5361328125 c 0
 412.120117188 75.828125 419.619140625 68 438 68 c 0
 452 68 479 81 498 137 c 1
 557 114 l 1
EndSplineSet
EndChar

StartChar: y
Encoding: 121 121 62
Width: 705
VWidth: 1155
Flags: HMW
LayerCount: 2
Back
SplineSet
295.005859375 -106.61328125 m 1
 242.07421875 -20.4345703125 192.092773438 377.100585938 164.774414062 449.463867188 c 0
 160.75 460.124023438 157.380859375 472 140 472 c 0
 126 472 94 450 75 394 c 1
 36 409 l 1
 69 499 109 532 171 532 c 0
 228.3046875 532 254.706054688 505.353515625 268.994140625 457.61328125 c 0
 296.046875 367.224609375 309.801757812 59.9423828125 375.225585938 -37.4638671875 c 1
 295.005859375 -106.61328125 l 1
538 414 m 4
 503 414 484 433 484 471 c 4
 484 501 505 539 559 539 c 5
 581 430 l 5
 569 430 572 414 538 414 c 4
55 -205 m 5
 267 -205 591 301 591 409 c 4
 591 425 589 430 581 430 c 5
 559 539 l 5
 627 539 650 496 650 435 c 4
 650 265 300 -260 55 -260 c 5
 55 -205 l 5
43 -107 m 0
 43 -145 1 -140 1 -166 c 1
 -75 -141 l 1
 -75 -95 -46 -58 -7 -58 c 0
 23 -58 43 -76 43 -107 c 0
-75 -141 m 1
 1 -166 l 1
 1 -189 12 -205 55 -205 c 1
 55 -260 l 1
 -32 -260 -75 -208 -75 -141 c 1
EndSplineSet
Fore
SplineSet
548 397 m 0
 513 397 484 430 484 468 c 0
 484 513 523 544 577 544 c 1
 603 418 l 1
 582 418 590 397 548 397 c 0
85 -205 m 1
 317 -205 611 279 611 407 c 0
 611 415 608 418 603 418 c 1
 577 544 l 1
 645 544 680 506 680 425 c 0
 680 245 350 -265 85 -265 c 1
 85 -205 l 1
295.005859375 -106.61328125 m 1
 242.07421875 -20.4345703125 202.092773438 367.100585938 174.774414062 439.463867188 c 0
 170.75 450.124023438 167.380859375 462 150 462 c 0
 136 462 104 440 85 384 c 1
 36 409 l 1
 69 499 119 537 191 537 c 4
 278.3046875 537 304.706054688 495.353515625 318.994140625 447.61328125 c 4
 346.046875 357.224609375 359.801757812 59.9423828125 425.225585938 -37.4638671875 c 5
 295.005859375 -106.61328125 l 1
73 -82 m 0
 73 -143 11 -140 11 -160 c 1
 -85 -116 l 1
 -85 -60 -46 -13 3 -13 c 0
 43 -13 73 -41 73 -82 c 0
-85 -116 m 1
 11 -160 l 1
 11 -183 42 -205 85 -205 c 1
 85 -265 l 1
 -22 -265 -85 -203 -85 -116 c 1
EndSplineSet
EndChar

StartChar: z
Encoding: 122 122 63
Width: 575
VWidth: 1155
Flags: HMW
LayerCount: 2
Back
SplineSet
495 125 m 1
 461 66 383 -10 303 -10 c 0
 229.186523438 -10 182.7578125 39 137 39 c 0
 89 39 11 12 -21 -10 c 1
 -45 20 l 1
 89 82 177 110 227 110 c 0
 280.813476562 110 317.2421875 77 353 77 c 0
 395 77 436 116 459 153 c 1
 495 125 l 1
75 50 m 5
 -45 20 l 5
 435 470 l 5
 555 500 l 5
 75 50 l 5
45 395 m 1
 79 454 147 530 227 530 c 0
 320.813476562 530 327.2421875 471 383 471 c 0
 431 471 499 508 531 530 c 1
 555 500 l 1
 421 450 373 405 313 405 c 0
 249.186523438 405 233.7578125 448 178 448 c 0
 140 448 106 410 84 374 c 1
 45 395 l 1
EndSplineSet
Fore
SplineSet
75 50 m 5
 -55 30 l 1
 465 470 l 1
 600 495 l 1
 75 50 l 5
555 150 m 1
 521 81 443 -15 333 -15 c 0
 259.186523438 -15 182.7578125 39 137 39 c 0
 89 39 11 7 -21 -15 c 1
 -55 30 l 1
 89 82 217 142 267 142 c 0
 340.813476562 142 370.2421875 110 406 110 c 0
 448 110 481 138 504 185 c 1
 555 150 l 1
16 380 m 1
 50 439 127 535 217 535 c 0
 320.813476562 535 367.2421875 471 423 471 c 0
 471 471 539 513 571 535 c 1
 600 495 l 1
 466 455 353 385 293 385 c 0
 229.186523438 385 213.7578125 423 158 423 c 0
 120 423 86 385 64 349 c 1
 16 380 l 1
EndSplineSet
EndChar

StartChar: comma
Encoding: 44 44 65
Width: 215
Flags: HMW
LayerCount: 2
Back
SplineSet
125 24 m 5
 125 -66 27 -156 -63 -156 c 5
 -63 -116 l 5
 -8 -116 82 -49 76 11 c 5
 92.365234375 16.9150390625 96.7646484375 78.1123046875 125 24 c 5
-11 49 m 4
 -11 82 18 108 56 108 c 4
 95 108 125 77 125 24 c 4
 125 9.2919921875 99.0439453125 28.44140625 91 19.107421875 c 4
 67.5068359375 -8.15625 60.2919921875 -10 42 -10 c 4
 9 -10 -11 16 -11 49 c 4
EndSplineSet
Fore
SplineSet
160 29 m 1
 160 -68 57 -156 -43 -156 c 1
 -43 -106 l 1
 22 -106 107 -44 101 16 c 1
 117.365234375 21.9150390625 131.764648438 83.1123046875 160 29 c 1
-16 61 m 4
 -16 108 23 143 71 143 c 0
 120 143 160 102 160 29 c 0
 160 14.2919921875 134.043945312 33.44140625 126 24.107421875 c 0
 102.506835938 -3.15625 76.2919921875 -15 48 -15 c 0
 10 -15 -16 18 -16 61 c 4
EndSplineSet
EndChar

StartChar: exclam
Encoding: 33 33 67
Width: 325
Flags: HMW
LayerCount: 2
Back
SplineSet
234 659 m 4
 182 483 125 358 90 208 c 5
 52 208 l 5
 87 358 86 483 116 659 c 4
 118 666 119 672 120 678 c 4
 131 724 151 758 198 758 c 4
 245 758 250 724 239 678 c 4
 238 672 236 666 234 659 c 4
-25 49 m 4
 -17 82 15 108 48 108 c 4
 81 108 101 82 93 49 c 4
 85 16 53 -10 20 -10 c 4
 -13 -10 -33 16 -25 49 c 4
EndSplineSet
Fore
SplineSet
285 637 m 0
 232 469 174 371 138 225 c 1
 97 225 l 1
 133 371 109 494 145 675 c 0
 153 715 173 759 223 759 c 0
 275 759 295 724 295 692 c 0
 295 674 290 653 285 637 c 0
EndSplineSet
Refer: 1 46 N 1 0 0 1 40 0 2
EndChar

StartChar: quotesingle
Encoding: 39 39 70
Width: 227
Flags: HMW
LayerCount: 2
Fore
SplineSet
134 488 m 1
 96 488 l 1
 108 568 90 615.969726562 90 682 c 0
 90 731 129 763 175 763 c 0
 211 763 237 739 237 697 c 4
 237 628 145 582 134 488 c 1
EndSplineSet
EndChar

StartChar: question
Encoding: 63 63 75
Width: 550
Flags: HMW
LayerCount: 2
Back
SplineSet
179 662 m 5
 179 632 210 631 210 580 c 4
 210 538 177 520 142 520 c 4
 107 520 75 543 75 591 c 5
 179 662 l 5
75 591 m 5
 75 683 169 760 321 760 c 4
 452 760 520 700 520 590 c 5
 429 600 l 5
 429 674 380 713 301 713 c 4
 237 713 179 684 179 662 c 5
 75 591 l 5
285 226.01171875 m 5
 255.454101562 199.176757812 221.159179688 196.23046875 201.236328125 196.23046875 c 4
 140.798828125 196.23046875 105 233.051757812 105 285.01171875 c 4
 105 412.845703125 429 432.737304688 429 600 c 5
 520 590 l 5
 520 362.944335938 175.484375 364.557617188 175.484375 283.689453125 c 4
 175.484375 267.388671875 186.681640625 253.1015625 210.245117188 253.1015625 c 4
 224.125976562 253.1015625 252.297851562 255.977539062 275 283.01171875 c 5
 285 226.01171875 l 5
EndSplineSet
Fore
SplineSet
189 655 m 1
 189 635 230 631 230 570 c 0
 230 518 187 490 142 490 c 0
 97 490 55 523 55 581 c 1
 189 655 l 1
55 581 m 1
 55 683 159 765 321 765 c 0
 472 765 540 700 540 590 c 1
 409 600 l 1
 409 674 360 698 301 698 c 0
 237 698 189 672 189 655 c 1
 55 581 l 1
285 216.01171875 m 1
 255.454101562 189.176757812 221.159179688 186.23046875 201.236328125 186.23046875 c 0
 140.798828125 186.23046875 95 233.051757812 95 285.01171875 c 0
 95 442.845703125 409 432.737304688 409 600 c 1
 540 590 l 1
 540 362.944335938 175.484375 374.557617188 175.484375 293.689453125 c 0
 175.484375 277.388671875 186.681640625 263.1015625 210.245117188 263.1015625 c 0
 224.125976562 263.1015625 252.297851562 265.977539062 275 293.01171875 c 1
 285 216.01171875 l 1
EndSplineSet
Refer: 1 46 N 1 0 0 1 149 0 2
EndChar

StartChar: parenleft
Encoding: 40 40 76
Width: 435
Flags: HMW
LayerCount: 2
Fore
SplineSet
340 -110 m 1
 320 -170 l 1
 137 -108 50 52 50 235 c 0
 50 508 217 730 480 800 c 1
 500 740 l 1
 306 690 205 477 205 235 c 0
 205 83 226 -45 340 -110 c 1
EndSplineSet
EndChar

StartChar: at
Encoding: 64 64 79
Width: 1060
VWidth: 1155
Flags: HMW
LayerCount: 2
Fore
SplineSet
835 -64 m 5
 751 -162 632 -219 469 -219 c 4
 306 -219 45 -112 45 221 c 5
 190 231 l 5
 190 -71 361 -154 495 -154 c 4
 599 -154 696 -113 786 -15 c 5
 835 -64 l 5
822 520 m 5
 750 210 l 5
 620 210 l 5
 692 520 l 5
 822 520 l 5
673 359 m 4
 673 192.828125 604 70 484 70 c 4
 375 70 314 125.583984375 314 230 c 4
 314 380 409 529 568 529 c 4
 669 529 673 461 673 359 c 4
644 346 m 4
 644 387.927734375 650 468 584 468 c 4
 510 468 455 364 455 240 c 4
 455 173.072265625 460 132 514 132 c 4
 575 132 644 218 644 346 c 4
620 210 m 5
 750 210 l 5
 748 197 736 145 778 145 c 4
 879 145 937 271 937 425 c 5
 1010 421 l 5
 1010 261 912 70 741 70 c 4
 642 70 607 148 620 210 c 5
937 425 m 5
 937 602 786 732 602 732 c 4
 368 732 190 503 190 231 c 5
 45 221 l 5
 45 554 292 795 585 795 c 4
 858 795 1010 604 1010 421 c 5
 937 425 l 5
EndSplineSet
EndChar

StartChar: dollar
Encoding: 36 36 80
Width: 678
Flags: HMW
LayerCount: 2
Back
SplineSet
439 835 m 5
 509 835 l 5
 249 -85 l 5
 179 -85 l 5
 439 835 l 5
104 130 m 5
 15 176 l 5
 15 224 50 252 79 252 c 4
 106 252 136 231 136 194 c 4
 136 158 104 153 104 130 c 5
554 635 m 5
 643 579 l 5
 643 531 608 513 579 513 c 4
 552 513 522 534 522 571 c 4
 522 607 554 612 554 635 c 5
15 176 m 5
 104 130 l 5
 104 101 135 42 279 42 c 4
 415 42 489 121 489 190 c 5
 579 205 l 5
 579 65 460 -10 279 -10 c 4
 83 -10 15 86 15 176 c 5
149 565 m 5
 239 575 l 5
 239 405 579 455 579 205 c 5
 489 190 l 5
 489 390 149 325 149 565 c 5
643 579 m 5
 554 635 l 5
 554 664 523 709 429 709 c 4
 323 709 239 664 239 575 c 5
 149 565 l 5
 149 685 278 760 419 760 c 4
 545 760 643 699 643 579 c 5
EndSplineSet
Fore
SplineSet
439 835 m 1
 509 835 l 1
 249 -85 l 1
 179 -85 l 1
 439 835 l 1
104 130 m 1
 0 176 l 1
 0 234 40 267 79 267 c 0
 116 267 151 241 151 194 c 0
 151 158 104 153 104 130 c 1
549 645 m 5
 658 579 l 1
 658 521 618 498 579 498 c 0
 542 498 507 524 507 571 c 0
 507 607 549 622 549 645 c 5
0 176 m 1
 104 130 l 1
 104 101 135 52 279 52 c 0
 415 52 469 121 469 190 c 1
 599 215 l 1
 599 65 460 -15 279 -15 c 0
 83 -15 0 86 0 176 c 1
129 555 m 1
 259 575 l 1
 259 405 599 475 599 215 c 1
 469 190 l 1
 469 390 129 305 129 555 c 1
658 579 m 1
 549 645 l 5
 549 674 523 699 429 699 c 0
 323 699 259 664 259 575 c 1
 129 555 l 1
 129 685 278 765 419 765 c 0
 545 765 658 699 658 579 c 1
EndSplineSet
EndChar

StartChar: numbersign
Encoding: 35 35 81
Width: 660
Flags: HMW
LayerCount: 2
Fore
SplineSet
-30 285 m 1
 620 285 l 1
 620 220 l 1
 -30 220 l 1
 -30 285 l 1
40 545 m 1
 690 545 l 1
 690 480 l 1
 40 480 l 1
 40 545 l 1
523 805 m 1
 590 805 l 5
 350 -55 l 5
 283 -55 l 1
 523 805 l 1
295 805 m 1
 362 805 l 1
 122 -55 l 1
 55 -55 l 1
 295 805 l 1
EndSplineSet
EndChar

StartChar: slash
Encoding: 47 47 82
Width: 520
Flags: HMW
LayerCount: 2
Fore
SplineSet
461 780 m 1
 550 780 l 1
 44 -150 l 5
 -50 -150 l 1
 461 780 l 1
EndSplineSet
EndChar

StartChar: percent
Encoding: 37 37 83
Width: 1010
Flags: HMW
LayerCount: 2
Back
SplineSet
625 140 m 4
 625 78 639 40 683 40 c 4
 777 40 835 158 835 280 c 4
 835 342 821 380 777 380 c 4
 683 380 625 262 625 140 c 4
520 160 m 4
 520 323 647 430 780 430 c 4
 863 430 940 383 940 260 c 4
 940 97 793 -10 680 -10 c 4
 597 -10 520 37 520 160 c 4
776 750 m 5
 850 750 l 5
 239 0 l 5
 160 0 l 5
 776 750 l 5
175 470 m 4
 175 408 189 370 233 370 c 4
 327 370 385 488 385 610 c 4
 385 672 371 710 327 710 c 4
 233 710 175 592 175 470 c 4
70 490 m 4
 70 653 197 760 330 760 c 4
 413 760 490 713 490 590 c 4
 490 427 343 320 230 320 c 4
 147 320 70 367 70 490 c 4
EndSplineSet
Fore
SplineSet
655 160 m 4
 655 98 659 40 693 40 c 4
 757 40 805 138 805 260 c 4
 805 322 801 380 767 380 c 4
 703 380 655 282 655 160 c 4
510 160 m 4
 510 323 647 435 780 435 c 4
 863 435 950 383 950 260 c 4
 950 97 793 -15 680 -15 c 4
 597 -15 510 37 510 160 c 4
776 750 m 5
 850 750 l 5
 239 0 l 5
 160 0 l 5
 776 750 l 5
205 490 m 4
 205 428 209 370 243 370 c 4
 307 370 355 468 355 590 c 4
 355 652 351 710 317 710 c 4
 253 710 205 612 205 490 c 4
60 490 m 4
 60 653 197 765 330 765 c 4
 413 765 500 713 500 590 c 4
 500 427 343 315 230 315 c 4
 147 315 60 367 60 490 c 4
EndSplineSet
EndChar

StartChar: hyphen
Encoding: 45 45 85
Width: 460
Flags: HMW
LayerCount: 2
Fore
SplineSet
70 425 m 5
 410 425 l 5
 410 350 l 1
 70 350 l 1
 70 425 l 5
EndSplineSet
EndChar

StartChar: plus
Encoding: 43 43 87
Width: 530
Flags: HMW
LayerCount: 2
Fore
SplineSet
176 110 m 5
 276 520 l 5
 354 520 l 1
 254 110 l 1
 176 110 l 5
60 353 m 1
 470 353 l 1
 470 278 l 1
 60 278 l 1
 60 353 l 1
EndSplineSet
EndChar

StartChar: less
Encoding: 60 60 89
Width: 560
Flags: HMW
LayerCount: 2
Back
SplineSet
55 365 m 5
 70 430 l 5
 549 600 l 5
 534 535 l 5
 55 365 l 5
50 345 m 5
 65 410 l 5
 466 240 l 5
 451 175 l 5
 50 345 l 5
EndSplineSet
Fore
SplineSet
60 363 m 1
 60 445 l 1
 550 600 l 1
 550 513 l 1
 60 363 l 1
60 325 m 1
 60 418 l 1
 450 272 l 5
 450 175 l 1
 60 325 l 1
EndSplineSet
EndChar

StartChar: backslash
Encoding: 92 92 91
Width: 520
Flags: HMW
LayerCount: 2
Fore
SplineSet
214 780 m 1
 420 -150 l 1
 321 -150 l 5
 120 780 l 1
 214 780 l 1
EndSplineSet
EndChar

StartChar: bracketleft
Encoding: 91 91 92
Width: 345
Flags: HMW
LayerCount: 2
Fore
SplineSet
215 -150 m 1
 -55 -150 l 1
 -35 -75 l 5
 215 -75 l 5
 215 -150 l 1
405 705 m 1
 145 705 l 1
 145 780 l 1
 405 780 l 1
 405 705 l 1
275 780 m 1
 75 -150 l 1
 -55 -150 l 1
 145 780 l 1
 275 780 l 1
EndSplineSet
EndChar

StartChar: braceleft
Encoding: 123 123 93
Width: 272
VWidth: 1155
Flags: HMW
LayerCount: 2
Back
SplineSet
322 780 m 5
 322 733 l 5
 260 733 198 700 198 647 c 4
 198 581 222 571 222 471 c 4
 222 358 159 310 45 290 c 5
 45 340 l 5
 75 350 131 365 131 406 c 4
 131 469 105 494 105 601 c 4
 105 690 157 780 322 780 c 5
152 -150 m 5
 7 -150 -35 -109 -35 -10 c 4
 -35 107 85 172 85 235 c 4
 85 276 75 280 45 290 c 5
 45 340 l 5
 119 320 152 303 152 220 c 4
 152 120 58 50 58 -16 c 4
 58 -79 90 -103 152 -103 c 5
 152 -150 l 5
EndSplineSet
Fore
SplineSet
362 780 m 1
 362 713 l 1
 300 713 228 695 228 642 c 4
 228 576 242 571 242 471 c 0
 242 358 159 300 45 280 c 1
 45 350 l 1
 75 360 131 375 131 416 c 0
 131 479 105 494 105 601 c 0
 105 710 167 780 362 780 c 1
192 -150 m 1
 47 -150 -35 -129 -35 -10 c 0
 -35 107 85 162 85 225 c 0
 85 266 75 270 45 280 c 1
 45 350 l 1
 119 330 172 303 172 220 c 0
 172 120 98 60 98 -6 c 0
 98 -69 130 -83 192 -83 c 1
 192 -150 l 1
EndSplineSet
EndChar

StartChar: bar
Encoding: 124 124 96
Width: 300
VWidth: 1155
Flags: HMW
LayerCount: 2
Fore
SplineSet
190 780 m 5
 280 780 l 5
 40 -250 l 5
 -50 -250 l 5
 190 780 l 5
EndSplineSet
EndChar

StartChar: cent
Encoding: 162 162 98
Width: 570
VWidth: 1155
Flags: HMW
LayerCount: 2
Fore
SplineSet
330.25390625 615 m 1
 395.25390625 615 l 5
 215.25390625 -85 l 5
 150.25390625 -85 l 1
 330.25390625 615 l 1
EndSplineSet
Refer: 40 99 N 1 0 0 1 0 0 2
EndChar

StartChar: sterling
Encoding: 163 163 99
Width: 530
VWidth: 1155
Flags: HMW
LayerCount: 2
Fore
SplineSet
417.6171875 395 m 1
 404.919921875 320 l 1
 -45.080078125 320 l 1
 -32.3828125 395 l 1
 417.6171875 395 l 1
511.979492188 157 m 1
 478.50390625 12 377.806640625 -35 288.806640625 -35 c 0
 151.806640625 -35 120.659179688 25 57.6591796875 25 c 0
 16.6591796875 25 -2.9580078125 10 -19.8837890625 -20 c 1
 -48.8837890625 -20 l 1
 -11.7998046875 54 75.126953125 127 158.126953125 127 c 0
 258.126953125 127 250.27734375 83 326.27734375 83 c 0
 379.27734375 83 430.666015625 95 444.979492188 157 c 1
 511.979492188 157 l 1
507.567382812 662 m 5
 633.639648438 586 l 1
 617.557617188 528 573.40234375 500 534.40234375 500 c 0
 497.40234375 500 449.430533657 530.249481037 450.791992188 578 c 4
 452.398681718 634.351520949 502.2578125 639 507.567382812 662 c 5
633.639648438 586 m 1
 507.567382812 662 l 5
 513.801757812 689 487.49609375 713 413.49609375 713 c 0
 294.49609375 713 259.103515625 634 242.01953125 560 c 1
 88.7109375 550 l 1
 121.032226562 690 262.193359375 765 423.193359375 765 c 0
 575.193359375 765 652.5703125 668 633.639648438 586 c 1
88.7109375 550 m 1
 242.01953125 560 l 1
 219.163085938 461 259.92578125 395 242.611328125 320 c 0
 201.0546875 140 34.826171875 165 -24.8837890625 -20 c 1
 -68.8837890625 -20 l 1
 -55.7939453125 119 108.213867188 197 122.989257812 261 c 0
 149.30859375 375 62.1611328125 435 88.7109375 550 c 1
EndSplineSet
EndChar

StartChar: section
Encoding: 167 167 101
Width: 534
VWidth: 1155
Flags: HMW
LayerCount: 2
Back
SplineSet
101 608 m 5
 185 634 l 5
 158 518 506 538 468 375 c 4
 456 323 421 276 359 240 c 5
 319 260 l 5
 348 282 368 313 375 343 c 4
 405 474 59 426 101 608 c 5
47 102 m 5
 -31 148 l 5
 -20 196 21 224 50 224 c 4
 77 224 103 203 94 166 c 4
 86 130 52 125 47 102 c 5
406 142 m 5
 322 116 l 5
 349 232 -9 212 29 375 c 4
 46 447 86 474 148 510 c 5
 178 490 l 5
 171 478 141 447 132 407 c 4
 102 276 448 324 406 142 c 5
-31 148 m 5
 47 102 l 5
 39 69 115 41 167 41 c 4
 230 41 311 69 322 116 c 5
 406 142 l 5
 382 38 261 -10 156 -10 c 4
 48 -10 -58 32 -31 148 c 5
422 658 m 5
 501 612 l 5
 490 564 448 536 419 536 c 4
 392 536 367 557 376 594 c 4
 384 630 417 635 422 658 c 5
501 612 m 5
 422 658 l 5
 430 691 372 709 320 709 c 4
 257 709 196 681 185 634 c 5
 101 608 l 5
 125 712 226 760 321 760 c 4
 429 760 525 718 501 612 c 5
EndSplineSet
Fore
SplineSet
90.7919921875 608 m 1
 204.794921875 634 l 1
 178.013671875 538 505.631835938 538 468 375 c 0
 455.995117188 323 421.14453125 276 358.833007812 240 c 1
 309.450195312 260 l 5
 338.529296875 282 366.518530422 313.293817747 374.612304688 343 c 0
 404.85546875 454 48.7744140625 426 90.7919921875 608 c 1
46.97265625 102 m 1
 -51.4072265625 148 l 1
 -40.3251953125 196 1.138671875 224 50.138671875 224 c 0
 77.138671875 224 112.291015625 203 103.749023438 166 c 0
 95.4375 130 52.283203125 125 46.97265625 102 c 1
416.208007812 142 m 1
 312.205078125 116 l 1
 338.986328125 212 -8.6318359375 212 29 375 c 0
 45.6220703125 447 85.85546875 474 148.166992188 510 c 1
 187.549804688 490 l 1
 180.779296875 478 143.179394333 446.608243004 132.387695312 407 c 0
 102.14453125 296 458.225585938 324 416.208007812 142 c 1
-51.4072265625 148 m 1
 46.97265625 102 l 1
 39.3544921875 69 114.889648438 46 166.889648438 46 c 0
 229.889648438 46 301.354492188 69 312.205078125 116 c 1
 416.208007812 142 l 1
 382.197265625 38 291.116210938 -15 156.116210938 -15 c 0
 48.1162109375 -15 -78.1875 32 -51.4072265625 148 c 1
410.3359375 658 m 1
 510.715820312 612 l 1
 499.633789062 564 468.169921875 526 419.169921875 526 c 0
 382.169921875 526 354.347337073 546.045112417 355.560546875 594 c 0
 356.597981433 635.006969718 405.025390625 635 410.3359375 658 c 1
510.715820312 612 m 1
 410.3359375 658 l 1
 417.954101562 691 372.110351562 704 320.110351562 704 c 0
 267.110351562 704 215.645507812 681 204.794921875 634 c 1
 90.7919921875 608 l 1
 114.802734375 712 225.883789062 765 320.883789062 765 c 0
 428.883789062 765 535.1875 718 510.715820312 612 c 1
EndSplineSet
EndChar

StartChar: brokenbar
Encoding: 166 166 102
Width: 300
VWidth: 1155
Flags: HMW
LayerCount: 2
Fore
SplineSet
47 166 m 5
 137 166 l 5
 40 -250 l 1
 -50 -250 l 1
 47 166 l 5
190 780 m 1
 280 780 l 1
 193 409.000976562 l 1
 103 409.000976562 l 1
 190 780 l 1
EndSplineSet
EndChar

StartChar: asciitilde
Encoding: 126 126 104
Width: 688
VWidth: 1155
Flags: HMW
LayerCount: 2
Back
SplineSet
243 437 m 4
 180 437 137 385 137 343 c 5
 80 343 l 5
 90 438 170 510 269 510 c 4
 369 510 369 416 445 416 c 4
 508 416 551 468 551 510 c 5
 608 510 l 5
 598 415 518 343 419 343 c 4
 302 343 306 437 243 437 c 4
EndSplineSet
Fore
SplineSet
243 427 m 0
 180 427 137 385 137 343 c 1
 80 343 l 1
 90 438 170 520 269 520 c 0
 369 520 369 426 445 426 c 0
 508 426 551 468 551 510 c 1
 608 510 l 1
 598 415 518 333 419 333 c 0
 302 333 306 427 243 427 c 0
EndSplineSet
EndChar

StartChar: copyright
Encoding: 169 169 105
Width: 870
Flags: HMW
LayerCount: 2
Back
SplineSet
27 375 m 4
 76.1748046875 588 293.883789062 760 510.883789062 760 c 4
 727.883789062 760 866.174804688 588 817 375 c 4
 767.825195312 162 550.116210938 -10 333.116210938 -10 c 4
 116.116210938 -10 -22.1748046875 162 27 375 c 4
87 375 m 4
 44.2890625 190 159.428710938 39 344.428710938 39 c 4
 529.428710938 39 714.2890625 190 757 375 c 4
 799.7109375 560 684.571289062 711 499.571289062 711 c 4
 314.571289062 711 129.7109375 560 87 375 c 4
EndSplineSet
Fore
SplineSet
20 285 m 4
 20 538 248 760 515 760 c 4
 692 760 830 638 830 465 c 4
 830 202 602 -10 335 -10 c 4
 158 -10 20 112 20 285 c 4
75 285 m 4
 75 140 200 39 335 39 c 4
 570 39 775 220 775 465 c 4
 775 610 660 711 515 711 c 4
 280 711 75 520 75 285 c 4
EndSplineSet
Refer: 14 67 N 0.6 0 0 0.6 182 150 2
EndChar

StartChar: registered
Encoding: 174 174 106
Width: 870
Flags: HMW
LayerCount: 2
Fore
SplineSet
20 285 m 0
 20 538 248 760 515 760 c 0
 692 760 830 638 830 465 c 0
 830 202 602 -10 335 -10 c 0
 158 -10 20 112 20 285 c 0
75 285 m 0
 75 140 200 39 335 39 c 0
 570 39 775 220 775 465 c 0
 775 610 660 711 515 711 c 0
 280 711 75 520 75 285 c 0
EndSplineSet
Refer: 29 82 S 0.6 0 0 0.6 188 148 2
EndChar

StartChar: guillemotleft
Encoding: 171 171 108
Width: 695
Flags: HMW
LayerCount: 2
Fore
SplineSet
430.900390625 387.5 m 5
 599.403320312 190 l 1
 559.014648438 145 l 1
 282.114257812 375 l 1
 287.885742188 400 l 1
 670.985351562 630 l 1
 690.596679688 585 l 1
 430.900390625 387.5 l 5
150.900390625 387.5 m 1
 319.403320312 190 l 1
 279.014648438 145 l 1
 2.1142578125 375 l 1
 7.8857421875 400 l 1
 390.985351562 630 l 1
 410.596679688 585 l 1
 150.900390625 387.5 l 1
EndSplineSet
EndChar

StartChar: mu
Encoding: 181 181 111
Width: 754
VWidth: 1155
Flags: HMW
LayerCount: 2
Fore
SplineSet
156 -143 m 4
 189 -143 212 -167 212 -201 c 4
 212 -236 169 -260 131 -260 c 5
 102 -162 l 5
 122 -162 121 -143 156 -143 c 4
15 -122 m 5
 152 321 l 1
 212 321 l 1
 75 -119 l 5
 15 -122 l 5
15 -122 m 5
 75 -119 l 5
 65 -156 89 -162 102 -162 c 5
 131 -260 l 5
 59 -260 -5 -211 15 -122 c 5
EndSplineSet
Refer: 58 117 N 1 0 0 1 0 0 2
EndChar

StartChar: asciicircum
Encoding: 94 94 113
Width: 545
Flags: HMW
LayerCount: 2
Back
SplineSet
329 770 m 5
 323 743 l 5
 258 743 l 5
 264 770 l 5
 329 770 l 5
250 750 m 5
 329 770 l 5
 475 580 l 5
 436 560 l 5
 250 750 l 5
264 770 m 5
 335 750 l 5
 61 560 l 5
 30 580 l 5
 264 770 l 5
EndSplineSet
Fore
SplineSet
425 770 m 1
 425 743 l 1
 320 743 l 1
 320 770 l 1
 425 770 l 1
310 753 m 1
 425 770 l 1
 555 580 l 1
 510 550 l 5
 310 753 l 1
320 770 m 1
 435 747 l 1
 155 550 l 1
 110 580 l 1
 320 770 l 1
EndSplineSet
EndChar

StartChar: degree
Encoding: 176 176 115
Width: 320
Flags: HMW
LayerCount: 2
Fore
SplineSet
120 680 m 4
 120 746 174 800 240 800 c 4
 306 800 360 746 360 680 c 4
 360 614 306 560 240 560 c 4
 174 560 120 614 120 680 c 4
175 680 m 4
 175 643 203 615 240 615 c 4
 277 615 305 643 305 680 c 4
 305 717 277 745 240 745 c 4
 203 745 175 717 175 680 c 4
EndSplineSet
EndChar

StartChar: onequarter
Encoding: 188 188 119
Width: 1000
Flags: HMW
LayerCount: 2
Fore
SplineSet
701 750 m 1
 765 750 l 1
 304 0 l 1
 235 0 l 1
 701 750 l 1
EndSplineSet
Refer: 6 52 S 0.6 0 0 0.6 535 32 2
Refer: 3 49 N 0.6 0 0 0.6 107 456 2
EndChar

StartChar: onehalf
Encoding: 189 189 120
Width: 1000
Flags: HMW
LayerCount: 2
Fore
SplineSet
701 750 m 1
 765 750 l 1
 304 0 l 1
 235 0 l 1
 701 750 l 1
EndSplineSet
Refer: 4 50 S 0.6 0 0 0.6 576 17 2
Refer: 3 49 N 0.6 0 0 0.6 107 456 2
EndChar

StartChar: threequarters
Encoding: 190 190 121
Width: 1000
Flags: HMW
LayerCount: 2
Fore
SplineSet
701 750 m 1
 765 750 l 1
 304 0 l 1
 235 0 l 1
 701 750 l 1
EndSplineSet
Refer: 6 52 S 0.6 0 0 0.6 535 32 2
Refer: 5 51 N 0.6 0 0 0.6 65 457 2
EndChar

StartChar: grave
Encoding: 96 96 123
Width: 395
Flags: HMW
LayerCount: 2
Back
SplineSet
250 720 m 6
 231.021484375 720.643554688 215 736 215 755 c 4
 215 774 232.190429688 794.720703125 260 788 c 6
 500 730 l 5
 495 710 l 5
 250 720 l 6
EndSplineSet
Fore
SplineSet
261 700 m 6
 242.021484375 700.643554688 216 716 216 745 c 4
 216 774 243.598632812 796.1015625 271 788 c 6
 498 725 l 5
 496 695 l 5
 261 700 l 6
EndSplineSet
EndChar

StartChar: acute
Encoding: 180 180 124
Width: 395
Flags: HMW
LayerCount: 2
Fore
SplineSet
285 715 m 2
 50 710 l 1
 48 740 l 1
 275 803 l 2
 302.401367188 811.1015625 330 789 330 760 c 0
 330 731 303.978515625 715.643554688 285 715 c 2
EndSplineSet
EndChar

StartChar: multiply
Encoding: 215 215 127
Width: 530
Flags: HMW
LayerCount: 2
Fore
SplineSet
385.864257812 145.951171875 m 1
 145.951171875 435.865234375 l 1
 194.134765625 484.048828125 l 1
 434.048828125 194.134765625 l 1
 385.864257812 145.951171875 l 1
95.244140625 194.841796875 m 5
 435.157226562 484.755859375 l 5
 484.048828125 435.865234375 l 5
 144.134765625 145.951171875 l 5
 95.244140625 194.841796875 l 5
EndSplineSet
EndChar

StartChar: cedilla
Encoding: 184 184 128
Width: 550
Flags: HMW
LayerCount: 2
Fore
SplineSet
77 -99.01171875 m 1
 187 40.98828125 l 1
 277 40.98828125 l 1
 167 -99.01171875 l 1
 77 -99.01171875 l 1
77 -99.01171875 m 1
 137 -60 l 5
 268 -60 340 -90 340 -140 c 5
 249 -150 l 1
 249 -116.76171875 202 -99.01171875 77 -99.01171875 c 1
101 -198 m 1
 210 -208 249 -174 249 -150 c 1
 340 -140 l 5
 340 -190 292 -250 101 -240 c 5
 101 -198 l 1
EndSplineSet
EndChar

StartChar: AE
Encoding: 198 198 526
Width: 1197
Flags: HMW
LayerCount: 2
Fore
SplineSet
250 285 m 5
 640 285 l 5
 640 220 l 1
 250 220 l 1
 250 285 l 5
-70 75 m 1
 210 75 l 1
 210 0 l 1
 -70 0 l 1
 -70 75 l 1
696 750 m 1
 785 750 l 1
 49 0 l 1
 -45 0 l 1
 696 750 l 1
EndSplineSet
Refer: 16 69 N 1 0 0 1 460 0 2
EndChar

StartChar: ae
Encoding: 230 230 529
Width: 786
VWidth: 1155
Flags: HMW
LayerCount: 2
Back
SplineSet
361 250 m 5
 462 270 l 5
 462 146 497 39 606 39 c 4
 689 39 743 93 768 173 c 5
 819 173 l 5
 793 66 725 -10 594 -10 c 4
 443 -10 361 110 361 250 c 5
438 304 m 5
 762 304 l 5
 762 261 l 5
 438 261 l 5
 438 304 l 5
807 261 m 5
 762 261 l 5
 762 290 l 5
 807 290 l 5
 807 261 l 5
818 261 m 5
 726 261 l 5
 726 364 700 486 601 486 c 4
 492 486 462 374 462 270 c 5
 361 250 l 5
 361 410 440 530 601 530 c 4
 770 530 818 400 818 261 c 5
299 299 m 5
 299 261 l 5
 183 261 142 215 142 138 c 4
 142 71 190 46 240 46 c 4
 308 46 361 79 361 250 c 5
 395 179 l 5
 395 55 326 -10 195 -10 c 4
 106 -10 40 39 40 123 c 4
 40 217 127 299 299 299 c 5
451 367 m 5
 451 271 l 5
 361 273 l 5
 361 377 l 5
 451 367 l 5
70 403 m 5
 70 480 162 530 283 530 c 4
 423 530 451 448 451 367 c 5
 361 367 l 5
 361 434 338 484 258 484 c 4
 204 484 156 465 156 445 c 5
 70 403 l 5
299 299 m 5
 413 299 l 5
 413 261 l 5
 299 261 l 5
 299 299 l 5
184 393 m 4
 184 359 163 340 129 340 c 4
 98 340 70 359 70 403 c 5
 156 445 l 5
 156 427 184 432 184 393 c 4
EndSplineSet
Fore
SplineSet
859 422 m 1
 859 242 551 212 440 212 c 0
 379.071289062 212 438 266 438 266 c 1
 527 266 723 278 723 422 c 1
 859 422 l 1
409 210 m 1
 481 170 l 1
 481 96 507 54 556 54 c 0
 639 54 703 113 742 173 c 1
 810 173 l 1
 763 83 676 -15 525 -15 c 0
 432.898239631 -15 343.2421875 22.66015625 370 93.5693359375 c 1
 362.708007812 115.818359375 409 181.340820312 409 210 c 1
859 422 m 1
 723 422 l 1
 723 461 705 473 676 473 c 0
 587 473 481 334 481 170 c 1
 409 210 l 1
 409 308.439453125 432 334 436.075195312 394 c 1
 452.559570312 470.73046875 570.463867188 535 676 535 c 0
 778 535 859 494 859 422 c 1
447 330 m 0
 447 172 358 -15 187 -15 c 0
 98 -15 15 40 15 180 c 0
 15 410 178 534 297 534 c 0
 418 534 447 452 447 330 c 0
403 320 m 0
 403 404 386 463 325 463 c 0
 241 463 155 354 155 180 c 0
 155 106 180 59 232 59 c 0
 323 59 403 206 403 320 c 0
EndSplineSet
EndChar

StartChar: perthousand
Encoding: 8240 8240 537
Width: 1490
Flags: HMW
LayerCount: 2
Back
SplineSet
1090 140 m 4
 1090 78 1104 40 1148 40 c 4
 1242 40 1300 158 1300 280 c 4
 1300 342 1286 380 1242 380 c 4
 1148 380 1090 262 1090 140 c 4
985 160 m 4
 985 323 1112 430 1245 430 c 4
 1328 430 1405 383 1405 260 c 4
 1405 97 1258 -10 1145 -10 c 4
 1062 -10 985 37 985 160 c 4
620 140 m 4
 620 78 634 40 678 40 c 4
 772 40 830 158 830 280 c 4
 830 342 816 380 772 380 c 4
 678 380 620 262 620 140 c 4
515 160 m 4
 515 323 642 430 775 430 c 4
 858 430 935 383 935 260 c 4
 935 97 788 -10 675 -10 c 4
 592 -10 515 37 515 160 c 4
781 750 m 5
 845 750 l 5
 224 0 l 5
 155 0 l 5
 781 750 l 5
170 470 m 4
 170 408 184 370 228 370 c 4
 322 370 380 488 380 610 c 4
 380 672 366 710 322 710 c 4
 228 710 170 592 170 470 c 4
65 490 m 4
 65 653 192 760 325 760 c 4
 408 760 485 713 485 590 c 4
 485 427 338 320 225 320 c 4
 142 320 65 367 65 490 c 4
EndSplineSet
Fore
SplineSet
1135 160 m 4
 1135 98 1139 40 1173 40 c 4
 1237 40 1285 138 1285 260 c 4
 1285 322 1281 380 1247 380 c 4
 1183 380 1135 282 1135 160 c 4
990 160 m 4
 990 323 1127 435 1260 435 c 4
 1343 435 1430 383 1430 260 c 4
 1430 97 1273 -15 1160 -15 c 4
 1077 -15 990 37 990 160 c 4
655 160 m 4
 655 98 659 40 693 40 c 4
 757 40 805 138 805 260 c 4
 805 322 801 380 767 380 c 4
 703 380 655 282 655 160 c 4
510 160 m 4
 510 323 647 435 780 435 c 4
 863 435 950 383 950 260 c 4
 950 97 793 -15 680 -15 c 4
 597 -15 510 37 510 160 c 4
776 750 m 5
 850 750 l 5
 239 0 l 5
 160 0 l 5
 776 750 l 5
205 490 m 4
 205 428 209 370 243 370 c 4
 307 370 355 468 355 590 c 4
 355 652 351 710 317 710 c 4
 253 710 205 612 205 490 c 4
60 490 m 4
 60 653 197 765 330 765 c 4
 413 765 500 713 500 590 c 4
 500 427 343 315 230 315 c 4
 147 315 60 367 60 490 c 4
EndSplineSet
EndChar

StartChar: uni2031
Encoding: 8241 8241 538
Width: 1970
Flags: HMW
LayerCount: 2
Fore
SplineSet
1615 160 m 0
 1615 98 1619 40 1653 40 c 0
 1717 40 1765 138 1765 260 c 0
 1765 322 1761 380 1727 380 c 0
 1663 380 1615 282 1615 160 c 0
1470 160 m 0
 1470 323 1607 435 1740 435 c 0
 1823 435 1910 383 1910 260 c 0
 1910 97 1753 -15 1640 -15 c 0
 1557 -15 1470 37 1470 160 c 0
1135 160 m 0
 1135 98 1139 40 1173 40 c 0
 1237 40 1285 138 1285 260 c 0
 1285 322 1281 380 1247 380 c 0
 1183 380 1135 282 1135 160 c 0
990 160 m 0
 990 323 1127 435 1260 435 c 0
 1343 435 1430 383 1430 260 c 0
 1430 97 1273 -15 1160 -15 c 0
 1077 -15 990 37 990 160 c 0
655 160 m 0
 655 98 659 40 693 40 c 0
 757 40 805 138 805 260 c 0
 805 322 801 380 767 380 c 0
 703 380 655 282 655 160 c 0
510 160 m 0
 510 323 647 435 780 435 c 0
 863 435 950 383 950 260 c 0
 950 97 793 -15 680 -15 c 0
 597 -15 510 37 510 160 c 0
776 750 m 1
 850 750 l 1
 239 0 l 1
 160 0 l 1
 776 750 l 1
205 490 m 0
 205 428 209 370 243 370 c 0
 307 370 355 468 355 590 c 0
 355 652 351 710 317 710 c 0
 253 710 205 612 205 490 c 0
60 490 m 0
 60 653 197 765 330 765 c 0
 413 765 500 713 500 590 c 0
 500 427 343 315 230 315 c 0
 147 315 60 367 60 490 c 0
EndSplineSet
EndChar

StartChar: uniFB00
Encoding: 64256 64256 542
Width: 775
VWidth: 1155
Flags: HMW
LayerCount: 2
Back
SplineSet
891 689 m 5
 795 728 l 5
 795 740 777 755 725 755 c 4
 645 755 606 687 576 560 c 5
 486 582 l 5
 516 713 593 800 723 800 c 4
 824 800 891 746 891 689 c 5
486 582 m 5
 576 560 l 5
 434 -100 l 5
 344 -100 l 5
 486 582 l 5
774 671 m 4
 774 701 795 708 795 728 c 5
 891 689 l 5
 891 646 867 623 832 623 c 4
 797 623 774 643 774 671 c 4
146 552 m 5
 236 530 l 5
 95 -150 l 5
 5 -150 l 5
 146 552 l 5
551 659 m 5
 455 698 l 5
 455 710 437 725 385 725 c 4
 305 725 266 657 236 530 c 5
 146 552 l 5
 176 683 253 770 383 770 c 4
 484 770 551 716 551 659 c 5
434 641 m 4
 434 671 455 678 455 698 c 5
 551 659 l 5
 551 616 527 593 492 593 c 4
 457 593 434 613 434 641 c 4
50 520 m 5
 702 520 l 5
 702 465 l 5
 50 465 l 5
 50 520 l 5
EndSplineSet
Fore
SplineSet
849 718 m 1
 980 674 l 1
 980 606 931 577 887 577 c 0
 849 577 812 598 812 645 c 0
 812 701 849 706 849 718 c 1
525 572 m 1
 655 550 l 1
 525 -100 l 1
 395 -100 l 1
 525 572 l 1
980 674 m 1
 849 718 l 1
 849 730 826 740 794 740 c 0
 714 740 685 677 655 550 c 1
 525 572 l 1
 555 703 632 800 792 800 c 0
 933 800 980 721 980 674 c 1
480 688 m 5
 611 644 l 5
 611 576 562 547 518 547 c 4
 480 547 443 568 443 615 c 4
 443 671 480 676 480 688 c 5
136 542 m 5
 266 520 l 5
 130 -150 l 5
 0 -150 l 5
 136 542 l 5
611 644 m 5
 480 688 l 5
 480 700 447 710 415 710 c 4
 335 710 296 647 266 520 c 5
 136 542 l 5
 166 673 233 770 413 770 c 4
 564 770 611 691 611 644 c 5
45 520 m 5
 775 520 l 5
 775 455 l 5
 45 455 l 5
 45 520 l 5
EndSplineSet
LCarets2: 1 0
Ligature2: "Not your mama's contextual ligatures" f f
EndChar

StartChar: uniFB01
Encoding: 64257 64257 543
Width: 713
VWidth: 1155
Flags: HMW
LayerCount: 2
Back
SplineSet
586 113 m 5
 553 23 510 -10 458 -10 c 4
 410.6953125 -10 377.005859375 13.5537109375 377.005859375 63.38671875 c 4
 377.005859375 68.5849609375 377.690429688 79.1083984375 379 85 c 6
 478 520 l 5
 570 520 l 5
 468 71 l 6
 467.470703125 68.7021484375 467.225585938 64.548828125 467.225585938 62.5361328125 c 4
 467.225585938 51.1416015625 473.619140625 46 487 46 c 4
 501 46 533 68 552 124 c 5
 586 113 l 5
390 520 m 5
 480 520 l 5
 480 465 l 5
 390 465 l 5
 390 520 l 5
150 572 m 5
 240 550 l 5
 95 -150 l 5
 5 -150 l 5
 150 572 l 5
585 679 m 5
 489 718 l 5
 489 730 461 745 409 745 c 4
 329 745 270 677 240 550 c 5
 150 572 l 5
 180 703 277 790 407 790 c 4
 508 790 585 736 585 679 c 5
468 661 m 4
 468 691 489 698 489 718 c 5
 585 679 l 5
 585 636 561 613 526 613 c 4
 491 613 468 633 468 661 c 4
50 520 m 5
 390 520 l 5
 390 465 l 5
 50 465 l 5
 50 520 l 5
EndSplineSet
Fore
SplineSet
625 520 m 5
 531 119 l 6
 529.599609375 113.094726562 529 106 529 101 c 4
 529 90 534 82 547 82 c 4
 583 82 609 115 635 176 c 5
 688 163 l 5
 652 43 561 -15 480 -15 c 4
 433 -15 395 8 395 58 c 4
 395 77 398.448242188 94.6845703125 402 110 c 6
 497.076171875 520 l 5
 625 520 l 5
489 718 m 5
 620 674 l 5
 620 606 571 577 527 577 c 4
 489 577 452 598 452 645 c 4
 452 701 489 706 489 718 c 5
145 572 m 5
 275 550 l 5
 130 -150 l 5
 0 -150 l 5
 145 572 l 5
620 674 m 5
 489 718 l 5
 489 730 456 740 424 740 c 4
 344 740 305 677 275 550 c 5
 145 572 l 5
 175 703 252 800 422 800 c 4
 573 800 620 721 620 674 c 5
45 520 m 5
 505 520 l 5
 505 455 l 5
 45 455 l 5
 45 520 l 5
EndSplineSet
LCarets2: 1 0
Ligature2: "Not your mama's contextual ligatures" f i
EndChar

StartChar: uniFB02
Encoding: 64258 64258 544
Width: 743
VWidth: 1155
Flags: HMW
LayerCount: 2
Back
SplineSet
616 113 m 5
 583 23 540 -10 488 -10 c 4
 440.6953125 -10 407.005859375 13.5537109375 407.005859375 63.38671875 c 4
 407.005859375 68.5849609375 407.690429688 79.1083984375 409 85 c 6
 546 730 l 5
 652 800 l 5
 498 71 l 6
 497.470703125 68.7021484375 497.225585938 64.548828125 497.225585938 62.5361328125 c 4
 497.225585938 51.1416015625 503.619140625 46 517 46 c 4
 531 46 563 68 582 124 c 5
 616 113 l 5
150 572 m 5
 240 550 l 5
 95 -150 l 5
 5 -150 l 5
 150 572 l 5
585 679 m 5
 489 718 l 5
 489 730 461 745 409 745 c 4
 329 745 270 677 240 550 c 5
 150 572 l 5
 180 703 277 790 407 790 c 4
 508 790 585 736 585 679 c 5
468 661 m 4
 468 691 489 698 489 718 c 5
 585 679 l 5
 585 636 561 613 526 613 c 4
 491 613 468 633 468 661 c 4
50 520 m 5
 370 520 l 5
 370 465 l 5
 50 465 l 5
 50 520 l 5
EndSplineSet
Fore
SplineSet
705 780 m 1
 561 119 l 2
 559.599609375 113.094726562 559 106 559 101 c 0
 559 90 564 82 577 82 c 0
 613 82 639 115 665 176 c 1
 718 163 l 1
 682 43 591 -15 510 -15 c 0
 463 -15 425 8 425 58 c 0
 425 77 428.448242188 94.6845703125 432 110 c 2
 561.076171875 710 l 1
 705 780 l 1
485 718 m 1
 616 674 l 1
 616 606 567 577 523 577 c 0
 485 577 448 598 448 645 c 0
 448 701 485 706 485 718 c 1
141 572 m 1
 271 550 l 1
 130 -150 l 1
 0 -150 l 1
 141 572 l 1
616 674 m 1
 485 718 l 1
 485 730 452 740 420 740 c 0
 340 740 301 677 271 550 c 1
 141 572 l 1
 171 703 238 800 418 800 c 0
 569 800 616 721 616 674 c 1
45 520 m 1
 395 520 l 5
 395 455 l 5
 45 455 l 1
 45 520 l 1
EndSplineSet
LCarets2: 1 0
Ligature2: "Not your mama's contextual ligatures" f l
EndChar

StartChar: uniFB03
Encoding: 64259 64259 545
Width: 1093
VWidth: 1155
Flags: HMW
LayerCount: 2
Back
SplineSet
936 113 m 5
 903 23 860 -10 808 -10 c 4
 760.6953125 -10 727.005859375 13.5537109375 727.005859375 63.38671875 c 4
 727.005859375 68.5849609375 727.690429688 79.1083984375 729 85 c 6
 828 520 l 5
 920 520 l 5
 818 71 l 6
 817.470703125 68.7021484375 817.225585938 64.548828125 817.225585938 62.5361328125 c 4
 817.225585938 51.1416015625 823.619140625 46 837 46 c 4
 851 46 883 68 902 124 c 5
 936 113 l 5
921 689 m 5
 825 728 l 5
 825 740 797 755 745 755 c 4
 665 755 606 687 576 560 c 5
 486 582 l 5
 516 713 613 800 743 800 c 4
 844 800 921 746 921 689 c 5
486 582 m 5
 576 560 l 5
 434 -100 l 5
 344 -100 l 5
 486 582 l 5
804 671 m 4
 804 701 825 708 825 728 c 5
 921 689 l 5
 921 646 897 623 862 623 c 4
 827 623 804 643 804 671 c 4
146 552 m 5
 236 530 l 5
 95 -150 l 5
 5 -150 l 5
 146 552 l 5
551 659 m 5
 455 698 l 5
 455 710 437 725 385 725 c 4
 305 725 266 657 236 530 c 5
 146 552 l 5
 176 683 253 770 383 770 c 4
 484 770 551 716 551 659 c 5
434 641 m 4
 434 671 455 678 455 698 c 5
 551 659 l 5
 551 616 527 593 492 593 c 4
 457 593 434 613 434 641 c 4
50 520 m 5
 828 520 l 5
 828 465 l 5
 50 465 l 5
 50 520 l 5
EndSplineSet
Fore
SplineSet
1005 520 m 5
 911 119 l 6
 909.599609375 113.094726562 909 106 909 101 c 4
 909 90 914 82 927 82 c 4
 963 82 989 115 1015 176 c 5
 1068 163 l 5
 1032 43 941 -15 860 -15 c 4
 813 -15 775 8 775 58 c 4
 775 77 778.448242188 94.6845703125 782 110 c 6
 877.076171875 520 l 5
 1005 520 l 5
869 718 m 5
 1000 674 l 5
 1000 606 951 577 907 577 c 4
 869 577 832 598 832 645 c 4
 832 701 869 706 869 718 c 5
525 572 m 5
 655 550 l 5
 520 -100 l 5
 390 -100 l 5
 525 572 l 5
1000 674 m 5
 869 718 l 5
 869 730 836 740 804 740 c 4
 724 740 685 677 655 550 c 5
 525 572 l 5
 555 703 632 800 802 800 c 4
 953 800 1000 721 1000 674 c 5
480 688 m 5
 611 644 l 5
 611 576 562 547 518 547 c 4
 480 547 443 568 443 615 c 4
 443 671 480 676 480 688 c 5
136 542 m 5
 266 520 l 5
 130 -150 l 5
 0 -150 l 5
 136 542 l 5
611 644 m 5
 480 688 l 5
 480 700 447 710 415 710 c 4
 335 710 296 647 266 520 c 5
 136 542 l 5
 166 673 233 770 413 770 c 4
 564 770 611 691 611 644 c 5
45 520 m 5
 885 520 l 5
 885 455 l 5
 45 455 l 5
 45 520 l 5
EndSplineSet
LCarets2: 2 0 0
Ligature2: "Not your mama's contextual ligatures" f f i
EndChar

StartChar: uniFB04
Encoding: 64260 64260 546
Width: 1127
VWidth: 1155
Flags: HMW
LayerCount: 2
Back
SplineSet
952 113 m 5
 919 23 876 -10 824 -10 c 4
 776.6953125 -10 743.005859375 13.5537109375 743.005859375 63.38671875 c 4
 743.005859375 68.5849609375 743.690429688 79.1083984375 745 85 c 6
 882 730 l 5
 988 800 l 5
 834 71 l 6
 833.470703125 68.7021484375 833.225585938 64.548828125 833.225585938 62.5361328125 c 4
 833.225585938 51.1416015625 839.619140625 46 853 46 c 4
 867 46 899 68 918 124 c 5
 952 113 l 5
921 689 m 5
 825 728 l 5
 825 740 797 755 745 755 c 4
 665 755 606 687 576 560 c 5
 486 582 l 5
 516 713 613 800 743 800 c 4
 844 800 921 746 921 689 c 5
486 582 m 5
 576 560 l 5
 434 -100 l 5
 344 -100 l 5
 486 582 l 5
804 671 m 4
 804 701 825 708 825 728 c 5
 921 689 l 5
 921 646 897 623 862 623 c 4
 827 623 804 643 804 671 c 4
146 552 m 5
 236 530 l 5
 95 -150 l 5
 5 -150 l 5
 146 552 l 5
551 659 m 5
 455 698 l 5
 455 710 437 725 385 725 c 4
 305 725 266 657 236 530 c 5
 146 552 l 5
 176 683 253 770 383 770 c 4
 484 770 551 716 551 659 c 5
434 641 m 4
 434 671 455 678 455 698 c 5
 551 659 l 5
 551 616 527 593 492 593 c 4
 457 593 434 613 434 641 c 4
50 520 m 5
 706 520 l 5
 706 465 l 5
 50 465 l 5
 50 520 l 5
EndSplineSet
Fore
SplineSet
1089 780 m 1
 945 119 l 2
 943.599609375 113.094726562 943 106 943 101 c 0
 943 90 948 82 961 82 c 0
 997 82 1023 115 1049 176 c 1
 1102 163 l 1
 1066 43 975 -15 894 -15 c 0
 847 -15 809 8 809 58 c 0
 809 77 812.448242188 94.6845703125 816 110 c 2
 945.076171875 710 l 1
 1089 780 l 1
869 718 m 1
 1000 674 l 1
 1000 606 951 577 907 577 c 0
 869 577 832 598 832 645 c 0
 832 701 869 706 869 718 c 1
1000 674 m 1
 869 718 l 1
 869 730 836 740 804 740 c 0
 724 740 685 677 655 550 c 1
 525 572 l 1
 555 703 622 800 802 800 c 0
 953 800 1000 721 1000 674 c 1
525 572 m 1
 655 550 l 1
 520 -100 l 1
 390 -100 l 1
 525 572 l 1
480 688 m 1
 611 644 l 1
 611 576 562 547 518 547 c 0
 480 547 443 568 443 615 c 0
 443 671 480 676 480 688 c 1
136 542 m 1
 266 520 l 1
 130 -150 l 1
 0 -150 l 1
 136 542 l 1
611 644 m 1
 480 688 l 1
 480 700 447 710 415 710 c 0
 335 710 296 647 266 520 c 1
 136 542 l 1
 166 673 233 770 413 770 c 0
 564 770 611 691 611 644 c 1
45 520 m 1
 785 520 l 5
 785 455 l 5
 45 455 l 1
 45 520 l 1
EndSplineSet
LCarets2: 2 0 0
Ligature2: "Not your mama's contextual ligatures" f f l
EndChar

StartChar: uniFFFD
Encoding: 65533 65533 547
Width: 824
Flags: MW
LayerCount: 2
Back
SplineSet
427 405 m 1
 503 405 617 471 617 580 c 0
 617 649 583 695 497 695 c 1
 497 750 l 1
 668 750 717 670 717 580 c 0
 717 460 618 364 427 364 c 1
 427 405 l 1
297 750 m 1
 497 750 l 1
 497 695 l 1
 297 695 l 1
 297 750 l 1
217 405 m 1
 447 405 l 1
 457 345 l 1
 217 345 l 1
 217 405 l 1
-40 55 m 1
 90 55 l 1
 70 0 l 1
 -40 0 l 1
 -40 55 l 1
110 750 m 1
 222 750 l 1
 222 695 l 1
 110 695 l 1
 110 750 l 1
222 750 m 1
 317 750 l 1
 157 0 l 1
 62 0 l 1
 222 750 l 1
145 55 m 1
 290 55 l 1
 290 0 l 1
 145 0 l 1
 145 55 l 1
687 0 m 29
 582 0 l 6
 518 0 494 38 494 88 c 4
 494 139 519 203 519 255 c 4
 519 306 502 345 437 345 c 5
 457 381 l 5
 592 381 625 323 625 257 c 4
 625 197 598 129 598 89 c 4
 598 68 605 55 628 55 c 6
 687 55 l 5
 687 0 l 29
EndSplineSet
Fore
SplineSet
717 0 m 29
 622 0 l 6
 538 0 484 28 484 88 c 4
 484 139 509 203 509 255 c 4
 509 306 492 335 427 335 c 5
 467 381 l 5
 602 381 655 323 655 257 c 4
 655 197 628 149 628 109 c 4
 628 88 635 75 658 75 c 6
 717 75 l 5
 717 0 l 29
175 75 m 1
 310 75 l 1
 310 0 l 1
 175 0 l 1
 175 75 l 1
110 750 m 1
 225 750 l 1
 225 675 l 1
 110 675 l 1
 110 750 l 1
-40 75 m 1
 95 75 l 1
 95 0 l 1
 -40 0 l 1
 -40 75 l 1
449 415 m 5
 525 415 619 471 619 580 c 4
 619 639 595 675 519 675 c 5
 519 750 l 5
 690 750 759 690 759 580 c 4
 759 440 640 364 449 364 c 5
 449 415 l 5
317 750 m 1
 519 750 l 5
 519 675 l 5
 317 675 l 1
 317 750 l 1
237 415 m 1
 469 415 l 5
 469 335 l 5
 237 335 l 1
 237 415 l 1
222 750 m 1
 362 750 l 1
 202 0 l 1
 62 0 l 1
 222 750 l 1
EndSplineSet
EndChar

StartChar: uniFFF0
Encoding: 65520 65520 548
Width: 395
VWidth: 1155
Flags: MW
LayerCount: 2
Back
SplineSet
24.998046875 58 m 5
 158.998046875 101 l 5
 158.998046875 90 163.998046875 82 176.998046875 82 c 4
 212.998046875 82 238.998046875 115 264.998046875 176 c 5
 317.998046875 163 l 5
 281.998046875 43 190.998046875 -15 109.998046875 -15 c 4
 62.998046875 -15 24.998046875 8 24.998046875 58 c 5
30 520 m 5
 375 520 l 5
 375 455 l 5
 30 455 l 5
 30 520 l 5
158.998046875 101 m 5
 24.998046875 58 l 5
 24.998046875 66 25.87890625 77.0283203125 27.998046875 86 c 6
 151.998046875 611 l 5
 207.998046875 611 259.998046875 638 259.998046875 638 c 5
 287.998046875 638 l 5
 162.998046875 129 l 6
 160.049804688 116.994140625 158.998046875 110 158.998046875 101 c 5
EndSplineSet
Fore
SplineSet
24.998046875 58 m 1
 158.998046875 101 l 1
 158.998046875 90 163.998046875 82 176.998046875 82 c 0
 212.998046875 82 238.998046875 115 264.998046875 176 c 1
 317.998046875 163 l 1
 281.998046875 43 190.998046875 -15 109.998046875 -15 c 0
 62.998046875 -15 24.998046875 8 24.998046875 58 c 1
30 520 m 1
 375 520 l 1
 375 455 l 1
 30 455 l 1
 30 520 l 1
158.998046875 101 m 1
 24.998046875 58 l 1
 24.998046875 66 25.87890625 77.0283203125 27.998046875 86 c 2
 149.998046875 560 l 1
 215.998046875 560 253.998046875 618 253.998046875 618 c 5
 291.998046875 618 l 1
 162.998046875 129 l 2
 160.049804688 116.994140625 158.998046875 110 158.998046875 101 c 1
EndSplineSet
EndChar
